<mxfile host="65bd71144e">
    <diagram id="_RtcT2uqf3hQ0zR2q6TY" name="Page-1">
        <mxGraphModel dx="1827" dy="751" grid="1" gridSize="10" guides="1" tooltips="1" connect="1" arrows="1" fold="1" page="1" pageScale="1" pageWidth="850" pageHeight="1100" math="0" shadow="0">
            <root>
                <mxCell id="0"/>
                <mxCell id="1" parent="0"/>
                <mxCell id="2" value="Architecture: Cloud Run (Workpress) with GCE (NFS)" style="fillColor=#4DA1F5;strokeColor=none;shadow=1;gradientColor=none;fontSize=14;align=left;spacingLeft=50;fontColor=#ffffff;" parent="1" vertex="1">
                    <mxGeometry x="-739" y="80" width="980" height="40" as="geometry"/>
                </mxCell>
                <mxCell id="3" value="" style="sketch=0;points=[[0,0,0],[0.25,0,0],[0.5,0,0],[0.75,0,0],[1,0,0],[1,0.25,0],[1,0.5,0],[1,0.75,0],[1,1,0],[0.75,1,0],[0.5,1,0],[0.25,1,0],[0,1,0],[0,0.75,0],[0,0.5,0],[0,0.25,0]];rounded=1;absoluteArcSize=1;arcSize=2;html=1;strokeColor=none;gradientColor=none;shadow=0;dashed=0;fontSize=12;fontColor=#9E9E9E;align=left;verticalAlign=top;spacing=10;spacingTop=-4;fillColor=#F6F6F6;" parent="1" vertex="1">
                    <mxGeometry x="-738" y="110" width="979" height="680" as="geometry"/>
                </mxCell>
                <mxCell id="27" value="Cloud&#10;IAM" style="sketch=0;html=1;verticalAlign=top;labelPosition=center;verticalLabelPosition=bottom;align=center;spacingTop=-6;fontSize=11;fontStyle=1;fontColor=#999999;shape=image;aspect=fixed;imageAspect=0;image=data:image/svg+xml,PHN2ZyB4bWxucz0iaHR0cDovL3d3dy53My5vcmcvMjAwMC9zdmciIHhtbG5zOnY9Imh0dHBzOi8vdmVjdGEuaW8vbmFubyIgd2lkdGg9IjE2LjQyMDAwMDA3NjI5Mzk0NSIgaGVpZ2h0PSIyMC4wNDk5OTkyMzcwNjA1NDciIGZpbGwtcnVsZT0iZXZlbm9kZCIgdmlld0JveD0iMCAwIDE2LjQyMDAwMDA3NjI5Mzk0NSAyMC4wNDk5OTkyMzcwNjA1NDciPiYjeGE7CTxzdHlsZSB0eXBlPSJ0ZXh0L2NzcyI+JiN4YTsJLnN0MHtmaWxsOiM0Mjg1ZjQ7fSYjeGE7CS5zdDF7ZmlsbDojNjY5ZGY2O30mI3hhOwk8L3N0eWxlPiYjeGE7CTxwYXRoIGNsYXNzPSJzdDEiIGQ9Ik04LjIxIDBMMCAzLjQydjUuNjNjMCA1LjA2IDMuNSA5LjggOC4yMSAxMSA0LjcxLTEuMTUgOC4yMS01Ljg5IDguMjEtMTAuOTVWMy40MnptMCAzLjc5YTIuNjMgMi42MyAwIDAgMSAxLjAwNSA1LjA2QTIuNjMgMi42MyAwIDAgMSA2LjM1IDQuNTZhMi42MyAyLjYzIDAgMCAxIDEuODYtLjc3em00LjExIDExLjE1YTguNjQgOC42NCAwIDAgMS00LjExIDIuOTMgOC42NCA4LjY0IDAgMCAxLTQuMTEtMi45M3YtMi4yNWMwLTEuNjcgMi43NC0yLjUyIDQuMTEtMi41MnM0LjExLjg1IDQuMTEgMi41MnoiLz4mI3hhOwk8cGF0aCBjbGFzcz0ic3QwIiBkPSJNOC4yMSAwdjMuNzlhMi42MyAyLjYzIDAgMSAxIDAgNS4yNnYxLjEyYzEuMzcgMCA0LjExLjg1IDQuMTEgMi41MnYyLjI1YTguNjQgOC42NCAwIDAgMS00LjExIDIuOTNWMjBjNC43MS0xLjE1IDguMjEtNS44OSA4LjIxLTEwLjk1VjMuNDJ6Ii8+JiN4YTs8L3N2Zz4=;" parent="3" vertex="1">
                    <mxGeometry x="481.5255102040816" y="569.9996703296704" width="49.94897959183673" height="61.69697959183673" as="geometry"/>
                </mxCell>
                <mxCell id="10" value="Region" style="sketch=0;points=[[0,0,0],[0.25,0,0],[0.5,0,0],[0.75,0,0],[1,0,0],[1,0.25,0],[1,0.5,0],[1,0.75,0],[1,1,0],[0.75,1,0],[0.5,1,0],[0.25,1,0],[0,1,0],[0,0.75,0],[0,0.5,0],[0,0.25,0]];rounded=1;absoluteArcSize=1;arcSize=2;html=1;strokeColor=none;gradientColor=none;shadow=0;dashed=0;fontSize=12;fontColor=#9E9E9E;align=left;verticalAlign=top;spacing=10;spacingTop=-4;fillColor=#ECEFF1;" parent="3" vertex="1">
                    <mxGeometry width="870" height="500" relative="1" as="geometry">
                        <mxPoint x="97" y="40" as="offset"/>
                    </mxGeometry>
                </mxCell>
                <mxCell id="44" value="VPC" style="sketch=0;points=[[0,0,0],[0.25,0,0],[0.5,0,0],[0.75,0,0],[1,0,0],[1,0.25,0],[1,0.5,0],[1,0.75,0],[1,1,0],[0.75,1,0],[0.5,1,0],[0.25,1,0],[0,1,0],[0,0.75,0],[0,0.5,0],[0,0.25,0]];rounded=1;absoluteArcSize=1;arcSize=2;html=1;strokeColor=none;gradientColor=none;shadow=0;dashed=0;fontSize=12;fontColor=#9E9E9E;align=left;verticalAlign=top;spacing=10;spacingTop=-4;fillColor=#F1F8E9;" parent="10" vertex="1">
                    <mxGeometry x="189.6132258064516" y="18.87" width="455.8706451612903" height="421.13" as="geometry"/>
                </mxCell>
                <mxCell id="47" style="edgeStyle=none;html=1;exitX=1;exitY=0.5;exitDx=0;exitDy=0;entryX=0;entryY=0.5;entryDx=0;entryDy=0;strokeColor=#FFB366;strokeWidth=2;" parent="10" source="25" target="30" edge="1">
                    <mxGeometry relative="1" as="geometry"/>
                </mxCell>
                <mxCell id="25" value="Cloud&#10;Run" style="sketch=0;html=1;verticalAlign=top;labelPosition=center;verticalLabelPosition=bottom;align=center;spacingTop=-6;fontSize=11;fontStyle=1;fontColor=#999999;shape=image;aspect=fixed;imageAspect=0;image=data:image/svg+xml,PHN2ZyB4bWxucz0iaHR0cDovL3d3dy53My5vcmcvMjAwMC9zdmciIHhtbG5zOnY9Imh0dHBzOi8vdmVjdGEuaW8vbmFubyIgd2lkdGg9IjM2NS40NjQ5OTY3NzA0MjQ5MyIgaGVpZ2h0PSIzNzkuMjIyOTk0NDYzNTc3OTUiIHZpZXdCb3g9IjAgMCA5Ni42OTU5OTkxNDU1MDc4MSAxMDAuMzM1OTk4NTM1MTU2MjUiPiYjeGE7PHN0eWxlIHR5cGU9InRleHQvY3NzIj4mI3hhOwkuc3Qwe2ZpbGw6IzQyODVmNDt9JiN4YTsJLnN0MXtmaWxsOiNhZWNiZmE7fSYjeGE7PC9zdHlsZT4mI3hhOwk8cGF0aCBjbGFzcz0ic3QwIiBkPSJNMjkuNzk0IDEwMC4zMzZMNDYuOTIgNTAuMTY4aDQ5Ljc3NnpNMCA5OS42NzFsMTIuOTc2LTQ5LjUwMkgyOS4yMkwxNi44OTcgOTIuMDU0eiIvPiYjeGE7CTxwYXRoIGNsYXNzPSJzdDEiIGQ9Ik0yOS43OTQgMEw0Ni45MiA1MC4xNjhoNDkuNzc2ek0wIC42NjZsMTIuOTc2IDQ5LjUwMkgyOS4yMkwxNi44OTcgOC4yODN6Ii8+JiN4YTs8L3N2Zz4=;" parent="10" vertex="1">
                    <mxGeometry x="33.46153846153846" y="169.81132075471697" width="46.774193548387096" height="46.774193548387096" as="geometry"/>
                </mxCell>
                <mxCell id="11" value="Zone" style="sketch=0;points=[[0,0,0],[0.25,0,0],[0.5,0,0],[0.75,0,0],[1,0,0],[1,0.25,0],[1,0.5,0],[1,0.75,0],[1,1,0],[0.75,1,0],[0.5,1,0],[0.25,1,0],[0,1,0],[0,0.75,0],[0,0.5,0],[0,0.25,0]];rounded=1;absoluteArcSize=1;arcSize=2;html=1;strokeColor=none;gradientColor=none;shadow=0;dashed=0;fontSize=12;fontColor=#9E9E9E;align=left;verticalAlign=top;spacing=10;spacingTop=-4;fillColor=#FFF3E0;" parent="10" vertex="1">
                    <mxGeometry width="450" height="380" relative="1" as="geometry">
                        <mxPoint x="193" y="40" as="offset"/>
                    </mxGeometry>
                </mxCell>
                <mxCell id="12" value="Firewall" style="sketch=0;points=[[0,0,0],[0.25,0,0],[0.5,0,0],[0.75,0,0],[1,0,0],[1,0.25,0],[1,0.5,0],[1,0.75,0],[1,1,0],[0.75,1,0],[0.5,1,0],[0.25,1,0],[0,1,0],[0,0.75,0],[0,0.5,0],[0,0.25,0]];rounded=1;absoluteArcSize=1;arcSize=2;html=1;strokeColor=none;gradientColor=none;shadow=0;dashed=0;fontSize=12;fontColor=#9E9E9E;align=left;verticalAlign=top;spacing=10;spacingTop=-4;fillColor=#FBE9E7;" parent="11" vertex="1">
                    <mxGeometry width="330" height="320" relative="1" as="geometry">
                        <mxPoint x="10" y="33" as="offset"/>
                    </mxGeometry>
                </mxCell>
                <mxCell id="34" value="SubNetwork" style="sketch=0;points=[[0,0,0],[0.25,0,0],[0.5,0,0],[0.75,0,0],[1,0,0],[1,0.25,0],[1,0.5,0],[1,0.75,0],[1,1,0],[0.75,1,0],[0.5,1,0],[0.25,1,0],[0,1,0],[0,0.75,0],[0,0.5,0],[0,0.25,0]];rounded=1;absoluteArcSize=1;arcSize=2;html=1;strokeColor=none;gradientColor=none;shadow=0;dashed=0;fontSize=12;fontColor=#9E9E9E;align=left;verticalAlign=top;spacing=10;spacingTop=-4;fillColor=#EDE7F6;" parent="11" vertex="1">
                    <mxGeometry width="310" height="280" relative="1" as="geometry">
                        <mxPoint x="20" y="58" as="offset"/>
                    </mxGeometry>
                </mxCell>
                <mxCell id="26" value="Compute&#10;Engine" style="sketch=0;html=1;verticalAlign=top;labelPosition=center;verticalLabelPosition=bottom;align=center;spacingTop=-6;fontSize=11;fontStyle=1;fontColor=#999999;shape=image;aspect=fixed;imageAspect=0;image=data:image/svg+xml,PHN2ZyB4bWxucz0iaHR0cDovL3d3dy53My5vcmcvMjAwMC9zdmciIHhtbG5zOnY9Imh0dHBzOi8vdmVjdGEuaW8vbmFubyIgd2lkdGg9IjIwIiBoZWlnaHQ9IjIwIiB2aWV3Qm94PSIwIDAgMjAgMjAiPiYjeGE7CTxzdHlsZSB0eXBlPSJ0ZXh0L2NzcyI+JiN4YTsJLnN0MHtmaWxsOiM0Mjg1ZjQ7fSYjeGE7CS5zdDF7ZmlsbDojNjY5ZGY2O30mI3hhOwkuc3Qye2ZpbGw6I2FlY2JmYTt9JiN4YTsJPC9zdHlsZT4mI3hhOwk8cGF0aCBjbGFzcz0ic3QyIiBkPSJNNyA3aDZ2Nkg3eiIvPiYjeGE7CTxwYXRoIGNsYXNzPSJzdDEiIGQ9Ik05IDBoMnY0SDl6TTUgMGgydjRINXptOCAwaDJ2NGgtMnoiLz4mI3hhOwk8cGF0aCBjbGFzcz0ic3QwIiBkPSJNOSAxNmgydjRIOXptLTQgMGgydjRINXptOCAwaDJ2NGgtMnptMy01VjloNHYyem0wIDR2LTJoNHYyem0wLThWNWg0djJ6Ii8+JiN4YTsJPHBhdGggY2xhc3M9InN0MSIgZD0iTTAgMTFWOWg0djJ6bTAgNHYtMmg0djJ6bTAtOFY1aDR2MnoiLz4mI3hhOwk8cGF0aCBjbGFzcz0ic3QyIiBkPSJNMyAzdjE0aDE0VjN6bTEyIDEySDVWNWgxMHoiLz4mI3hhOwk8cGF0aCBjbGFzcz0ic3QxIiBkPSJNMTAgMTBsLTMgM2g2eiIvPiYjeGE7CTxwYXRoIGNsYXNzPSJzdDAiIGQ9Ik0xMyA3bC0zIDMgMyAzeiIvPiYjeGE7PC9zdmc+;" parent="11" vertex="1">
                    <mxGeometry x="135.00434782608696" y="127.81" width="50" height="50" as="geometry"/>
                </mxCell>
                <mxCell id="70" value="" style="strokeColor=#d6b656;shadow=1;strokeWidth=1;rounded=1;absoluteArcSize=1;arcSize=2;fillColor=#fff2cc;gradientColor=#ffd966;" vertex="1" parent="11">
                    <mxGeometry x="250" y="328" width="200" height="44" as="geometry"/>
                </mxCell>
                <mxCell id="71" value="&lt;font color=&quot;#999999&quot;&gt;&lt;b&gt;Private Google Acccess&lt;/b&gt;&lt;/font&gt;" style="sketch=0;dashed=0;connectable=0;html=1;fillColor=#757575;strokeColor=none;shape=mxgraph.gcp2.logs_api;part=1;labelPosition=right;verticalLabelPosition=middle;align=left;verticalAlign=middle;spacingLeft=5;fontSize=12;" vertex="1" parent="70">
                    <mxGeometry y="0.5" width="32" height="32" relative="1" as="geometry">
                        <mxPoint x="5" y="-16" as="offset"/>
                    </mxGeometry>
                </mxCell>
                <mxCell id="72" style="edgeStyle=none;html=1;entryX=0;entryY=0.5;entryDx=0;entryDy=0;fontColor=#999999;strokeColor=#FFB366;strokeWidth=2;" edge="1" parent="10" target="70">
                    <mxGeometry relative="1" as="geometry">
                        <mxPoint x="270" y="193" as="sourcePoint"/>
                        <Array as="points">
                            <mxPoint x="270" y="390"/>
                        </Array>
                    </mxGeometry>
                </mxCell>
                <mxCell id="30" value="" style="shape=image;verticalLabelPosition=bottom;labelBackgroundColor=default;verticalAlign=top;aspect=fixed;imageAspect=0;image=data:image/png,iVBORw0KGgoAAAANSUhEUgAAAgAAAAIACAYAAAD0eNT6AAAAAXNSR0IArs4c6QAAIABJREFUeAHt3V2ILHeZMHBZRATFC69E8EIQEUEQchHwwos3e5GLvLy50AUvXD/OVA8cNIiyYcXgBkWIsEGCCas5XT0kUXGPGDGKshyMStbd9XVdIxt5T16C4WA0aAhGMlU18w5z6uXpOZXpM6d7pj+q+qPq13DoPj3d9fGr//95nqqu+terXuVBgAABAgQIECBAgAABAgQIECBAgAABAgQIECBAgAABAgQIECBAgAABAgQIECBAgAABAgQIECBAgAABAgQIECBAgAABAgQIECBAgAABAgQIECBAgAABAgQIECBAgAABAgQIECBAgAABAgQIECBAgAABAgQIECBAgAABAgQIECBAgAABAgQIECBAgAABAgQIECBAgAABAgQIECBAgAABAgQIECBAgAABAgQIECBAgAABAgQIECBAgAABAgQIECBAgAABAgQIECBAgAABAgQIECBAgAABAgQIECBAgAABAgQIECBAgAABAgQIECBAgAABAgQIECBAgAABAgQIECBAgAABAgQIECBAgAABAgQIECBAgAABAgQIECBAgAABAgQIECBAgAABAgQIECBAgAABAgQIECBAgAABAgQIECBAgAABAgQIECBAgAABAgQIECBAgAABAgQIECBAgAABAgQIECBAgAABAgQIECBAgAABAgQIECBAgAABAgQIECBAgAABAgQIECBAgAABAgQIECBAgAABAgQIECBAgAABAgQIECBAgAABAgQIECBAgAABAgQIECBAgAABAgQIECBAgAABAgQIECBAgAABAgQIECBAgAABAgQIECBAgAABAgQIECBAgAABAgQIECBAgAABAgQIECBAgAABAgQIECBAgAABAgQIECBAgAABAgQIECBAgAABAgQIECBAgAABAgQIECBAgAABAgQIECBAgAABAgQIECBAgAABAgQIECBAgAABAgQIECBAgAABAgQIECBAgAABAgQIECBAgAABAgQIECBAgAABAgQIECBAgAABAgQIECBAgAABAgQIECBAgAABAgQIECBAgAABAgQIECBAgAABAgQIECBAgAABAgQIECBAgAABAgQIECBAgAABAgQIECBAgAABAgQIECBAgAABAgQIECBAgAABAgQIECBAgAABAgQIECBAgAABAgQIECBAgAABAgQIECBAgAABAgQIECBAgAABAgQIECBAgAABAgQIECBAgAABAgQIECBAgAABAgQIECBAgAABAgQIECBAgAABAgQIECBAgAABAgQIECBAgAABAgQIECBAgAABAgQIECBAgAABAgQIECBAgAABAgQIECBAgAABAgQIECBAgAABAgQIECBAgAABAgQIECBAgAABAgQIECBAgAABAgQIECBAgAABAgQIECBAgAABAgQIECBAgAABAgQIECBAgAABAgQIECBAgAABAgQIECBAgAABAgQIECBAgAABAgQIECBAgAABAgQIECBAgAABAgQIECBAgAABAgQIECBAgAABAksQuPvu8q/O9f/yxuTBvbcng/w9yYPZbduD/H3xrzfIevEv6Wfne4P8ztF/R+8d/b36fHz3aBp7b49pxrSXsApmQYAAAQIECIwKfHinfG1vZ/8d2/3dWyNhJ4P8nmSQX+yl2RO9NL+cpMWfeml2tZcWZTP/sqtH88gvxzxj3rEMUVTEMsWyxTKOLrPXBAgQIECAwJQC5x8oXx973sM99jS/P0l3f5KkxXPNJPX6i4VY1ljmXprff3TUIb851mnK1fcxAgQIECDQfoFIjNv94pZkUHw2SfceTfrZM83uxdef8KcrTLKrsW7DdRwUn411VhS0v31bQwIECBC4JvDRNHvztd/W7xkeRk+zvekS6KoSd3PzTdLsIBkUTyWD4iu9fvGhrYeLt2ooBAgQIECgFQKxl9vrZ7cPk9wgu9LVZD/teidp9tujgiC73RGCVnQBK0GAAIHuCMSe7NYgv6OXZpeSDu/hT5v0J30ujhAMT3Ac5HduXchuchVCd/qQNSVAgMDGCESCunZGvL38hq5CODo6kN8T1hvTMCwoAQIECLRPYHuw/844ea+X7j49aS/W+w2dQzD8OSW/L66WaF/LskYECBAgsHYCw5P4+sVdkn5DiX2uowf55aRf3BXbZu0ajAUiQIAAgc0ViN+ejy7Vyy8e/S69TsnPslRHWbbS7DDOu4iRDO++u3z15rY4S06AAAECKxUYnsyXZp/bpEF4qmTY9efYZltp9rmPDPK3rLQRmTkBAgQIbI7A8IS+dPcbzuDf/KMLw6MCg/wx5wpsTv+zpAQIEFiqQBzmjwF64hDy0d5zk2Pqb35i3cQjDEm698sYcMjlhEvtWmZGgACB9RT44MPl64Y31hkOwSsxb2Jin32Zd5+Obe7GRevZJy0VAQIEGhV4/8XyNcNb427QTXZmT3QKmtPMhnc2HOR3KgQa7WomToAAgfUQGCb+fvGhGFTmtOTgbx0qHgbZlRi5MdrGerRSS0GAAAECtQkML+Ub5O87utteh5LbXNfVd9QnBhcaZD2XENbW7UyIAAECqxXY7u/e2kvzy/bqO5rYZyyC4g6F0WZW22rNnQABAgTmFkge3Ht7MsgvSvwS/3xtIAYV2n/n3A3QFwkQIEBguQLn+n95Y9yYx3X8Ev98if/Y7Wjkx/y+aFPLbcXmRoAAAQJTC8Tv/NfO7P/TooHf94+TIIui3EqL57fS4pwxBKbujj5IgACB5Qic6++9LUnzxyUribvZNpA90dvZf8dyWrW5ECBAgMBEgThjuzfI73S4X+JvNvEf+0Zbi9tAu2xwYrf0BwIECDQrkOzsvns4vOuMZ3kvK1GYz3HSbKNFkuZP9gb5zc22clMnQIAAgVcEYs8rSfN73Zq33Ql2E4qGaINxwqmjAa90Ty8IECDQjED8/mqvX+Jft+Igxg7o7ey+q5lWb6oECBDouEDcyS1Js2zdgr/lUZBEG4i2GUMKu1Kg44HK6hMgUJ9AXIPdG+SPSbQS7Wa0gezS+Z3dN9XXA0yJAAECHRTY7he3xDXYmxH4JWjbKbsaBklaPBdtt4Nd1ioTIEBgMYE4jBqHU53op6jY1KJi2HYH+Z1+ElgsFvg2AQIdEjj/QPl6Y/hL/Jua+G9Y7kH+2Me/Vr6hQ13YqhIgQGB2gaMb+BRP3RBEXetfMtnkoii/7MZCs8cD3yBAoCMCvX52e5IWL0l0m5zoLPuk9httO3kwu60j3dlqEiBAYDqB+L1/K80OJwVP70us7WgD2dUYRni6XuFTBAgQaLFAnCDVS/P72xHcJWnbcbo2sJ0WD8Z9LFrcta0aAQIEJgvEyX6u758uYUisbXTKLkUfmNxD/IUAAQItFPhomr3ZkL5tTGrWabpirRovIH/yI4P8LS3s4laJAAECNwocjedfPDddoJRQOLW8DQyyK3H1y409xTsECBBokUBcChWjpElqLU9qLtuc6bLN4WiXbibUokhnVQgQuE5g60J2U5IWf5L8JX9t4MY2MLwEdpDffF2n8R8CBAhsusB2v3iva/xvDPqrSoTnHyrKTzxy9C9er2o5zHfUPrsadxR0D4FNj3aWnwCBVwQioEn+o4G+2dcfe6gov/Dd/fLCj/fLx/7roPzPZw/L3714WL7wcllm+2V5eFje8Ij34m/xmfhsfCe+G9OIacU0JevlGBwVAbu3vtKBvCBAgMAmCmz3d29N0mxP8mgueURy/tIPj5L9U88dlgdjEvwNGX/GN6JAePaFw/JHvzkov/r4fnnHI82tj7YSdxPM9hwJ2MSIZ5kJEBgKJIP8PbE3I6DXnyzj8P3Xf3ZQXv5DMwn/rPogioyY9yP/ejD8KcE2rn8bX/s54L3CCQECBDZKoDfIb3bYv96ksL1ztKf/H88clvsHZ6Xo5f09ioFfXzkcHhmIZVQM1GcQfShOnt2ozm9hCRDorkBvZ/ddcba/ZFBPIoiT9GJP+8WXl5fU551TLOM3//3AOQM1XgYZRUCys/vu7kYUa06AwEYInOvvvW14TXONAbCre5Tx234k05eyedPx6r73clEOTyJ0rkA9ReDROAH779iIIGAhCRDonsDR8L4G+Vm0YIkjJ/H7fpyVv+mPKARiXRwNqqEQGGRXzu/svql7kcUaEyCw1gJxUxNj+y8e5D//nf3h2fabnvhPLv+VFw7LL35v3/kBCx4Ziz7mBkJrHQotHIFuCQxv6TvIH1t0z7fL34+z+n/8fw7GXqN/Mplu6v/jUsIf/+bAJYQLFgG9tPi+Wwl3K8ZaWwJrK9BL8/u7nLwXXfcYaOePf9nUtD77csdgQ44GLHa0KBkUX1nbgGDBCBDohkBvkN+5aALs8vfj7P4mBu6ZPS0v9xuxznGCY5e3/eLrnn+qG1HGWhIgsHYCvX52+1aaHS4eyBbbG9rE+cfZ8b+60sCQfcvN4wvPLYYcdqXAfO1/2Pf62e1rFxgsEAEC7RaI+5cb6Ge+wP3JrxfD8fYXzp4tmcDv/3xY/t0357PcxOKvzmUe9sEdlwe2O9paOwJrJDA8439QPFVnIOvKtD7zraJTv/dPW6PEeQFh05V2UO965pc//rXyDWsUIiwKAQJtFIgz/pNBfrHeANaNwB8n+8V18R7jBWLAo7gMUtuavT8k6d6j0TfbGHOsEwECayJwrl98WoCePUBHYmvDwD7jU3d974aRImD29nXUJ50UuCZh0mIQaJ9A3J40SbMDBcBsAToOba96ON846/75l8oybhccJ9498fRBeem/j/7F63gv/hafWfVVCXGU5K5vz2asTQ5vIXyw3S/cPbB9odcaEVidQBxaPNf/yxuN8T97UooT/lZxjX/MMwYWuvDj/WEynX4o3uxqfDYScHw3ioNVLH+cExB2EvtsBtFHDRe8ulhpzgRaJ2Ckv9mCcJW04vK23724vEv94mz67/zioPz7f55veavlHvcc04xpxxGCZT1i+GCXCM6+LeN8gNYFIStEgMBqBJJ+dn5cUvDe6cH5P55pPvnH8LoxnzjBcFnbI+YVPxnEvJt+xHyWtV6tms8g660mWpgrAQKtEdge7L8zSbOsVcFx8bHYz0xKMcpdk49IvnF4fpWXzsXPBD/7v80XAnE3Qe3v9GLzpM+wzxofoDVx2IoQWLrA+y+Wr3GHv9kCbwTiOIt9v8H8/+wLy93jP5lcTv4/1veZPzZ3OCBOSnRlwOztMPpu9OGlBw4zJEBg8wWSNL/3ZLD3/9MDcfxm3dRJc3GJ3ENPLO9Q/yzbOk4cjD31pgqfMHU+wOltb9z2Sgb5PZsfiawBAQJLFdi6kN3kkr/ZA+6PftPMrn+c4PcPj+6t/aHw+FmgqRMf47LFcUnOe5PbafTh6MtLDR5mRoDA5grEvcYd+p8cVCclnDhM3cSJcfFb//mHZl+eScvZ9PuxrHFuQN2PsPVTwOztIEnzJ/0UsLnx2JITWKpA0i/uajpJtG36cQi8id/Bf/Dk5u71fvsX9R8NifMfph/TYPZk2bZ2+cr6DPI7lxpEzIwAgc0TOLrLX7b3SuBYwhnzbZhX/P5d5yP2dttw9nusQ91HRdb1PIh1bsdxVcC5/t7bNi8iWWICBJYiMBzwJ82eWOdAto7L9rGHitpv8hOXEa7jus6zTHUXRzGs8ib9JDKPWRPfSdLdn7hh0FJCqZkQ2DyB3iDrNRF42j7Niz+vd+//sf9qT/Kvtn2sU52PNhVIldEynrfS4tzmRSZLTIBAowIx1n+SFn9aRhBq0zxiT7TOG/3ECX9t8hldlzpPDHzxZUcBRm2nfR33Cvj418o3NBpMTJwAgc0S6KX5fdMGEZ87PrmszsPbcalf/JzQVt8oluq8RNC5APO1FWMDbFZstrQEGhXo7ey/wzX/swfTOBs97lpXxyMG0NmE6/wXLU5inIAY0KiORwwO5IqA2dttkmZ7cbJvo0HFxAkQ2AyBXlp8f9HA3sXvf+mHNWWysh1n/E/bBuq8T0Jsg2nn63PHxYI7Bm5GbLaUBBoV2O7v3iowHgfGWSzquttf165tj732WOc6HnFewSzbzGeP23r0/UaDi4kTILC+AsMR/wbFU4LicVCc1iJ+q69j3Pu4Rv7oVr7Z1Wnn3YbPxTrXMT5AbIM2nzfR5LZOBsVTLgtc3/hsyQg0KhCXBDUZYNo87TgBrY5HHEVos9Pkdcuu1nUEZfBTPwNMdj69uN26kH+g0SBj4gQIrJ/A8Fa//eyZeQNH17/31HOLH8KOKXThxL9JbSXWvY6jAL++0tUi6vTkPsl99P2knz0TRwLXL0JZIgIEGhMw6M/8wTMuZ6vj8P9/Pitx/erK4oVUbAsjA87fng0O1FiYNWEC6ycQe/+9QXZldE/A6+kD6D/+oJ7D/1/8Xhy67tZv/yfbWb2W02/Dk8vR6f8PsivuFrh+cdoSEWhEYGuQ39HpgLfgDY7qGNY2xg+wDY4Sdh1jKbRx+ORlto+kn51vJNiYKAEC6yPwwYfL18VwoMsMLm2bVx23/ZWwjvfW45bHiz4u/8HPKYv0syQtnvvwTvna9YlUloQAgdoFotJfJFB0/bvxW/PB4j9blzEiXtctq/WPkwEXfcR5AEYFXLBNDbJe7QHHBAkQWA+BuOY3zvqtAq/n2QNmHckqbh7E/nr7Om6opKi63nT2Nrb7tHEB1iNWWwoCtQtsD/L3zR4UFg0q7fr+A5cWPwGwu9f+T24LdYwJ8OVLxgNYtH8nD2a31R54TJAAgdULbKX5vy0aILr+/W//YvHfq93F7sZCoI6BlWLbdL19Lrr+Sbr7k9VHKktAgECtAr1BfvOiwcH3i7KOe9p//jv2VE+2pRgaeNHHE08rAE66zvX/QX5zrcHHxAgQWK1A3P1rrmCw4CVzbZvnolcAxPmDxq6/8QjAHY8U5aLnVroS4EbXefpfMsgvrjZamTsBArUJbD1cvDVJs4N5goHvXB9Uf//nxdLUi67/n3iYftETAWPbaK/Xt9d5PCJWfGSQv6W2AGRCBAisTmArzT43TyDwnRuDaSTwRR5xBIHrja5hsujRFYMrjXedp70lg+Kzq4tY5kyAQC0CcVmPYX/rC4zZgj9Vu3HN5G2x6A2WXi5cXjlPsh/3nRgYyCWBtYRgEyGwOoG4rGdcB/fe5ER0ms2id687ugSw2+P/T/KNmyMt8ogBmiZN2/uzt/ft/u6tq4tc5kyAwMICvUH+mOA3e/AbZxajAC76cKb65G0RNos+3BVwsu+4Nn3ae3Hi8MIByAQIEFiNwEfT7M1O/qsvIMaZ6os+fvwbl6pNSjphs+gjttGk6Xt/NpuIHRFDVhO9zJUAgYUEkn5xl6A3W9A7zUsBUJ/lOGcFQLO+48zPeu9cv/j0QkHIlwkQWI1AL919+qwO7u/TB10FwPRW87QrBUCzvvNsk16aX15N9DJXAgTmFti6kN00X4dfxyC0HsukAGh2OygAmvWdOx7s7L5r7kDkiwQILF8gGeT3zN3hjf439ndkBUCzCUoB0KzvvPEgxhFZfgQzRwIE5hZw29/6g6kCoH7T0aSkAGjWd9R6ltcRS+YORL5IgMByBRz+byaQKgCaca2SkQKgWd/KeZ7nZGf33cuNYuZGgMBcAkma3ztPJ/ed0wOwAuB0n0XbjwKgWd9Ftk/8pDhXMPIlAgSWJxDDdyZp9ttFOrvvjg/ECoDxLnW1FwVAs76LbCc/AywvhpsTgbkFeju771qko/vu5CCsAJhsU0e7UQA067vwNtrZf8fcgckXCRBoXqA3yO9cuKO7CmB4FcBnvlWUD1zaL7/9i4PyB08elHUMVRu3rI3p+HejwaK3Wo5RBMM1tlVss9h2f//Pa55UN6qv5Z9qPoKZAwECcwsk6e5PFADzB/1//MH+MIksetvfRYe09f36BGJbRmEQ23Z7Z/620e1+FTewyi7NHZh8kQCBZgXOP1C+PkmzvW4HqtkDfNxA5qEn9svnX6ov6ZjSegrENo5trRCYvZ9EbIkY02wUM3UCBOYS6PWz2yX/2QLbl34o8a9nqm52qaIQiG2vv8zWX+L24nMFJ18iQKBZgWRQfEVAmy6gxV5/HSedNZumTL1JgcOyHLYBtxCers8cxZb8/majmKkTIDCXQG+QXVEAnB3MPvn1onz2hQj/HgTKYVuINqHvnG3gcsC5QrMvEWhW4COD/C0C2NkBLM4K/+NfpD0C1wu88HLpioEpr0iIWNNsNDN1AgRmEti6kH9AAXB6ARB7eU70uz7x+d+xQBSGjgSc3ocixmwP8vfNFJx8mACBZgV6aX6/AmBy8Iqzvp/5o8P+x+nOq3EC0UZcITC5Hx3FmPy+ZqOZqRMgMJNAkuZPKgAmB64YHMaDwDQC0Vb0pUl9KbuapHu/nCk4+TABAs0JXLv+/0DQGh+0Pv+d/fLQzv80uc9nynLYVr7wXZcIToonSZodGA+guXhuygRmEtjuF7dM6qzed+hfVp9dIH4K0HfGF9ThEjFnpiDlwwQINCOQDIrPClbjg1UM9uJBYB6BL19yFGBSXEn6xV3NRDNTJUBgJoEk3Xt0Ukft+vtPPefY/zzJz3fKMtpO1/vPpPWPmDNTkPJhAgSaEUjS7LeTOmqX349r/v32L5XPKxClY9wRsst9aNK6GxComVhuqgRmEoiTcXpp3KlLoDppELeE9SCwiEC0oZPtyv+LcivNDp0IOFOo9mEC9Qskg/w9AtL44sfh/0VSn++GwOU/+BlgYnwZ5DfXH9FMkQCBqQV6g6w3sYN2+KhADOay7wCALL6gQLZfGhhoQhzZSotzUwcqHyRAoH4BIwCO3/uP3/89CNQhcNe3x7cxhbcRAeuP6KZIYAaBXpo9IRDdGKBd/ldH6jONEIi2pI/d2MeSdPcnM4QqHyVAoG6BrbR4XnC6MTj9049c/y991yMw+KkCYFyMSdLiubrjmekRmEng0V8cfLer/77184Pvj+uY3ivKCNoeBOoQeOgJBcD4mJJdjRjU1fgb6z1TsvLh+gXiMp2u/hOYbtzzrwJV2HgQqENAP5vcz77+s+7G38g79Wc0U5xJ4Du/OCi7+C8a31cft2dSJfyTzwqAOlKfaYSAAmByARAxqIvxN9ZZATBTqm7mw13a+68aXfV8379EAWAQoJPJP/6vAJC86xJQAEwuACIGdTkGN5PVTHVqga5Un9HJqsRfPX/xe44AjEv+CoC6Up/phIACYFIBkF2NGNTlGDx1ovLBZgTaXn1WyX7c89H1yY4AjCsCHAGQvOsSUABMKgCK8h8e3Wv9EYBxsbfaIWsmq5nq1AJtrz6rhjbuOQa7GZf8vOcngLqSn+k4AjA5nmRXIwZVsamtsbhav3HPUycqH2xGIDZKW/+dVnnGOn/ikSgAHAEYF6AcAZC66xJwBGDyjsYnv1688tNkG+PwWTG4maxmqlMLRKPrYuUZ6/yxhyZ3zHFJsUvvKQDqSn+mowCYFGeyqxGDRpNk22JxlV8mPU+dqHywGYGq8Y1Wnxd/flA+9l8HZRufqw4W63u09+8IwLjCRgEgcdcloACYVADE+9nVKgZXz22Mu1U+qdaxem4mq5nq1AKjlVm1kdr8XDW8b/67+5SPS/zVewqAutKf6SgATi8AIuFHXIp/bU7+kVeq9azyztSJygebEagS4lmNb7Rhjr6uioXR90Zfr8vfR5cj1vUoKNn7rxL+yWcFgMRdl4AC4PQCIHzOisOjMXX09WhcG/d63Hur+P7ocsS6VuvbTFYz1akFqo0xrlFUG61Nz9X6ukHJaUHJVQB1JT/TcRXAyeL6+v9nVyMWxR5xm+LspHxSxV9HAKZO0c1+sNoQsWEmbbS2vR/rHHe7cwXA5CLAEQCpuy4BRwAm97MoBi78+Hg0wLYWASdzSMTg+NdsdjP1MwWqiuzkBmrT/0fXpSp4HrhkFMDr90SuD1IKgLrSn+koAK7vW9f3u+xq7IxUO2CjsaqtxUCV/GOdz0xQPtCsQJUQqwbY1kY3ul6xzkcFgHMArg9Gx4FKASBx1yWgADjuV+P6W8SiakdsNE61uRio1rfZ7GbqZwrEhoiEOKnhjWuEo++Nvq6mMfre6OtV/L2aZ/Vcre+XHQE4dRREBUBd6c90FACnFQDZ1bghUMSls2JlFcNGPzf6el3+Xi3HpOcq+UfeOTNB+UCzAtURgHge15gmbcRNfj/W1Z0ATwtKTgKUtusTUACc3teqAmBSEbApsXY0f4y+Hrf8Vd5pNruZ+pkC1R7xuI101kbcxL9XDe9LP3QOwLjDkdV7jgDUlwC7PiUFwGkFwNERgIhLXYvBsc5nJigfaFagSojxfFpCP+1vm9Zwo+g5uhVwnAPgPIAq6Y8+KwC6nrbrW38FwGkFQFH+4w+OxwFoU5yt8sK4dap+Bmg2u5n6mQJdOwJQNbzodJL/5MCkAKgvAXZ9SgqASf3saAckdkYiLo1LlFUSXZfnOpaxisGOAJyZnpv/wKQjALNs6NHPjr6uGu3oe6Ovl/X3aj7VczTA6gjA9s6kztnt9xUAx2n74LAsf33lcDh65F3fLsq//UpR/q8vZeVf33P073/emw3fi3u7h1t8Nr7jcSSgADgtlmRXqyMAk4qA0Zg5+rqKZ6Pvjb6u6+/VdCY9j5vnpM9W71dFQPMZzhxOFYgNEUVAtWHa/lw1vKNzABz+Hz3sP/paAVCWz75wODxZNJL9//jCbP/iO3FyV0yj6w8FwOkFQHUS4DyJtOl43cQyVTHYEYBTU/Ny/jjpCMCkhtVEg5g0r0Xfn7Sssc6uAjgtKHX7KoDfvXhYfuZbxcxJf1KREEcGYppdfSgATu9rsTNSxeFJMWuT3p9mWasiYDlZzlwmCnTtCEDV0VwFcHpQ6uIRgDhsH+Oy3/rF2fb2JyX+0fdjmmHaxZ8GFACn9bXTxwFYdCeoqe9Pk+QnzbtK/hGLJyYmf1iOQJUQ43ncRh333qQNuynvRwM8GgjITwCjh/1HX3etAHjh5bK845Hmfj6XAAAap0lEQVT69vpHk//o6088UpQxry49FACnFQDFMBZVSbGN8XbcOlXru5wsZy4TBWJDRPKvK3mPbuzR19X0R98bfV3X36vpTHquGp57AZwelLpUAPz+z4fDk/hGE3WTr//my1mnfhJQAJzW17Kr1VDA4+LhyTg2+pnR19XnRt8bfT3t36vPzfo8bl6TplHFYEcAJqbl5f3hrCMAJzfiLBv65Heb/v+4ZRv3XjRA9wI4LSh15xyASP6RkJtM+OOmHfN8/qVuHAdQAJze16qbAUVcGhevmo6b1fRH5z36uvp7nc9V3llepjOnsQLR6Oo8AlBnI2miEVbV51cfNxLg6CH/k6+7cATgpaxc6p7/yUIgLid8uWh/EaAAOK0AyK5GLJqU/JuIgfPG6FmW5bTPVsk/nscmJW8uT2B0Y5y20U42mlk+e/K7q/5/dLY42ctAQJMDU9sLgDgnv84z/U8m92n///f/XJRtvz5AATC5n0XhHbGo2jHZ5Lg6S1yv8s7yMp05jRWYpuG1qVFW6ysonR6U2l4A/ODJg6Uf9p9UFMSytPmhr53W17Kr4RNxaRPj7DzLXCV/RwDGpuTlvlltjHkb4DQNYPQzo6+rinH0vdHX0/69+ty0z9W6OgIwOTC1uQCIQ//zDO4zKYEv+n4sS5t/ClAATO5ncQQgYl61YzIu/p0V10a/M/q6+t7oe6Ovq783/TxuntX6LjfbmdsNAtWGGLeR5m0YdU5r2mUYnefo65Pfr9Y3nk/+7u3/x4GqzQXAhR/vr83ef1U8xGHgtj4UAMf96voYc3QvgGon7LS4dTKOzfLZk989+f9lT6uKwY4A3JCOl/9G1fhio9TZEE42slX9f9w6xbrGen/soeiYxgK4PigdBau2FgDZflnG2P1V4l2X51imWLY2PhQAkwqAYhiDqoS4LjF4NGaOvq4zhld5Z/kZzxyvE6gaX1MbusnpzjPtan3j+ZNfn9wxxyXFLr3X1gJgnX77P1l8tPVcAAXApDiTXY0YVCXDcfFs9L3R13Um40WmO893q/WN5+uSkf8sX6DaGJOqz9ENPPp6XRrgvMsR6/t334yO6QjAuMKmrQVABNyTiXdd/h/tsY0PBcCkAqAo4yqQ0Z2SdY6xdS5btc7Lz3jmeJ1AtSHm2bij3xl9PSkpj35m9PXJz4/+bfT1yc/N+/9qneMmLeOSn/faORDQ/kHZyDj/dRUQcb+AWMa2PRQAkwqA7GrcXrraCasj1o1OY/T1WbFyls+eNa2z/l7FX0cArkvFq/lP1fhio9TZCGaZ1iyfPatxTfv3WN8vfs9YAJOKnTYeAfjPZw/Xdu+/KiJ+daV9owIoACYVAMUwBlUJse4YfDIWjsbZ0dcnPzfv/8dNc9x7Mf0q76wm65nrKwJV45u0odb5/XHLNu69kw26Wmd3BJwcmNpYAMR2rxLtuj5HW23bQwEwqZ8tdifAaWLdydhX1/8XmXeV/B0BeCUNr+5FtTGarj7ranizTmdSQ431PhoO2DkA444CtLEAiPs/rGvir5YrlrFtDwXApAKgKOOS1GqHZFKsWub7y5pXlXdWl/nMeSiwTo1v1uQ+7+erxicwTQ5MbSwAvvDd9S8A4meptj30s0n97GgUwIhHZ8WyZSXmcfMZ994iy1vF33iWhlcs8O3//f/+ePLft35+9N66P1fLXS3npP9X7598ju+5CmB8cGpjARAnfVZ72uv6HMvYtocCYHwfiyNvJ2NXFaPGvV+9Vz3HZ6vXJ5+n/dvo52ad9+h3q/lX0xh9Pu1vK05/Zt91ga20eH7cIfCuv9fGAuDz31n/IwBxlKJtDwXAuAIgu5qkxXNdj7/Wn8BKBZJ09yddT/bj1r+NBUCc9Lmue/7Vct33LwqAce2xje8laf74SoOfmRPoukAvze9vY3BZdJ3aWADEOlWJdl2fv/4zVwEs2nY35/v5fV2Pv9afwEoFeoOstzkBY9yhxGbea2MB8MTT638ZYCxj2x7RlvSxG/vpVlqcW2nwM3MCXRdIBvl7BKcbg1MbC4AXXi7X/ghALGPbHgqAG/tXxJytC9lNXY+/1p/ASgU++HD5uq00O1QEXB+k2lgARGL926+s770AYtna+FAAXN+3hsk/zQ4j9qw0+Jk5AQKvelXSz55RAFwfpNpaAMTAK+v6+//gp+07ATAKGgXA9X3rKNbsPi32EiCwBgJJuveoAuD6INXWAuDKC+t7P4Dfvdi++wAoAK7vV1WcSQb5xTUIfRaBAIFkUHy26piejwJWWwuASEhxC9Z1OwrwmW+18/C/AmBCAdAv7hJ5CRBYA4HtfnGLxH99oGpzAXD5D+t3FCCWqa0PPwFc37ci1mz3i/euQeizCAQInH+gfH2SZgeKgONA1eYCIBJtjLm/DkcB/vqebLgsbU3+sV4KgON+FTEmYk3EHJGXAIE1EUjSvV8qAI4DVdsLgJeysvybL2crLwJiGV5u79H/YV2jADjuV0cFwN4v1yTsWQwCBELAiIDXB6m2FwCRmX515bCMPfBVHQmIef/6SnsP/VdHNRQA1/etJM3vFXUJEFgjga0L+QccATgOVF0oACJBXfrv1Y0O+IMn2zfqX5X0R58VAMf9KmLM9iB/3xqFPotCgMBH0+zNCoDjQNWVAiASVdzvfNlHAeJe6F15KACO+1XEmPM7u28ScQkQWDOBJM1+qwg4ClZdKgAiEceRgFu/2PzPATGPmFeXHgqA4wIgBh1bs7BncQgQCIFkUHxFAdDNAiAS8jN/PGx0qOAY6vfZF9r/m//J4kYBcFwA9FJ3AJRtCKylQK+f3a4A6G4BEIlr/+DosrU6jwbEtCIJHnQv9w9rAQXAcQGw3d+9dS2Dn4Ui0HWBuDlHkmZ7ioBimLBO7sl16f8vvlyW//Sj/fJ/3jv/zwLx3a8+vl/GJYddfigAjgqAiC1uANT1LGP911ogSfPHFQAKgCphx177E08fDAfrmWbcgPhMDDIU3+nqHn9lVz0rAKojANmltQ5+Fo5A1wV6g/xOBYACoEpeJ59j0J4YtjcSfJzMF//idbzX9gF9TlpM+38FQBQA2dVemn+q6/HV+hNYa4Hezu67FAAKgGmTm8+dLaAAuHYEYGf/HWsd/CwcAQKvepXLARUAZ6c1n5hWQAFQlC7/k1kIbIhAMsjv6fpRgAjaHgTqEFAAFOVWmn3u7rvLv9qQEGgxCXRXYOtCdpMCQAFQR/IzDXcDHMaSnd13dTeiWnMCGybQS3ef7nIR4AiA1F2XgCMA+eUNC38Wl0B3BeJQXRyyUwDUlQJMp8sCXS8AIpZ0N5pacwIbKJDs7L5bAdDltGXd6xLoegGwPdh/5waGQItMoNsCyaB4qqtFgJ8A6kp/ptPlAiBiSLejqLUnsKECSb+4SwEggRFYTKDLBUAMLLah4c9iE+i2QNy3O0mzgy4WAY4ALJb0fPtYoKsFQMSOiCHdjqLWnsAGC/QG+WMKgONg7hWBWQW6WwDsPbrBoc+iEyCQPJjdpgCYNeT7PIFjga4WAG79K38Q2HCBuCSwN8iudK0I8BPAcQLzajGBLhYASVo8Z+S/DQ/+Fp9ACHRxTAAFwGJJz7ePBTpZAAyKz4qeBAi0QOAjg/wtXTsZUAFwnMC8WkygawVAxIqIGS0IfVaBAIE4lJcM8otd+hlAAbBY0vPtY4HuFQC73xA1CRBokUDXbhCkADhOYF4tJtC1AqA3yG9uUeizKgQIhEAvzZ7oylEABcBiSc+3jwW6VAAk6e5PREsCBFoo0OtntysAjgO7VwSmEehUAfBgdlsLQ59VIkBgeElgml/uQhHgCMA0qc1nphHoTgGQX3bpnzxBoMUCST87rwCYJuz7DIEjga4UAFtpca7Foc+qESDw4Z3ytTHIR9uLgAs/3pe/CNQiEG2p7f0lBgt7/8XyNSIkAQItF+gN8jvaHtC+fEkBUEv2M5Ey2lLb+0tvkPVaHvasHgECIRCVfpJmv21zUPv8dxQAcnc9Av/w6F67CwB7/xIDgW4JRMXf5gLgYw8V5WE98d9UOixweFiW5x8q2l0A9IsPdSv6WVsCHRcYHgXoZ8+0uQj4/Z+VAB3O3bWs+u9ePGx38k93n7777vLVHQ+HVp9A9wR6/eJDbS4AfvSbg1qSgIl0V+DSfx+0ugDYupB/oHuRzxoTIPCqo3sEFE+1tQj40g+dB9Dd1F3Pmkcbamv/SNL8Sdf9SwQEOiyw3S9uaWuA294pyhdfricRmEr3BF7KyjLaUGv7R7+4pcOhz6oTIBACvUH+WFuD3GP/5WeA7qXuetb4O79o7+H/JN17VPQjQIDAq871996WpNleG4uATzxSlJlfAurJiB2aSrSZOx5p595/9PXo80IfAQIEhgJJmt/bxgIg1unizx0F6FDurmVVv/nvLd77H+T3CHsECBB4ReD8A+Xrt9Li+TYWAfE7blzO5UFgGoFnXzhs7W//0cc//rXyDa90fC8IECAQAnEzkDYWALFOn/mWnwKmSX5d/8z+QVne9e12Hvof9m2D/gj2BAiMEzi6XXB2qa1FwD/9aL+Mkd08CIwTiLbxQIvH/U/S/HGX/Y2LfN4jQGAocO2EwKytRcDXf3ZgiOBx2a/j70VdGG2jre0+SbPMiX+CPAECZwqc6xefbmsgjPUa/HS/PHAkoOMp/3j1Y8//kX9tb/I/6sv5p87s+D5AgACBGBs8Sfd+2eYiIEZ4e7k4TgJedVMgBvtp82h/0YdjxL+494fIRoAAgakEkp3ddydpdtDmIuDvvlmUv77iUEA3U39Z/urKYRltoM1tPPrw1oXspqk6vQ8RIECgEkgG+T1tDo7Vun350r7LBDtUBcQlobHNq+3f5uetNPtc1Z89EyBAYGqB4S2Dhz8FZFfbHCSrdYukEHuFzg9oXzUQ2zS2bVcSf7Tp+BnPof+pw50PEiBwUmDr4eKtcQZxlSS78BzDB8clg3E74ct/OCzjd2KXD25OURDbKrZZbLvYhrEtY5t2oe1W6xh9Nnlw7+0n+7P/EyBAYCaBpJ+drwJLl5/PP1QME0kkE//W0yC2UZfbaLXuMajXTJ3chwkQIDBJoM13DKyCpmfJsw1twJ3+JkUx7xMgMJfAuf5f3pikxXNtCJDWQaJvaxuIPhp9da5O7ksECBCYJLDdL25p+6WBbU0M1qv9RU/0ze1+8d5J/df7BAgQWEigl+afkkzan0xs4w3cxoP8joU6ty8TIEDgNIG4mUgyyC9KEBuYIFLL3NZ2m6S73zit3/obAQIEahE4/0D5+mRQPNXWYGq9FAqb1AZiqN8PPly+rpbObSIECBA4S+DoroHFS5sUKC2rxN6uNpBdTdLiJXf5Oyta+TsBArUL9PrZ7VtpdtiuoCpJ2p6b0QbipL/kwey22ju2CRIgQGAaAScFbkaykNRbuJ2c9DdNiPIZAgSaFOil+X0STAsTjJMG13ZUwSTN722yT5s2AQIEphIYXhmQ7j2qCFAEaANLaQPfjz43Vef0IQIECDQtEGchb6X5v0kAS0kAa7tnavs3u/3jDn/O+G86mpk+AQIzC5zf2X1Tb5BdkQSaTQJ8u+mbpNlvo4/N3DF9gQABAssQuHZ5oHsG+P3cUYoa28BWWjzv9r7LiGDmQYDAQgK9nd13JWnxJ3uq3dxTtd3r3e7Rl7YH++9cqFP6MgECBJYlkOzsvjsGKeml2VUJod6EwLM7ntGHti5kNy2r35oPAQIEahHoDfKbkzTLJKzuJCzbur5tHX3H3f1qCUUmQoDAKgSu3UJ4T2KoLzGwbL9lkmZ70XdW0WfNkwABArUIxPXKsRdz9HNA+wO35GwbL9oGru35S/61RCATIUBg5QLJIH+PIkByXDQ5tv370Ueir6y8w1oAAgQI1CkQJzO5OkAR0PYkPu/6DfvGIL+5zj5nWgQIEFgbgd7O/juStDBOQI3XiM+bcHxvfYqxuM4/Lp9dm45qQQgQINCEQAxoYsTA9Uk+CoHVbosY4S8G0Gqir5kmAQIE1k4ghjSNcc2NE7Da5CP5r9Y/7p9heN+1C08WiACBpgXipia9Qf6YJLTaJMR/Nf5JuveoG/s0HWVMnwCBtRWIywR7aX6fJLSaJMR9Ve75fW7pu7ZhyYIRILBMga1BfsdWmh1KSKtKSOa7jLaXpNlBb5Dfscy+ZV4ECBBYe4Hkwew2YwVIxMtIxKuYx/Aa/wez29a+I1pAAgQIrEIgrhBI0vzJVQRo81R8NNcG8stxCewq+pR5EiBAYGMEzj9Qvj5Jd7/RXDCW6Ngurw1EW3ay38aEHwtKgMA6CPQGWW/4m6lBc0oJe3kJuy7ra7/337kOfckyECBAYOMErt1IyMiBiqCNKoJitEu38t24cGOBCRBYN4Fz/b+80U8Cm7cHXNee9KZNJ67vjza7bv3I8hAgQGBjBXr94kNxq1SjByoG1rEoiLYZl7NubAez4AQIEFhnga2Hi7fG8KnrmAAsU1cLk+xqDGsdV7Csc9+xbAQIENh4gfdfLF+TDPJ7nCDY1YS7PusdbXArzT4XbXLjO5YVIECAwKYIxO1Tj24otD4JwVGA7myLGK9i60J206b0F8tJgACBVgncfXf56vjd9ejcgO4kH4XG6rZ1tLVkUHzWXn+rQomVIUBgUwXi3IBeml2SGFeXGLtgn6S7P/Fb/6ZGCctNgEBrBeLualtpcW4rLZ7vQjKyjssrdoZtql98yB38Whs+rBgBAm0QiGFX4xBtkmZ7kuTykmQbrY9ONM3v+/jXyje0oW9YBwIECHRC4Fx/723JIL/YxsRknZZQ2Azyx6INdaKzWEkCBAi0UWC7X9ySDIqnJM0lJM0WDFkcZ/dHm2ljX7BOBAgQ6JxA/Ha7Pcjf10t3n1YIKATGtYEkzX4bN6DyO3/nwoMVJkCgCwJVIZD0s2fGJQHvdbA4GGRXriX+V3ehD1hHAgQIdFogruE+ut1w8Zx7C3Qw6adFGXfsizEkXM/f6VBg5QkQ6KrAh3fK10Yh0Evzy/b+u1II5Jdjm0v8Xe311psAAQIjAsOfBvrFLb1B/phCoK2FQPZEnAfiN/6Rhu8lAQIECBwLJDu7707S3W+42dDmFwJbaXYYRV0yyN9zvIW9IkCAAAECpwh8ZJC/JQYU6sVJYi24vK1T6zDIrsS2i214yib2JwIECBAgMFmg+nkgBhVyVGB9jwocbZvs0rXD/M7on9yk/YUAAQIEZhU4v7P7pnP94tMGFlqfQmC4LQb5nbFtZt2ePk+AAAECBGYW2B7sv3P4E4ErCMpl/7wwHLQnze/z2/7MzdYXCBAgQKBOgeGJg4P8HgMMNXdkIGyTQX5Pb2f3XXVuO9MiQIAAAQK1CGw9XLx1OLZAnH3ujoRzHx249pv+E71BfufWhewml+/V0jxNhAABAgSWITC8NfGD2W29NL/f0YGzjw4cGeX3Jw9mt4XdMraReRAgQIAAgcYF4kS1SG7DQ9lp9kSXjxDEHn6cwJcMiq/0+sWHXLLXePMzAwIECBBYF4HYyx3errhf3JWke4/GHvBw8JqWjTsQ63TtN/yLSb+4K9bZHv66tELLQYAAAQJrIRCJsTfIb752j4L7kjR/PG5cswk3LRom+rR4Lpa5l+b3baXFufj9XrJfi6ZlIQgQIEBgEwXi5jXJg3tv3+7v3hrFQfyMEEMW9+KnhEHx1FZaPN/kQEUx7eE8BsVTw3nGcMlxVv4g68Uynevvvc0NdjaxZVlmAgQIEGiFwLn+X94YyTiukY/EHCPjxb/YGx8WDv3sfJxZP/ovGb6X9eIz1eePCo385phWTLMVOFaCAAECBAgQIECAAAECBAgQIECAAAECBAgQIECAAAECBAgQIECAAAECBAgQIECAAAECBAgQIECAAAECBAgQIECAAAECBAgQIECAAAECBAgQIECAAAECBAgQIECAAAECBAgQIECAAAECBAgQIECAAAECBAgQIECAAAECBAgQIECAAAECBAgQIECAAAECBAgQIECAAAECBAgQIECAAAECBAgQIECAAAECBAgQIECAAAECBAgQIECAAAECBAgQIECAAAECBAgQIECAAAECBAgQIECAAAECBAgQIECAAAECBAgQIECAAAECBAgQIECAAAECBAgQIECAAAECBAgQIECAAAECBAgQIECAAAECBAgQIECAAAECBAgQIECAAAECBAgQIECAAAECBAgQIECAAAECBAgQIECAAAECBAgQIECAAAECBAgQIECAAAECBAgQIECAAAECBAgQIECAAAECBAgQIECAAAECBAgQIECAAAECBAgQIECAAAECBAgQIECAAAECBAgQIECAAAECBAgQIECAAAECBAgQIECAAAECBAgQIECAAAECBAgQIECAAAECBAgQIECAAAECBAgQIECAAAECBAgQIECAAAECBAgQIECAAAECBAgQIECAAAECBAgQIECAAAECBAgQIECAAAECBAgQIECAAAECBAgQIECAAAECBAgQIECAAAECBAgQIECAAAECBAgQIECAAAECBAgQIECAAAECBAgQIECAAAECBAgQIECAAAECBAgQIECAAAECBAgQIECAAAECBAgQIECAAAECBAgQIECAAAECBAgQIECAAAECBAgQIECAAAECBAgQIECAAAECBAgQIECAAAECBAgQIECAAAECBAgQIECAAAECBAgQIECAAAECBAgQIECAAAECBAgQIECAAAECBAgQIECAAAECBAgQIECAAAECBAgQIECAAAECBAgQIECAAAECBAgQIECAAAECBAgQIECAAAECBAgQIECAAAECBAgQIECAAAECBAgQIECAAAECBAgQIECAAAECBAgQIECAAAECBAgQIECAAAECBAgQIECAAAECBAgQIECAAAECBAgQIECAAAECBAgQIECAAAECBAgQIECAAAECBAgQIECAAAECBAgQIECAAAECBAgQIECAAAECBAgQIECAAAECBAgQIECAAAECBAgQIECAAAECBAgQIECAAAECBAgQIECAAAECBAgQIECAAAECBAgQIECAAAECBAgQIECAAAECBAgQIECAAAECBAgQIECAAAECBAgQIECAAAECBAgQIECAAAECBAgQIECAAAECBAgQIECAAAECGyHw/wFFUZKtzQ4JrgAAAABJRU5ErkJggg==;" parent="10" vertex="1">
                    <mxGeometry x="168.38421836228284" y="169.81360316494218" width="46.774193548387096" height="46.774193548387096" as="geometry"/>
                </mxCell>
                <mxCell id="28" value="Cloud&#10;SQL" style="sketch=0;html=1;verticalAlign=top;labelPosition=center;verticalLabelPosition=bottom;align=center;spacingTop=-6;fontSize=11;fontStyle=1;fontColor=#999999;shape=image;aspect=fixed;imageAspect=0;image=data:image/svg+xml,PHN2ZyB4bWxucz0iaHR0cDovL3d3dy53My5vcmcvMjAwMC9zdmciIHhtbG5zOnY9Imh0dHBzOi8vdmVjdGEuaW8vbmFubyIgd2lkdGg9IjE0LjY1OTk5OTg0NzQxMjExIiBoZWlnaHQ9IjIwIiB2aWV3Qm94PSIwIDAgMTQuNjU5OTk5ODQ3NDEyMTEgMjAiPiYjeGE7CTxzdHlsZSB0eXBlPSJ0ZXh0L2NzcyI+JiN4YTsJLnN0MHtmaWxsOiM0Mjg1ZjQ7fSYjeGE7CS5zdDF7ZmlsbDojNjY5ZGY2O30mI3hhOwkuc3Qye2ZpbGw6I2FlY2JmYTt9JiN4YTsJPC9zdHlsZT4mI3hhOwk8c3R5bGU+JiN4YTsJCS5Ee2ZpbGwtcnVsZTpldmVub2RkfSYjeGE7CTwvc3R5bGU+JiN4YTsJPHBhdGggZD0iTTcuMzMgMTUuMzV2LTMuMDFMMCA4LjQ0djMuMDF6bTAgNC42NXYtMy4wMUwwIDEzLjA5djMuMDF6IiBjbGFzcz0ic3QyIEQiLz4mI3hhOwk8cGF0aCBkPSJNMTQuNjYgOC40NGwtNy4zMyAzLjl2My4wMWw3LjMzLTMuOXptMCA0LjY1bC03LjMzIDMuOVYyMGw3LjMzLTMuOXoiIGNsYXNzPSJzdDEgRCIvPiYjeGE7CTxwYXRoIGQ9Ik03LjMzIDB2My4wMWw3LjMzIDMuOVYzLjl6IiBjbGFzcz0ic3QwIEQiLz4mI3hhOwk8cGF0aCBkPSJNMCA2LjkxbDcuMzMtMy45VjBMMCAzLjl6IiBjbGFzcz0iRCBzdDEiLz4mI3hhOwk8cGF0aCBkPSJNNy4zMyAxMC43OVY3Ljc3TDAgMy44N3YzLjAyeiIgY2xhc3M9IkQgc3QyIi8+JiN4YTsJPHBhdGggZD0iTTE0LjY2IDMuODdsLTcuMzMgMy45djMuMDJsNy4zMy0zLjl6IiBjbGFzcz0iRCBzdDEiLz4mI3hhOzwvc3ZnPg==;" parent="10" vertex="1">
                    <mxGeometry x="748.3906947890817" y="286.79415702982357" width="35.63258064516129" height="46.774193548387096" as="geometry"/>
                </mxCell>
                <mxCell id="59" style="edgeStyle=none;html=1;exitX=1;exitY=0.5;exitDx=0;exitDy=0;entryX=0;entryY=0.5;entryDx=0;entryDy=0;strokeColor=#FFB366;strokeWidth=2;fontSize=14;fontColor=#999999;" parent="10" source="46" target="28" edge="1">
                    <mxGeometry relative="1" as="geometry"/>
                </mxCell>
                <mxCell id="46" value="" style="shape=image;verticalLabelPosition=bottom;labelBackgroundColor=default;verticalAlign=top;aspect=fixed;imageAspect=0;image=data:image/png,iVBORw0KGgoAAAANSUhEUgAAAgAAAAIACAYAAAD0eNT6AAAAAXNSR0IArs4c6QAAIABJREFUeAHt3V2ILHeZMHBZRATFC69E8EIQEUEQchHwwos3e5GLvLy50AUvXD/OVA8cNIiyYcXgBkWIsEGCCas5XT0kUXGPGDGKshyMStbd9XVdIxt5T16C4WA0aAhGMlU18w5z6uXpOZXpM6d7pj+q+qPq13DoPj3d9fGr//95nqqu+terXuVBgAABAgQIECBAgAABAgQIECBAgAABAgQIECBAgAABAgQIECBAgAABAgQIECBAgAABAgQIECBAgAABAgQIECBAgAABAgQIECBAgAABAgQIECBAgAABAgQIECBAgAABAgQIECBAgAABAgQIECBAgAABAgQIECBAgAABAgQIECBAgAABAgQIECBAgAABAgQIECBAgAABAgQIECBAgAABAgQIECBAgAABAgQIECBAgAABAgQIECBAgAABAgQIECBAgAABAgQIECBAgAABAgQIECBAgAABAgQIECBAgAABAgQIECBAgAABAgQIECBAgAABAgQIECBAgAABAgQIECBAgAABAgQIECBAgAABAgQIECBAgAABAgQIECBAgAABAgQIECBAgAABAgQIECBAgAABAgQIECBAgAABAgQIECBAgAABAgQIECBAgAABAgQIECBAgAABAgQIECBAgAABAgQIECBAgAABAgQIECBAgAABAgQIECBAgAABAgQIECBAgAABAgQIECBAgAABAgQIECBAgAABAgQIECBAgAABAgQIECBAgAABAgQIECBAgAABAgQIECBAgAABAgQIECBAgAABAgQIECBAgAABAgQIECBAgAABAgQIECBAgAABAgQIECBAgAABAgQIECBAgAABAgQIECBAgAABAgQIECBAgAABAgQIECBAgAABAgQIECBAgAABAgQIECBAgAABAgQIECBAgAABAgQIECBAgAABAgQIECBAgAABAgQIECBAgAABAgQIECBAgAABAgQIECBAgAABAgQIECBAgAABAgQIECBAgAABAgQIECBAgAABAgQIECBAgAABAgQIECBAgAABAgQIECBAgAABAgQIECBAgAABAgQIECBAgAABAgQIECBAgAABAgQIECBAgAABAgQIECBAgAABAgQIECBAgAABAgQIECBAgAABAgQIECBAgAABAgQIECBAgAABAgQIECBAgAABAgQIECBAgAABAgQIECBAgAABAgQIECBAgAABAgQIECBAgAABAgQIECBAgAABAgQIECBAgAABAgQIECBAgAABAgQIECBAgAABAgQIECBAgAABAgQIECBAgAABAgQIECBAgAABAgQIECBAgAABAgQIECBAgAABAgQIECBAgAABAgQIECBAgAABAgQIECBAgAABAgQIECBAgAABAgQIECBAgAABAgQIECBAgAABAgQIECBAgAABAgQIECBAgAABAgQIECBAgAABAgQIECBAgAABAgQIECBAgAABAgQIECBAgAABAgQIECBAgAABAgQIECBAgAABAgQIECBAgAABAksQuPvu8q/O9f/yxuTBvbcng/w9yYPZbduD/H3xrzfIevEv6Wfne4P8ztF/R+8d/b36fHz3aBp7b49pxrSXsApmQYAAAQIECIwKfHinfG1vZ/8d2/3dWyNhJ4P8nmSQX+yl2RO9NL+cpMWfeml2tZcWZTP/sqtH88gvxzxj3rEMUVTEMsWyxTKOLrPXBAgQIECAwJQC5x8oXx973sM99jS/P0l3f5KkxXPNJPX6i4VY1ljmXprff3TUIb851mnK1fcxAgQIECDQfoFIjNv94pZkUHw2SfceTfrZM83uxdef8KcrTLKrsW7DdRwUn411VhS0v31bQwIECBC4JvDRNHvztd/W7xkeRk+zvekS6KoSd3PzTdLsIBkUTyWD4iu9fvGhrYeLt2ooBAgQIECgFQKxl9vrZ7cPk9wgu9LVZD/teidp9tujgiC73RGCVnQBK0GAAIHuCMSe7NYgv6OXZpeSDu/hT5v0J30ujhAMT3Ac5HduXchuchVCd/qQNSVAgMDGCESCunZGvL38hq5CODo6kN8T1hvTMCwoAQIECLRPYHuw/844ea+X7j49aS/W+w2dQzD8OSW/L66WaF/LskYECBAgsHYCw5P4+sVdkn5DiX2uowf55aRf3BXbZu0ajAUiQIAAgc0ViN+ejy7Vyy8e/S69TsnPslRHWbbS7DDOu4iRDO++u3z15rY4S06AAAECKxUYnsyXZp/bpEF4qmTY9efYZltp9rmPDPK3rLQRmTkBAgQIbI7A8IS+dPcbzuDf/KMLw6MCg/wx5wpsTv+zpAQIEFiqQBzmjwF64hDy0d5zk2Pqb35i3cQjDEm698sYcMjlhEvtWmZGgACB9RT44MPl64Y31hkOwSsxb2Jin32Zd5+Obe7GRevZJy0VAQIEGhV4/8XyNcNb427QTXZmT3QKmtPMhnc2HOR3KgQa7WomToAAgfUQGCb+fvGhGFTmtOTgbx0qHgbZlRi5MdrGerRSS0GAAAECtQkML+Ub5O87utteh5LbXNfVd9QnBhcaZD2XENbW7UyIAAECqxXY7u/e2kvzy/bqO5rYZyyC4g6F0WZW22rNnQABAgTmFkge3Ht7MsgvSvwS/3xtIAYV2n/n3A3QFwkQIEBguQLn+n95Y9yYx3X8Ev98if/Y7Wjkx/y+aFPLbcXmRoAAAQJTC8Tv/NfO7P/TooHf94+TIIui3EqL57fS4pwxBKbujj5IgACB5Qic6++9LUnzxyUribvZNpA90dvZf8dyWrW5ECBAgMBEgThjuzfI73S4X+JvNvEf+0Zbi9tAu2xwYrf0BwIECDQrkOzsvns4vOuMZ3kvK1GYz3HSbKNFkuZP9gb5zc22clMnQIAAgVcEYs8rSfN73Zq33Ql2E4qGaINxwqmjAa90Ty8IECDQjED8/mqvX+Jft+Igxg7o7ey+q5lWb6oECBDouEDcyS1Js2zdgr/lUZBEG4i2GUMKu1Kg44HK6hMgUJ9AXIPdG+SPSbQS7Wa0gezS+Z3dN9XXA0yJAAECHRTY7he3xDXYmxH4JWjbKbsaBklaPBdtt4Nd1ioTIEBgMYE4jBqHU53op6jY1KJi2HYH+Z1+ElgsFvg2AQIdEjj/QPl6Y/hL/Jua+G9Y7kH+2Me/Vr6hQ13YqhIgQGB2gaMb+BRP3RBEXetfMtnkoii/7MZCs8cD3yBAoCMCvX52e5IWL0l0m5zoLPuk9httO3kwu60j3dlqEiBAYDqB+L1/K80OJwVP70us7WgD2dUYRni6XuFTBAgQaLFAnCDVS/P72xHcJWnbcbo2sJ0WD8Z9LFrcta0aAQIEJgvEyX6u758uYUisbXTKLkUfmNxD/IUAAQItFPhomr3ZkL5tTGrWabpirRovIH/yI4P8LS3s4laJAAECNwocjedfPDddoJRQOLW8DQyyK3H1y409xTsECBBokUBcChWjpElqLU9qLtuc6bLN4WiXbibUokhnVQgQuE5g60J2U5IWf5L8JX9t4MY2MLwEdpDffF2n8R8CBAhsusB2v3iva/xvDPqrSoTnHyrKTzxy9C9er2o5zHfUPrsadxR0D4FNj3aWnwCBVwQioEn+o4G+2dcfe6gov/Dd/fLCj/fLx/7roPzPZw/L3714WL7wcllm+2V5eFje8Ij34m/xmfhsfCe+G9OIacU0JevlGBwVAbu3vtKBvCBAgMAmCmz3d29N0mxP8mgueURy/tIPj5L9U88dlgdjEvwNGX/GN6JAePaFw/JHvzkov/r4fnnHI82tj7YSdxPM9hwJ2MSIZ5kJEBgKJIP8PbE3I6DXnyzj8P3Xf3ZQXv5DMwn/rPogioyY9yP/ejD8KcE2rn8bX/s54L3CCQECBDZKoDfIb3bYv96ksL1ztKf/H88clvsHZ6Xo5f09ioFfXzkcHhmIZVQM1GcQfShOnt2ozm9hCRDorkBvZ/ddcba/ZFBPIoiT9GJP+8WXl5fU551TLOM3//3AOQM1XgYZRUCys/vu7kYUa06AwEYInOvvvW14TXONAbCre5Tx234k05eyedPx6r73clEOTyJ0rkA9ReDROAH779iIIGAhCRDonsDR8L4G+Vm0YIkjJ/H7fpyVv+mPKARiXRwNqqEQGGRXzu/svql7kcUaEyCw1gJxUxNj+y8e5D//nf3h2fabnvhPLv+VFw7LL35v3/kBCx4Ziz7mBkJrHQotHIFuCQxv6TvIH1t0z7fL34+z+n/8fw7GXqN/Mplu6v/jUsIf/+bAJYQLFgG9tPi+Wwl3K8ZaWwJrK9BL8/u7nLwXXfcYaOePf9nUtD77csdgQ44GLHa0KBkUX1nbgGDBCBDohkBvkN+5aALs8vfj7P4mBu6ZPS0v9xuxznGCY5e3/eLrnn+qG1HGWhIgsHYCvX52+1aaHS4eyBbbG9rE+cfZ8b+60sCQfcvN4wvPLYYcdqXAfO1/2Pf62e1rFxgsEAEC7RaI+5cb6Ge+wP3JrxfD8fYXzp4tmcDv/3xY/t0357PcxOKvzmUe9sEdlwe2O9paOwJrJDA8439QPFVnIOvKtD7zraJTv/dPW6PEeQFh05V2UO965pc//rXyDWsUIiwKAQJtFIgz/pNBfrHeANaNwB8n+8V18R7jBWLAo7gMUtuavT8k6d6j0TfbGHOsEwECayJwrl98WoCePUBHYmvDwD7jU3d974aRImD29nXUJ50UuCZh0mIQaJ9A3J40SbMDBcBsAToOba96ON846/75l8oybhccJ9498fRBeem/j/7F63gv/hafWfVVCXGU5K5vz2asTQ5vIXyw3S/cPbB9odcaEVidQBxaPNf/yxuN8T97UooT/lZxjX/MMwYWuvDj/WEynX4o3uxqfDYScHw3ioNVLH+cExB2EvtsBtFHDRe8ulhpzgRaJ2Ckv9mCcJW04vK23724vEv94mz67/zioPz7f55veavlHvcc04xpxxGCZT1i+GCXCM6+LeN8gNYFIStEgMBqBJJ+dn5cUvDe6cH5P55pPvnH8LoxnzjBcFnbI+YVPxnEvJt+xHyWtV6tms8g660mWpgrAQKtEdge7L8zSbOsVcFx8bHYz0xKMcpdk49IvnF4fpWXzsXPBD/7v80XAnE3Qe3v9GLzpM+wzxofoDVx2IoQWLrA+y+Wr3GHv9kCbwTiOIt9v8H8/+wLy93jP5lcTv4/1veZPzZ3OCBOSnRlwOztMPpu9OGlBw4zJEBg8wWSNL/3ZLD3/9MDcfxm3dRJc3GJ3ENPLO9Q/yzbOk4cjD31pgqfMHU+wOltb9z2Sgb5PZsfiawBAQJLFdi6kN3kkr/ZA+6PftPMrn+c4PcPj+6t/aHw+FmgqRMf47LFcUnOe5PbafTh6MtLDR5mRoDA5grEvcYd+p8cVCclnDhM3cSJcfFb//mHZl+eScvZ9PuxrHFuQN2PsPVTwOztIEnzJ/0UsLnx2JITWKpA0i/uajpJtG36cQi8id/Bf/Dk5u71fvsX9R8NifMfph/TYPZk2bZ2+cr6DPI7lxpEzIwAgc0TOLrLX7b3SuBYwhnzbZhX/P5d5yP2dttw9nusQ91HRdb1PIh1bsdxVcC5/t7bNi8iWWICBJYiMBzwJ82eWOdAto7L9rGHitpv8hOXEa7jus6zTHUXRzGs8ib9JDKPWRPfSdLdn7hh0FJCqZkQ2DyB3iDrNRF42j7Niz+vd+//sf9qT/Kvtn2sU52PNhVIldEynrfS4tzmRSZLTIBAowIx1n+SFn9aRhBq0zxiT7TOG/3ECX9t8hldlzpPDHzxZUcBRm2nfR33Cvj418o3NBpMTJwAgc0S6KX5fdMGEZ87PrmszsPbcalf/JzQVt8oluq8RNC5APO1FWMDbFZstrQEGhXo7ey/wzX/swfTOBs97lpXxyMG0NmE6/wXLU5inIAY0KiORwwO5IqA2dttkmZ7cbJvo0HFxAkQ2AyBXlp8f9HA3sXvf+mHNWWysh1n/E/bBuq8T0Jsg2nn63PHxYI7Bm5GbLaUBBoV2O7v3iowHgfGWSzquttf165tj732WOc6HnFewSzbzGeP23r0/UaDi4kTILC+AsMR/wbFU4LicVCc1iJ+q69j3Pu4Rv7oVr7Z1Wnn3YbPxTrXMT5AbIM2nzfR5LZOBsVTLgtc3/hsyQg0KhCXBDUZYNo87TgBrY5HHEVos9Pkdcuu1nUEZfBTPwNMdj69uN26kH+g0SBj4gQIrJ/A8Fa//eyZeQNH17/31HOLH8KOKXThxL9JbSXWvY6jAL++0tUi6vTkPsl99P2knz0TRwLXL0JZIgIEGhMw6M/8wTMuZ6vj8P9/Pitx/erK4oVUbAsjA87fng0O1FiYNWEC6ycQe/+9QXZldE/A6+kD6D/+oJ7D/1/8Xhy67tZv/yfbWb2W02/Dk8vR6f8PsivuFrh+cdoSEWhEYGuQ39HpgLfgDY7qGNY2xg+wDY4Sdh1jKbRx+ORlto+kn51vJNiYKAEC6yPwwYfL18VwoMsMLm2bVx23/ZWwjvfW45bHiz4u/8HPKYv0syQtnvvwTvna9YlUloQAgdoFotJfJFB0/bvxW/PB4j9blzEiXtctq/WPkwEXfcR5AEYFXLBNDbJe7QHHBAkQWA+BuOY3zvqtAq/n2QNmHckqbh7E/nr7Om6opKi63nT2Nrb7tHEB1iNWWwoCtQtsD/L3zR4UFg0q7fr+A5cWPwGwu9f+T24LdYwJ8OVLxgNYtH8nD2a31R54TJAAgdULbKX5vy0aILr+/W//YvHfq93F7sZCoI6BlWLbdL19Lrr+Sbr7k9VHKktAgECtAr1BfvOiwcH3i7KOe9p//jv2VE+2pRgaeNHHE08rAE66zvX/QX5zrcHHxAgQWK1A3P1rrmCw4CVzbZvnolcAxPmDxq6/8QjAHY8U5aLnVroS4EbXefpfMsgvrjZamTsBArUJbD1cvDVJs4N5goHvXB9Uf//nxdLUi67/n3iYftETAWPbaK/Xt9d5PCJWfGSQv6W2AGRCBAisTmArzT43TyDwnRuDaSTwRR5xBIHrja5hsujRFYMrjXedp70lg+Kzq4tY5kyAQC0CcVmPYX/rC4zZgj9Vu3HN5G2x6A2WXi5cXjlPsh/3nRgYyCWBtYRgEyGwOoG4rGdcB/fe5ER0ms2id687ugSw2+P/T/KNmyMt8ogBmiZN2/uzt/ft/u6tq4tc5kyAwMICvUH+mOA3e/AbZxajAC76cKb65G0RNos+3BVwsu+4Nn3ae3Hi8MIByAQIEFiNwEfT7M1O/qsvIMaZ6os+fvwbl6pNSjphs+gjttGk6Xt/NpuIHRFDVhO9zJUAgYUEkn5xl6A3W9A7zUsBUJ/lOGcFQLO+48zPeu9cv/j0QkHIlwkQWI1AL919+qwO7u/TB10FwPRW87QrBUCzvvNsk16aX15N9DJXAgTmFti6kN00X4dfxyC0HsukAGh2OygAmvWdOx7s7L5r7kDkiwQILF8gGeT3zN3hjf439ndkBUCzCUoB0KzvvPEgxhFZfgQzRwIE5hZw29/6g6kCoH7T0aSkAGjWd9R6ltcRS+YORL5IgMByBRz+byaQKgCaca2SkQKgWd/KeZ7nZGf33cuNYuZGgMBcAkma3ztPJ/ed0wOwAuB0n0XbjwKgWd9Ftk/8pDhXMPIlAgSWJxDDdyZp9ttFOrvvjg/ECoDxLnW1FwVAs76LbCc/AywvhpsTgbkFeju771qko/vu5CCsAJhsU0e7UQA067vwNtrZf8fcgckXCRBoXqA3yO9cuKO7CmB4FcBnvlWUD1zaL7/9i4PyB08elHUMVRu3rI3p+HejwaK3Wo5RBMM1tlVss9h2f//Pa55UN6qv5Z9qPoKZAwECcwsk6e5PFADzB/1//MH+MIksetvfRYe09f36BGJbRmEQ23Z7Z/620e1+FTewyi7NHZh8kQCBZgXOP1C+PkmzvW4HqtkDfNxA5qEn9svnX6ov6ZjSegrENo5trRCYvZ9EbIkY02wUM3UCBOYS6PWz2yX/2QLbl34o8a9nqm52qaIQiG2vv8zWX+L24nMFJ18iQKBZgWRQfEVAmy6gxV5/HSedNZumTL1JgcOyHLYBtxCers8cxZb8/majmKkTIDCXQG+QXVEAnB3MPvn1onz2hQj/HgTKYVuINqHvnG3gcsC5QrMvEWhW4COD/C0C2NkBLM4K/+NfpD0C1wu88HLpioEpr0iIWNNsNDN1AgRmEti6kH9AAXB6ARB7eU70uz7x+d+xQBSGjgSc3ocixmwP8vfNFJx8mACBZgV6aX6/AmBy8Iqzvp/5o8P+x+nOq3EC0UZcITC5Hx3FmPy+ZqOZqRMgMJNAkuZPKgAmB64YHMaDwDQC0Vb0pUl9KbuapHu/nCk4+TABAs0JXLv+/0DQGh+0Pv+d/fLQzv80uc9nynLYVr7wXZcIToonSZodGA+guXhuygRmEtjuF7dM6qzed+hfVp9dIH4K0HfGF9ThEjFnpiDlwwQINCOQDIrPClbjg1UM9uJBYB6BL19yFGBSXEn6xV3NRDNTJUBgJoEk3Xt0Ukft+vtPPefY/zzJz3fKMtpO1/vPpPWPmDNTkPJhAgSaEUjS7LeTOmqX349r/v32L5XPKxClY9wRsst9aNK6GxComVhuqgRmEoiTcXpp3KlLoDppELeE9SCwiEC0oZPtyv+LcivNDp0IOFOo9mEC9Qskg/w9AtL44sfh/0VSn++GwOU/+BlgYnwZ5DfXH9FMkQCBqQV6g6w3sYN2+KhADOay7wCALL6gQLZfGhhoQhzZSotzUwcqHyRAoH4BIwCO3/uP3/89CNQhcNe3x7cxhbcRAeuP6KZIYAaBXpo9IRDdGKBd/ldH6jONEIi2pI/d2MeSdPcnM4QqHyVAoG6BrbR4XnC6MTj9049c/y991yMw+KkCYFyMSdLiubrjmekRmEng0V8cfLer/77184Pvj+uY3ivKCNoeBOoQeOgJBcD4mJJdjRjU1fgb6z1TsvLh+gXiMp2u/hOYbtzzrwJV2HgQqENAP5vcz77+s+7G38g79Wc0U5xJ4Du/OCi7+C8a31cft2dSJfyTzwqAOlKfaYSAAmByARAxqIvxN9ZZATBTqm7mw13a+68aXfV8379EAWAQoJPJP/6vAJC86xJQAEwuACIGdTkGN5PVTHVqga5Un9HJqsRfPX/xe44AjEv+CoC6Up/phIACYFIBkF2NGNTlGDx1ovLBZgTaXn1WyX7c89H1yY4AjCsCHAGQvOsSUABMKgCK8h8e3Wv9EYBxsbfaIWsmq5nq1AJtrz6rhjbuOQa7GZf8vOcngLqSn+k4AjA5nmRXIwZVsamtsbhav3HPUycqH2xGIDZKW/+dVnnGOn/ikSgAHAEYF6AcAZC66xJwBGDyjsYnv1688tNkG+PwWTG4maxmqlMLRKPrYuUZ6/yxhyZ3zHFJsUvvKQDqSn+mowCYFGeyqxGDRpNk22JxlV8mPU+dqHywGYGq8Y1Wnxd/flA+9l8HZRufqw4W63u09+8IwLjCRgEgcdcloACYVADE+9nVKgZXz22Mu1U+qdaxem4mq5nq1AKjlVm1kdr8XDW8b/67+5SPS/zVewqAutKf6SgATi8AIuFHXIp/bU7+kVeq9azyztSJygebEagS4lmNb7Rhjr6uioXR90Zfr8vfR5cj1vUoKNn7rxL+yWcFgMRdl4AC4PQCIHzOisOjMXX09WhcG/d63Hur+P7ocsS6VuvbTFYz1akFqo0xrlFUG61Nz9X6ukHJaUHJVQB1JT/TcRXAyeL6+v9nVyMWxR5xm+LspHxSxV9HAKZO0c1+sNoQsWEmbbS2vR/rHHe7cwXA5CLAEQCpuy4BRwAm97MoBi78+Hg0wLYWASdzSMTg+NdsdjP1MwWqiuzkBmrT/0fXpSp4HrhkFMDr90SuD1IKgLrSn+koAK7vW9f3u+xq7IxUO2CjsaqtxUCV/GOdz0xQPtCsQJUQqwbY1kY3ul6xzkcFgHMArg9Gx4FKASBx1yWgADjuV+P6W8SiakdsNE61uRio1rfZ7GbqZwrEhoiEOKnhjWuEo++Nvq6mMfre6OtV/L2aZ/Vcre+XHQE4dRREBUBd6c90FACnFQDZ1bghUMSls2JlFcNGPzf6el3+Xi3HpOcq+UfeOTNB+UCzAtURgHge15gmbcRNfj/W1Z0ATwtKTgKUtusTUACc3teqAmBSEbApsXY0f4y+Hrf8Vd5pNruZ+pkC1R7xuI101kbcxL9XDe9LP3QOwLjDkdV7jgDUlwC7PiUFwGkFwNERgIhLXYvBsc5nJigfaFagSojxfFpCP+1vm9Zwo+g5uhVwnAPgPIAq6Y8+KwC6nrbrW38FwGkFQFH+4w+OxwFoU5yt8sK4dap+Bmg2u5n6mQJdOwJQNbzodJL/5MCkAKgvAXZ9SgqASf3saAckdkYiLo1LlFUSXZfnOpaxisGOAJyZnpv/wKQjALNs6NHPjr6uGu3oe6Ovl/X3aj7VczTA6gjA9s6kztnt9xUAx2n74LAsf33lcDh65F3fLsq//UpR/q8vZeVf33P073/emw3fi3u7h1t8Nr7jcSSgADgtlmRXqyMAk4qA0Zg5+rqKZ6Pvjb6u6+/VdCY9j5vnpM9W71dFQPMZzhxOFYgNEUVAtWHa/lw1vKNzABz+Hz3sP/paAVCWz75wODxZNJL9//jCbP/iO3FyV0yj6w8FwOkFQHUS4DyJtOl43cQyVTHYEYBTU/Ny/jjpCMCkhtVEg5g0r0Xfn7Sssc6uAjgtKHX7KoDfvXhYfuZbxcxJf1KREEcGYppdfSgATu9rsTNSxeFJMWuT3p9mWasiYDlZzlwmCnTtCEDV0VwFcHpQ6uIRgDhsH+Oy3/rF2fb2JyX+0fdjmmHaxZ8GFACn9bXTxwFYdCeoqe9Pk+QnzbtK/hGLJyYmf1iOQJUQ43ncRh333qQNuynvRwM8GgjITwCjh/1HX3etAHjh5bK845Hmfj6XAAAap0lEQVT69vpHk//o6088UpQxry49FACnFQDFMBZVSbGN8XbcOlXru5wsZy4TBWJDRPKvK3mPbuzR19X0R98bfV3X36vpTHquGp57AZwelLpUAPz+z4fDk/hGE3WTr//my1mnfhJQAJzW17Kr1VDA4+LhyTg2+pnR19XnRt8bfT3t36vPzfo8bl6TplHFYEcAJqbl5f3hrCMAJzfiLBv65Heb/v+4ZRv3XjRA9wI4LSh15xyASP6RkJtM+OOmHfN8/qVuHAdQAJze16qbAUVcGhevmo6b1fRH5z36uvp7nc9V3llepjOnsQLR6Oo8AlBnI2miEVbV51cfNxLg6CH/k6+7cATgpaxc6p7/yUIgLid8uWh/EaAAOK0AyK5GLJqU/JuIgfPG6FmW5bTPVsk/nscmJW8uT2B0Y5y20U42mlk+e/K7q/5/dLY42ctAQJMDU9sLgDgnv84z/U8m92n///f/XJRtvz5AATC5n0XhHbGo2jHZ5Lg6S1yv8s7yMp05jRWYpuG1qVFW6ysonR6U2l4A/ODJg6Uf9p9UFMSytPmhr53W17Kr4RNxaRPj7DzLXCV/RwDGpuTlvlltjHkb4DQNYPQzo6+rinH0vdHX0/69+ty0z9W6OgIwOTC1uQCIQ//zDO4zKYEv+n4sS5t/ClAATO5ncQQgYl61YzIu/p0V10a/M/q6+t7oe6Ovq783/TxuntX6LjfbmdsNAtWGGLeR5m0YdU5r2mUYnefo65Pfr9Y3nk/+7u3/x4GqzQXAhR/vr83ef1U8xGHgtj4UAMf96voYc3QvgGon7LS4dTKOzfLZk989+f9lT6uKwY4A3JCOl/9G1fhio9TZEE42slX9f9w6xbrGen/soeiYxgK4PigdBau2FgDZflnG2P1V4l2X51imWLY2PhQAkwqAYhiDqoS4LjF4NGaOvq4zhld5Z/kZzxyvE6gaX1MbusnpzjPtan3j+ZNfn9wxxyXFLr3X1gJgnX77P1l8tPVcAAXApDiTXY0YVCXDcfFs9L3R13Um40WmO893q/WN5+uSkf8sX6DaGJOqz9ENPPp6XRrgvMsR6/t334yO6QjAuMKmrQVABNyTiXdd/h/tsY0PBcCkAqAo4yqQ0Z2SdY6xdS5btc7Lz3jmeJ1AtSHm2bij3xl9PSkpj35m9PXJz4/+bfT1yc/N+/9qneMmLeOSn/faORDQ/kHZyDj/dRUQcb+AWMa2PRQAkwqA7GrcXrraCasj1o1OY/T1WbFyls+eNa2z/l7FX0cArkvFq/lP1fhio9TZCGaZ1iyfPatxTfv3WN8vfs9YAJOKnTYeAfjPZw/Xdu+/KiJ+daV9owIoACYVAMUwBlUJse4YfDIWjsbZ0dcnPzfv/8dNc9x7Mf0q76wm65nrKwJV45u0odb5/XHLNu69kw26Wmd3BJwcmNpYAMR2rxLtuj5HW23bQwEwqZ8tdifAaWLdydhX1/8XmXeV/B0BeCUNr+5FtTGarj7ranizTmdSQ431PhoO2DkA444CtLEAiPs/rGvir5YrlrFtDwXApAKgKOOS1GqHZFKsWub7y5pXlXdWl/nMeSiwTo1v1uQ+7+erxicwTQ5MbSwAvvDd9S8A4meptj30s0n97GgUwIhHZ8WyZSXmcfMZ994iy1vF33iWhlcs8O3//f/+ePLft35+9N66P1fLXS3npP9X7598ju+5CmB8cGpjARAnfVZ72uv6HMvYtocCYHwfiyNvJ2NXFaPGvV+9Vz3HZ6vXJ5+n/dvo52ad9+h3q/lX0xh9Pu1vK05/Zt91ga20eH7cIfCuv9fGAuDz31n/IwBxlKJtDwXAuAIgu5qkxXNdj7/Wn8BKBZJ09yddT/bj1r+NBUCc9Lmue/7Vct33LwqAce2xje8laf74SoOfmRPoukAvze9vY3BZdJ3aWADEOlWJdl2fv/4zVwEs2nY35/v5fV2Pv9afwEoFeoOstzkBY9yhxGbea2MB8MTT638ZYCxj2x7RlvSxG/vpVlqcW2nwM3MCXRdIBvl7BKcbg1MbC4AXXi7X/ghALGPbHgqAG/tXxJytC9lNXY+/1p/ASgU++HD5uq00O1QEXB+k2lgARGL926+s770AYtna+FAAXN+3hsk/zQ4j9qw0+Jk5AQKvelXSz55RAFwfpNpaAMTAK+v6+//gp+07ATAKGgXA9X3rKNbsPi32EiCwBgJJuveoAuD6INXWAuDKC+t7P4Dfvdi++wAoAK7vV1WcSQb5xTUIfRaBAIFkUHy26piejwJWWwuASEhxC9Z1OwrwmW+18/C/AmBCAdAv7hJ5CRBYA4HtfnGLxH99oGpzAXD5D+t3FCCWqa0PPwFc37ci1mz3i/euQeizCAQInH+gfH2SZgeKgONA1eYCIBJtjLm/DkcB/vqebLgsbU3+sV4KgON+FTEmYk3EHJGXAIE1EUjSvV8qAI4DVdsLgJeysvybL2crLwJiGV5u79H/YV2jADjuV0cFwN4v1yTsWQwCBELAiIDXB6m2FwCRmX515bCMPfBVHQmIef/6SnsP/VdHNRQA1/etJM3vFXUJEFgjga0L+QccATgOVF0oACJBXfrv1Y0O+IMn2zfqX5X0R58VAMf9KmLM9iB/3xqFPotCgMBH0+zNCoDjQNWVAiASVdzvfNlHAeJe6F15KACO+1XEmPM7u28ScQkQWDOBJM1+qwg4ClZdKgAiEceRgFu/2PzPATGPmFeXHgqA4wIgBh1bs7BncQgQCIFkUHxFAdDNAiAS8jN/PGx0qOAY6vfZF9r/m//J4kYBcFwA9FJ3AJRtCKylQK+f3a4A6G4BEIlr/+DosrU6jwbEtCIJHnQv9w9rAQXAcQGw3d+9dS2Dn4Ui0HWBuDlHkmZ7ioBimLBO7sl16f8vvlyW//Sj/fJ/3jv/zwLx3a8+vl/GJYddfigAjgqAiC1uANT1LGP911ogSfPHFQAKgCphx177E08fDAfrmWbcgPhMDDIU3+nqHn9lVz0rAKojANmltQ5+Fo5A1wV6g/xOBYACoEpeJ59j0J4YtjcSfJzMF//idbzX9gF9TlpM+38FQBQA2dVemn+q6/HV+hNYa4Hezu67FAAKgGmTm8+dLaAAuHYEYGf/HWsd/CwcAQKvepXLARUAZ6c1n5hWQAFQlC7/k1kIbIhAMsjv6fpRgAjaHgTqEFAAFOVWmn3u7rvLv9qQEGgxCXRXYOtCdpMCQAFQR/IzDXcDHMaSnd13dTeiWnMCGybQS3ef7nIR4AiA1F2XgCMA+eUNC38Wl0B3BeJQXRyyUwDUlQJMp8sCXS8AIpZ0N5pacwIbKJDs7L5bAdDltGXd6xLoegGwPdh/5waGQItMoNsCyaB4qqtFgJ8A6kp/ptPlAiBiSLejqLUnsKECSb+4SwEggRFYTKDLBUAMLLah4c9iE+i2QNy3O0mzgy4WAY4ALJb0fPtYoKsFQMSOiCHdjqLWnsAGC/QG+WMKgONg7hWBWQW6WwDsPbrBoc+iEyCQPJjdpgCYNeT7PIFjga4WAG79K38Q2HCBuCSwN8iudK0I8BPAcQLzajGBLhYASVo8Z+S/DQ/+Fp9ACHRxTAAFwGJJz7ePBTpZAAyKz4qeBAi0QOAjg/wtXTsZUAFwnMC8WkygawVAxIqIGS0IfVaBAIE4lJcM8otd+hlAAbBY0vPtY4HuFQC73xA1CRBokUDXbhCkADhOYF4tJtC1AqA3yG9uUeizKgQIhEAvzZ7oylEABcBiSc+3jwW6VAAk6e5PREsCBFoo0OtntysAjgO7VwSmEehUAfBgdlsLQ59VIkBgeElgml/uQhHgCMA0qc1nphHoTgGQX3bpnzxBoMUCST87rwCYJuz7DIEjga4UAFtpca7Foc+qESDw4Z3ytTHIR9uLgAs/3pe/CNQiEG2p7f0lBgt7/8XyNSIkAQItF+gN8jvaHtC+fEkBUEv2M5Ey2lLb+0tvkPVaHvasHgECIRCVfpJmv21zUPv8dxQAcnc9Av/w6F67CwB7/xIDgW4JRMXf5gLgYw8V5WE98d9UOixweFiW5x8q2l0A9IsPdSv6WVsCHRcYHgXoZ8+0uQj4/Z+VAB3O3bWs+u9ePGx38k93n7777vLVHQ+HVp9A9wR6/eJDbS4AfvSbg1qSgIl0V+DSfx+0ugDYupB/oHuRzxoTIPCqo3sEFE+1tQj40g+dB9Dd1F3Pmkcbamv/SNL8Sdf9SwQEOiyw3S9uaWuA294pyhdfricRmEr3BF7KyjLaUGv7R7+4pcOhz6oTIBACvUH+WFuD3GP/5WeA7qXuetb4O79o7+H/JN17VPQjQIDAq871996WpNleG4uATzxSlJlfAurJiB2aSrSZOx5p595/9PXo80IfAQIEhgJJmt/bxgIg1unizx0F6FDurmVVv/nvLd77H+T3CHsECBB4ReD8A+Xrt9Li+TYWAfE7blzO5UFgGoFnXzhs7W//0cc//rXyDa90fC8IECAQAnEzkDYWALFOn/mWnwKmSX5d/8z+QVne9e12Hvof9m2D/gj2BAiMEzi6XXB2qa1FwD/9aL+Mkd08CIwTiLbxQIvH/U/S/HGX/Y2LfN4jQGAocO2EwKytRcDXf3ZgiOBx2a/j70VdGG2jre0+SbPMiX+CPAECZwqc6xefbmsgjPUa/HS/PHAkoOMp/3j1Y8//kX9tb/I/6sv5p87s+D5AgACBGBs8Sfd+2eYiIEZ4e7k4TgJedVMgBvtp82h/0YdjxL+494fIRoAAgakEkp3ddydpdtDmIuDvvlmUv77iUEA3U39Z/urKYRltoM1tPPrw1oXspqk6vQ8RIECgEkgG+T1tDo7Vun350r7LBDtUBcQlobHNq+3f5uetNPtc1Z89EyBAYGqB4S2Dhz8FZFfbHCSrdYukEHuFzg9oXzUQ2zS2bVcSf7Tp+BnPof+pw50PEiBwUmDr4eKtcQZxlSS78BzDB8clg3E74ct/OCzjd2KXD25OURDbKrZZbLvYhrEtY5t2oe1W6xh9Nnlw7+0n+7P/EyBAYCaBpJ+drwJLl5/PP1QME0kkE//W0yC2UZfbaLXuMajXTJ3chwkQIDBJoM13DKyCpmfJsw1twJ3+JkUx7xMgMJfAuf5f3pikxXNtCJDWQaJvaxuIPhp9da5O7ksECBCYJLDdL25p+6WBbU0M1qv9RU/0ze1+8d5J/df7BAgQWEigl+afkkzan0xs4w3cxoP8joU6ty8TIEDgNIG4mUgyyC9KEBuYIFLL3NZ2m6S73zit3/obAQIEahE4/0D5+mRQPNXWYGq9FAqb1AZiqN8PPly+rpbObSIECBA4S+DoroHFS5sUKC2rxN6uNpBdTdLiJXf5Oyta+TsBArUL9PrZ7VtpdtiuoCpJ2p6b0QbipL/kwey22ju2CRIgQGAaAScFbkaykNRbuJ2c9DdNiPIZAgSaFOil+X0STAsTjJMG13ZUwSTN722yT5s2AQIEphIYXhmQ7j2qCFAEaANLaQPfjz43Vef0IQIECDQtEGchb6X5v0kAS0kAa7tnavs3u/3jDn/O+G86mpk+AQIzC5zf2X1Tb5BdkQSaTQJ8u+mbpNlvo4/N3DF9gQABAssQuHZ5oHsG+P3cUYoa28BWWjzv9r7LiGDmQYDAQgK9nd13JWnxJ3uq3dxTtd3r3e7Rl7YH++9cqFP6MgECBJYlkOzsvjsGKeml2VUJod6EwLM7ntGHti5kNy2r35oPAQIEahHoDfKbkzTLJKzuJCzbur5tHX3H3f1qCUUmQoDAKgSu3UJ4T2KoLzGwbL9lkmZ70XdW0WfNkwABArUIxPXKsRdz9HNA+wO35GwbL9oGru35S/61RCATIUBg5QLJIH+PIkByXDQ5tv370Ueir6y8w1oAAgQI1CkQJzO5OkAR0PYkPu/6DfvGIL+5zj5nWgQIEFgbgd7O/juStDBOQI3XiM+bcHxvfYqxuM4/Lp9dm45qQQgQINCEQAxoYsTA9Uk+CoHVbosY4S8G0Gqir5kmAQIE1k4ghjSNcc2NE7Da5CP5r9Y/7p9heN+1C08WiACBpgXipia9Qf6YJLTaJMR/Nf5JuveoG/s0HWVMnwCBtRWIywR7aX6fJLSaJMR9Ve75fW7pu7ZhyYIRILBMga1BfsdWmh1KSKtKSOa7jLaXpNlBb5Dfscy+ZV4ECBBYe4Hkwew2YwVIxMtIxKuYx/Aa/wez29a+I1pAAgQIrEIgrhBI0vzJVQRo81R8NNcG8stxCewq+pR5EiBAYGMEzj9Qvj5Jd7/RXDCW6Ngurw1EW3ay38aEHwtKgMA6CPQGWW/4m6lBc0oJe3kJuy7ra7/337kOfckyECBAYOMErt1IyMiBiqCNKoJitEu38t24cGOBCRBYN4Fz/b+80U8Cm7cHXNee9KZNJ67vjza7bv3I8hAgQGBjBXr94kNxq1SjByoG1rEoiLYZl7NubAez4AQIEFhnga2Hi7fG8KnrmAAsU1cLk+xqDGsdV7Csc9+xbAQIENh4gfdfLF+TDPJ7nCDY1YS7PusdbXArzT4XbXLjO5YVIECAwKYIxO1Tj24otD4JwVGA7myLGK9i60J206b0F8tJgACBVgncfXf56vjd9ejcgO4kH4XG6rZ1tLVkUHzWXn+rQomVIUBgUwXi3IBeml2SGFeXGLtgn6S7P/Fb/6ZGCctNgEBrBeLualtpcW4rLZ7vQjKyjssrdoZtql98yB38Whs+rBgBAm0QiGFX4xBtkmZ7kuTykmQbrY9ONM3v+/jXyje0oW9YBwIECHRC4Fx/723JIL/YxsRknZZQ2Azyx6INdaKzWEkCBAi0UWC7X9ySDIqnJM0lJM0WDFkcZ/dHm2ljX7BOBAgQ6JxA/Ha7Pcjf10t3n1YIKATGtYEkzX4bN6DyO3/nwoMVJkCgCwJVIZD0s2fGJQHvdbA4GGRXriX+V3ehD1hHAgQIdFogruE+ut1w8Zx7C3Qw6adFGXfsizEkXM/f6VBg5QkQ6KrAh3fK10Yh0Evzy/b+u1II5Jdjm0v8Xe311psAAQIjAsOfBvrFLb1B/phCoK2FQPZEnAfiN/6Rhu8lAQIECBwLJDu7707S3W+42dDmFwJbaXYYRV0yyN9zvIW9IkCAAAECpwh8ZJC/JQYU6sVJYi24vK1T6zDIrsS2i214yib2JwIECBAgMFmg+nkgBhVyVGB9jwocbZvs0rXD/M7on9yk/YUAAQIEZhU4v7P7pnP94tMGFlqfQmC4LQb5nbFtZt2ePk+AAAECBGYW2B7sv3P4E4ErCMpl/7wwHLQnze/z2/7MzdYXCBAgQKBOgeGJg4P8HgMMNXdkIGyTQX5Pb2f3XXVuO9MiQIAAAQK1CGw9XLx1OLZAnH3ujoRzHx249pv+E71BfufWhewml+/V0jxNhAABAgSWITC8NfGD2W29NL/f0YGzjw4cGeX3Jw9mt4XdMraReRAgQIAAgcYF4kS1SG7DQ9lp9kSXjxDEHn6cwJcMiq/0+sWHXLLXePMzAwIECBBYF4HYyx3errhf3JWke4/GHvBw8JqWjTsQ63TtN/yLSb+4K9bZHv66tELLQYAAAQJrIRCJsTfIb752j4L7kjR/PG5cswk3LRom+rR4Lpa5l+b3baXFufj9XrJfi6ZlIQgQIEBgEwXi5jXJg3tv3+7v3hrFQfyMEEMW9+KnhEHx1FZaPN/kQEUx7eE8BsVTw3nGcMlxVv4g68Uynevvvc0NdjaxZVlmAgQIEGiFwLn+X94YyTiukY/EHCPjxb/YGx8WDv3sfJxZP/ovGb6X9eIz1eePCo385phWTLMVOFaCAAECBAgQIECAAAECBAgQIECAAAECBAgQIECAAAECBAgQIECAAAECBAgQIECAAAECBAgQIECAAAECBAgQIECAAAECBAgQIECAAAECBAgQIECAAAECBAgQIECAAAECBAgQIECAAAECBAgQIECAAAECBAgQIECAAAECBAgQIECAAAECBAgQIECAAAECBAgQIECAAAECBAgQIECAAAECBAgQIECAAAECBAgQIECAAAECBAgQIECAAAECBAgQIECAAAECBAgQIECAAAECBAgQIECAAAECBAgQIECAAAECBAgQIECAAAECBAgQIECAAAECBAgQIECAAAECBAgQIECAAAECBAgQIECAAAECBAgQIECAAAECBAgQIECAAAECBAgQIECAAAECBAgQIECAAAECBAgQIECAAAECBAgQIECAAAECBAgQIECAAAECBAgQIECAAAECBAgQIECAAAECBAgQIECAAAECBAgQIECAAAECBAgQIECAAAECBAgQIECAAAECBAgQIECAAAECBAgQIECAAAECBAgQIECAAAECBAgQIECAAAECBAgQIECAAAECBAgQIECAAAECBAgQIECAAAECBAgQIECAAAECBAgQIECAAAECBAgQIECAAAECBAgQIECAAAECBAgQIECAAAECBAgQIECAAAECBAgQIECAAAECBAgQIECAAAECBAgQIECAAAECBAgQIECAAAECBAgQIECAAAECBAgQIECAAAECBAgQIECAAAECBAgQIECAAAECBAgQIECAAAECBAgQIECAAAECBAgQIECAAAECBAgQIECAAAECBAgQIECAAAECBAgQIECAAAECBAgQIECAAAECBAgQIECAAAECBAgQIECAAAECBAgQIECAAAECBAgQIECAAAECBAgQIECAAAECBAgQIECAAAECBAgQIECAAAECBAgQIECAAAECBAgQIECAAAECBAgQIECAAAECBAgQIECAAAECBAgQIECAAAECBAgQIECAAAECBAgQIECAAAECBAgQIECAAAECBAgQIECAAAECBAgQIECAAAECBAgQIECAAAECBAgQIECAAAECBAgQIECAAAECBAgQIECAAAECBAgQIECAAAECBAgQIECAAAECBAgQIECAAAECBAgQIECAAAECBAgQIECAAAECBAgQIECAAAECBAgQIECAAAECBAgQIECAAAECBAgQIECAAAECBAgQIECAAAECBAgQIECAAAECBAgQIECAAAECBAgQIECAAAECBAgQIECAAAECBAgQIECAAAECBAgQIECAAAECBAgQIECAAAECBAgQIECAAAECGyHw/wFFUZKtzQ4JrgAAAABJRU5ErkJggg==;" parent="10" vertex="1">
                    <mxGeometry x="608.0616377171216" y="286.7974741326841" width="46.774193548387096" height="46.774193548387096" as="geometry"/>
                </mxCell>
                <mxCell id="50" style="edgeStyle=none;html=1;exitX=1;exitY=0.5;exitDx=0;exitDy=0;entryX=0;entryY=0.5;entryDx=0;entryDy=0;strokeColor=#FFB366;strokeWidth=2;" parent="10" source="30" target="26" edge="1">
                    <mxGeometry relative="1" as="geometry"/>
                </mxCell>
                <mxCell id="51" value="&lt;font size=&quot;1&quot; style=&quot;&quot; color=&quot;#999999&quot;&gt;&lt;b style=&quot;font-size: 12px;&quot;&gt;Serverless VPC Access&lt;/b&gt;&lt;/font&gt;" style="text;html=1;align=center;verticalAlign=middle;resizable=0;points=[];autosize=1;strokeColor=none;fillColor=none;" parent="10" vertex="1">
                    <mxGeometry x="117.25806451612902" y="214.43" width="160" height="30" as="geometry"/>
                </mxCell>
                <mxCell id="56" style="edgeStyle=none;html=1;entryX=0;entryY=0.5;entryDx=0;entryDy=0;strokeColor=#FFB366;strokeWidth=2;fontSize=14;fontColor=#999999;" parent="10" target="46" edge="1">
                    <mxGeometry relative="1" as="geometry">
                        <mxPoint x="271.2903225806451" y="195" as="sourcePoint"/>
                        <Array as="points">
                            <mxPoint x="271.2903225806451" y="312"/>
                        </Array>
                    </mxGeometry>
                </mxCell>
                <mxCell id="58" value="&lt;font size=&quot;1&quot; color=&quot;#999999&quot;&gt;&lt;b style=&quot;font-size: 12px;&quot;&gt;Private Services Access&lt;/b&gt;&lt;/font&gt;" style="text;html=1;align=center;verticalAlign=middle;resizable=0;points=[];autosize=1;strokeColor=none;fillColor=none;" parent="10" vertex="1">
                    <mxGeometry x="556.9354838709677" y="335.00000000000006" width="160" height="30" as="geometry"/>
                </mxCell>
                <mxCell id="61" value="" style="group" parent="10" vertex="1" connectable="0">
                    <mxGeometry x="636.1290322580645" y="169.80874010955566" width="56.126873449131416" height="80.00125989044435" as="geometry"/>
                </mxCell>
                <mxCell id="29" value="" style="editableCssRules=.*;shape=image;verticalLabelPosition=bottom;labelBackgroundColor=#ffffff;verticalAlign=top;aspect=fixed;imageAspect=0;image=data:image/svg+xml,PHN2ZyB4bWxuczppbmtzY2FwZT0iaHR0cDovL3d3dy5pbmtzY2FwZS5vcmcvbmFtZXNwYWNlcy9pbmtzY2FwZSIgeG1sbnM6c29kaXBvZGk9Imh0dHA6Ly9zb2RpcG9kaS5zb3VyY2Vmb3JnZS5uZXQvRFREL3NvZGlwb2RpLTAuZHRkIiB4bWxucz0iaHR0cDovL3d3dy53My5vcmcvMjAwMC9zdmciIHhtbG5zOnN2Zz0iaHR0cDovL3d3dy53My5vcmcvMjAwMC9zdmciIHdpZHRoPSI5OS45OTczMDIyMDQ4OTI5NiIgaGVpZ2h0PSI5Ny44ODA4NTM5MDQyOTYzMyIgdmlld0JveD0iLTAuMDQ1Nzc2MzY3MTg3NSAxLjA4Nzc4ODU4MTg0ODE0NDUgOTkuOTk3Mjk5MTk0MzM1OTQgOTcuODgwODQ0MTE2MjEwOTQiIHZlcnNpb249IjEuMSIgaWQ9InN2ZzUiIGlua3NjYXBlOnZlcnNpb249IjEuMSAoYzY4ZTIyYzM4NywgMjAyMS0wNS0yMykiIHNvZGlwb2RpOmRvY25hbWU9ImNsb3VkX25hdC5zdmciPiYjeGE7ICA8c29kaXBvZGk6bmFtZWR2aWV3IGlkPSJuYW1lZHZpZXc3IiBwYWdlY29sb3I9IiNmZmZmZmYiIGJvcmRlcmNvbG9yPSIjNjY2NjY2IiBib3JkZXJvcGFjaXR5PSIxLjAiIGlua3NjYXBlOnBhZ2VzaGFkb3c9IjIiIGlua3NjYXBlOnBhZ2VvcGFjaXR5PSIwLjAiIGlua3NjYXBlOnBhZ2VjaGVja2VyYm9hcmQ9IjAiIGlua3NjYXBlOmRvY3VtZW50LXVuaXRzPSJtbSIgc2hvd2dyaWQ9ImZhbHNlIiBpbmtzY2FwZTp6b29tPSIwLjU3OTMzNzQ0IiBpbmtzY2FwZTpjeD0iLTQyLjI4OTY4OSIgaW5rc2NhcGU6Y3k9IjI1NC42MDExOSIgaW5rc2NhcGU6d2luZG93LXdpZHRoPSIxOTIwIiBpbmtzY2FwZTp3aW5kb3ctaGVpZ2h0PSIxMDE3IiBpbmtzY2FwZTp3aW5kb3cteD0iLTgiIGlua3NjYXBlOndpbmRvdy15PSItOCIgaW5rc2NhcGU6d2luZG93LW1heGltaXplZD0iMSIgaW5rc2NhcGU6Y3VycmVudC1sYXllcj0ibGF5ZXIxIiBmaXQtbWFyZ2luLXRvcD0iMCIgZml0LW1hcmdpbi1sZWZ0PSIwIiBmaXQtbWFyZ2luLXJpZ2h0PSIwIiBmaXQtbWFyZ2luLWJvdHRvbT0iMCIvPiYjeGE7ICA8ZGVmcyBpZD0iZGVmczIiLz4mI3hhOyAgPGcgaW5rc2NhcGU6bGFiZWw9IkxheWVyIDEiIGlua3NjYXBlOmdyb3VwbW9kZT0ibGF5ZXIiIGlkPSJsYXllcjEiIHRyYW5zZm9ybT0idHJhbnNsYXRlKDI1OC42MTk3NSwxNi42Njc3MTUpIj4mI3hhOyAgICA8cGF0aCBpZD0icGF0aDE3MzYyIiBzdHlsZT0ib3BhY2l0eToxO2ZpbGw6IzQyODVmNDtmaWxsLW9wYWNpdHk6MTtzdHJva2U6bm9uZTtzdHJva2Utd2lkdGg6MC45OTk5OTlweDtzdHJva2UtbGluZWNhcDpidXR0O3N0cm9rZS1saW5lam9pbjptaXRlcjtzdHJva2Utb3BhY2l0eToxIiBkPSJNIDE0MS40MTc5Nyw0LjExMTMyODEgMTI0LjQwMjM0LDI0LjM3NSBjIDU3Ljg5NTM3LDQ4LjYxNjQyNiA4My40MTQwNyw5Ni4wNjQ2NyA4My40MTQwNywxNjMuOTQzMzYgMCw3Mi4zMTIyOCAtMzYuMTA3MzEsMTI0LjgyOTc3IC04Mi4wMTk1MywxNjYuMDQ4ODMgbCAxNy42Nzk2OCwxOS42ODc1IGMgNDkuMjAyOTksLTQ0LjE3MzQyIDkwLjc5Njg4LC0xMDQuNDk4MzcgOTAuNzk2ODgsLTE4NS43MzYzMyAwLC03NC44ODE1MiAtMzEuMTU5NDEsLTEzMi4zOTkwMjIgLTkyLjg1NTQ3LC0xODQuMjA3MDMxOSB6IE0gOTYuNTU2NjQxLDc1Ljg4NDc2NiBWIDEwMi4zNDE4IEggMTY2LjQ4MzA1IEMgMTYyLjM5Mjc0LDk0LjU1NDQyIDE1OC40NTE0Myw4Ni44NDE1NDIgMTQ4LjAyMjMzLDc1Ljg4NDc2NiBaIE0gMzE3Ljc3OTMsMjAyLjMwNjY0IHYgMzIuMjkyOTcgbCA1OS45OTAyMywtNDUuNTE3NTggLTU5Ljk5MDIzLC00NS41MTc1OCB2IDMyLjI4NTE2IGggLTY0LjQ3NDYxIHYgMjYuNDU3MDMgeiBNIDUwLjA1ODU5NCwxNzUuODQ5NjEgdiAyNi40NTcwMyBIIDE4Ny4yODEyNSBjIDEuMTU3NDUsLTguMDQ3MzcgMS4yODIzMSwtMTYuNzgzMTUgMCwtMjYuNDU3MDMgeiBtIDQ3LjAzNzEwOSwxMDAuMDQ2ODcgdiAyNi40NTcwNCBoIDUwLjY4MjY3NyBjIDguMDE2NTcsLTguMDE0NjYgMTQuNDYxNjksLTE2LjgxNTA0IDE5LjIyMzU3LC0yNi40NTcwNCB6IiB0cmFuc2Zvcm09Im1hdHJpeCgwLjI2NDU4MzMzLDAsMCwwLjI2NDU4MzMzLC0yNTguNjE5NzUsLTE2LjY2NzcxNSkiIHNvZGlwb2RpOm5vZGV0eXBlcz0iY2NzY2NzY2NjY2NjY2NjY2NjY2NjY2NjY2NjY2NjIi8+JiN4YTsgICAgPHBhdGggaWQ9InBhdGgxNjI3MS03IiBzdHlsZT0iY29sb3I6IzAwMDAwMDtvcGFjaXR5OjE7ZmlsbDojNjY5ZGY2O3N0cm9rZS1saW5lam9pbjpyb3VuZDstaW5rc2NhcGUtc3Ryb2tlOm5vbmU7ZmlsbC1vcGFjaXR5OjEiIGQ9Im0gLTIzNy45NTQwOCw1MS45MDU2ODYgYyAtNC4zNDYzLDEwZS03IC03LjkyMzgyLDMuNTc3NTIxIC03LjkyMzgyLDcuOTIzODI4IDAsNC4zNDYzMDcgMy41Nzc1Miw3LjkyMzgyOCA3LjkyMzgyLDcuOTIzODI4IDQuMzQ2MzEsMCA3LjkyMzgzLC0zLjU3NzUyMSA3LjkyMzgzLC03LjkyMzgyOCAwLC00LjM0NjMwNyAtMy41Nzc1MiwtNy45MjM4MjcgLTcuOTIzODMsLTcuOTIzODI4IHogbSAwLDUgYyAxLjY0NDExLDAgMi45MjM4MywxLjI3OTcxOCAyLjkyMzgzLDIuOTIzODI4IDAsMS42NDQxMSAtMS4yNzk3MiwyLjkyMzgyOCAtMi45MjM4MywyLjkyMzgyOCAtMS42NDQxMSwwIC0yLjkyMzgyLC0xLjI3OTcxOCAtMi45MjM4MiwtMi45MjM4MjggMCwtMS42NDQxMSAxLjI3OTcxLC0yLjkyMzgyOCAyLjkyMzgyLC0yLjkyMzgyOCB6IG0gLTEyLjc4NzYxLC0zMS40ODg1OTMgYyAtNC4zNDYzLDEwZS03IC03LjkyMzgyLDMuNTc3NTIxIC03LjkyMzgyLDcuOTIzODI4IDAsNC4zNDYzMDcgMy41Nzc1Miw3LjkyMzgyOCA3LjkyMzgyLDcuOTIzODI4IDQuMzQ2MzEsMCA3LjkyMzgzLC0zLjU3NzUyMSA3LjkyMzgzLC03LjkyMzgyOCAwLC00LjM0NjMwNyAtMy41Nzc1MiwtNy45MjM4MjcgLTcuOTIzODMsLTcuOTIzODI4IHogbSAwLDUgYyAxLjY0NDExLDAgMi45MjM4MywxLjI3OTcxOCAyLjkyMzgzLDIuOTIzODI4IDAsMS42NDQxMSAtMS4yNzk3MiwyLjkyMzgyOCAtMi45MjM4MywyLjkyMzgyOCAtMS42NDQxMSwwIC0yLjkyMzgyLC0xLjI3OTcxOCAtMi45MjM4MiwtMi45MjM4MjggMCwtMS42NDQxMSAxLjI3OTcxLC0yLjkyMzgyOCAyLjkyMzgyLC0yLjkyMzgyOCB6IG0gMTIuNjE2NTIsLTMxLjQzMTQ5MjkgYyAtNC4zNDYzLDZlLTcgLTcuOTIzODIsMy41Nzc1MjA4IC03LjkyMzgyLDcuOTIzODI4MSAwLDQuMzQ2MzA2OCAzLjU3NzUyLDcuOTIzODI3OCA3LjkyMzgyLDcuOTIzODI3OCA0LjM0NjMxLDAgNy45MjM4MywtMy41Nzc1MjEgNy45MjM4MywtNy45MjM4Mjc4IDAsLTQuMzQ2MzA3MyAtMy41Nzc1MiwtNy45MjM4Mjc1IC03LjkyMzgzLC03LjkyMzgyODEgeiBtIDAsNSBjIDEuNjQ0MTEsMmUtNyAyLjkyMzgzLDEuMjc5NzE4NCAyLjkyMzgzLDIuOTIzODI4MSAwLDEuNjQ0MTA5NiAtMS4yNzk3MiwyLjkyMzgyNzkgLTIuOTIzODMsMi45MjM4Mjc5IC0xLjY0NDExLDAgLTIuOTIzODIsLTEuMjc5NzE4MyAtMi45MjM4MiwtMi45MjM4Mjc5IDAsLTEuNjQ0MTA5NyAxLjI3OTcxLC0yLjkyMzgyNzkgMi45MjM4MiwtMi45MjM4MjgxIHoiLz4mI3hhOyAgPC9nPiYjeGE7PC9zdmc+;" parent="61" vertex="1">
                    <mxGeometry x="9.35267990074432" width="46.774193548387096" height="46.774193548387096" as="geometry"/>
                </mxCell>
                <mxCell id="60" value="&lt;font size=&quot;1&quot; color=&quot;#999999&quot;&gt;&lt;b style=&quot;font-size: 12px;&quot;&gt;NAT&lt;/b&gt;&lt;/font&gt;" style="text;html=1;align=center;verticalAlign=middle;resizable=0;points=[];autosize=1;strokeColor=none;fillColor=none;" parent="61" vertex="1">
                    <mxGeometry y="50.001259890444345" width="50" height="30" as="geometry"/>
                </mxCell>
                <mxCell id="65" value="Cloud&#10;Storage" style="sketch=0;html=1;verticalAlign=top;labelPosition=center;verticalLabelPosition=bottom;align=center;spacingTop=-6;fontSize=11;fontStyle=1;fontColor=#999999;shape=image;aspect=fixed;imageAspect=0;image=data:image/svg+xml,PHN2ZyB4bWxucz0iaHR0cDovL3d3dy53My5vcmcvMjAwMC9zdmciIHhtbG5zOnY9Imh0dHBzOi8vdmVjdGEuaW8vbmFubyIgd2lkdGg9IjIwIiBoZWlnaHQ9IjE2IiB2aWV3Qm94PSIwIDAgMjAgMTYiPiYjeGE7CTxzdHlsZSB0eXBlPSJ0ZXh0L2NzcyI+JiN4YTsJLnN0MHtmaWxsOiM0Mjg1ZjQ7fSYjeGE7CS5zdDF7ZmlsbDojNjY5ZGY2O30mI3hhOwkuc3Qye2ZpbGw6I2FlY2JmYTt9JiN4YTsJLnN0M3tmaWxsOiNmZmY7fSYjeGE7CTwvc3R5bGU+JiN4YTsJPHBhdGggY2xhc3M9InN0MiIgZD0iTTAgMGgyMHY3SDB6Ii8+JiN4YTsJPHBhdGggY2xhc3M9InN0MSIgZD0iTTE4IDBoMnY3aC0yeiIvPiYjeGE7CTxwYXRoIGNsYXNzPSJzdDAiIGQ9Ik0xOCA3bDItN2gtMnoiLz4mI3hhOwk8cGF0aCBjbGFzcz0ic3QxIiBkPSJNMCAwaDJ2N0gweiIvPiYjeGE7CTxnIGNsYXNzPSJzdDMiPiYjeGE7CQk8cGF0aCBkPSJNNCAzaDZ2MUg0eiIvPiYjeGE7CQk8cmVjdCB4PSIxMyIgeT0iMiIgd2lkdGg9IjMiIGhlaWdodD0iMyIgcng9IjEuNSIvPiYjeGE7CTwvZz4mI3hhOwk8cGF0aCBjbGFzcz0ic3QyIiBkPSJNMCA5aDIwdjdIMHoiLz4mI3hhOwk8cGF0aCBjbGFzcz0ic3QxIiBkPSJNMTggOWgydjdoLTJ6Ii8+JiN4YTsJPHBhdGggY2xhc3M9InN0MCIgZD0iTTE4IDE2bDItN2gtMnoiLz4mI3hhOwk8cGF0aCBjbGFzcz0ic3QxIiBkPSJNMCA5aDJ2N0gweiIvPiYjeGE7CTxnIGNsYXNzPSJzdDMiPiYjeGE7CQk8cGF0aCBkPSJNNCAxMmg2djFINHoiLz4mI3hhOwkJPHJlY3QgeD0iMTMiIHk9IjExIiB3aWR0aD0iMyIgaGVpZ2h0PSIzIiByeD0iMS41Ii8+JiN4YTsJPC9nPiYjeGE7PC9zdmc+;" parent="10" vertex="1">
                    <mxGeometry x="745.21" y="373" width="42" height="34" as="geometry"/>
                </mxCell>
                <mxCell id="87" style="edgeStyle=none;html=1;exitX=1;exitY=0.5;exitDx=0;exitDy=0;entryX=0.5;entryY=0;entryDx=0;entryDy=0;strokeColor=#66B2FF;strokeWidth=2;fontColor=#999999;fillColor=#dae8fc;" edge="1" parent="10" source="75" target="26">
                    <mxGeometry relative="1" as="geometry">
                        <Array as="points">
                            <mxPoint x="353" y="70"/>
                        </Array>
                    </mxGeometry>
                </mxCell>
                <mxCell id="75" value="" style="shape=image;verticalLabelPosition=bottom;labelBackgroundColor=default;verticalAlign=top;aspect=fixed;imageAspect=0;image=data:image/png,iVBORw0KGgoAAAANSUhEUgAAAgAAAAIACAYAAAD0eNT6AAAAAXNSR0IArs4c6QAAIABJREFUeAHt3Q+IJGed8PHl5dAQQvAIF7y7EKInHh4GRU8IS0hX1+wZAwm8kXhoMP7t7kly7GsiXlhEpMn00+sqOWK4xVtnqrMhir6Ju0mIJ+aCnku4kLhLOMEEJb4sxxKixmXNVD1Vs1mXfvl1z2x6Z+dPV3U9Tz1V9V0Ytqenuup5PvV0Pb966vmzYwf/EEAAAQQQQAABBBBAAAEEEEAAAQQQQAABBBBAAAEEEEAAAQQQQAABBBBAAAEEEEAAAQQQQAABBBBAAAEEEEAAAQQQQAABBBBAAAEEEEAAAQQQQAABBBBAAAEEEEAAAQQQQAABBBBAAAEEEEAAAQQQQAABBBBAAAEEEEAAAQQQQAABBBBAAAEEEEAAAQQQQAABBBBAAAEEEEAAAQQQQAABBBBAAAEEEEAAAQQQQAABBBBAAAEEEEAAAQQQQAABBBBAAAEEEEAAAQQQQAABBBBAAAEEEEAAAQQQQAABBBBAAAEEEEAAAQQQQAABBBBAAAEEEEAAAQQQQAABBBBAAAEEEEAAAQQQQAABBBBAAAEEEEAAAQQQQAABBBBAAAEEEEAAAQQQQAABBBBAAAEEEEAAAQQQQAABBBBAAAEEEEAAAQQQQAABBBBAAAEEEEAAAQQQQAABBBBAAAEEEEAAAQQQQAABBBBAAAEEEEAAAQQQQAABBBBAAAEEEEAAAQQQQAABBBBAAAEEEEAAAQQQQAABBBBAAAEEEEAAAQQQQAABBBBAAAEEEEAAAQQQQAABBBBAAAEEEEAAAQQQQAABBBBAAAEEEEAAAQQQQAABBBBAAAEEEEAAAQQQQAABBBBAAAEEEEAAAQQQQAABBBBAAAEEEEAAAQQQQAABBBBAAAEEEEAAAQQQQAABBBBAAAEEEEAAAQQQQAABBBBAAAEEEEAAAQQQQAABBBBAAAEEEEAAAQQQQAABBBBAAAEEEEAAAQQQQAABBBBAAAEEEEAAAQQQQAABBBBAAAEEEEAAAQQQQAABBBBAAAEEEEAAAQQQQAABBBBAAAEEEEAAAQQQQAABBBBAAAEEEEAAAQQQQAABBBBAAAEEEEAAAQQQQAABBBBAAAEEEEAAAQQQQAABBBBAAAEEEEAAAQQQQAABBBBAAAEEEEAAAQQQQAABBBBAAAEEEEAAAQQQQAABBBBAAAEEEEAAAQQQQAABBBBAAAEEEEAAAQQQQAABBBBAAAEEEEAAAQQQQAABBBBAAAEEEEAAAQQQQAABBBBAAAEEEEAAAQQQQAABBBBAAAEEEEAAAQQQQAABBBBAAAEEEEAAAQQQQAABBBBAAAEEEEAAAQQQQAABBBBAAAEEEEAAAQQQQAABBBBAAAEEEEAAAQQQQAABBBBAAAEEEEAAAQQQQAABBBBAAAEEEEAAAQQQQAABBBBAAAEEEEAAAQQQQAABBBBAAAEEEEAAAQQQQAABBBBAAAEEEEAAAQQQQAABBBBAAAEEEEAAAQQQQAABBBBAAAEEEEAAAQQQQAABBBBAAAEEEEAAAQQQQAABBBBAAAEEEEAAAQQQQAABBBBAAAEEEEAAAQQQQAABBBBAAAEEEEAAAQQQQAABBBBAAAEEEEAAAQQQQAABBBBAAAEEEEAAAQQQQAABBBBAAAEEEEAAAQQQQAABBBBAAAEEEEAAAQQQQAABBBBAAAEEEEAAAQQQQAABBBBAAAEEEEAAAQQQQAABBBBAAAEEEEAAAQQQQAABBBBAAAEEEEAAAQQQQAABBBBAAAEEEEAAAQQQQAABBBBAAAEEEEAAAQQQQAABBBBAAAEEEEAAAQQQQAABBBBAAAEEEEAAAQQQQAABBBBAAAEEEEAAAQQQQAABBBBAAAEEEEAAAQQQQAABBBBAAAEEEEAAAQQQQAABBBBAAAEEEEAAAQQQQAABBBBAAAEEEEAAAQQQQAABBBBAAAEEEEAAAQQQQAABBBBAAAEEEEAAAQQQQAABBBBAAAEEEEAAAQQQQAABBBBAAAEEEEAAAQQQQAABBBBAAAEEEEAAAQQQQAABBBBAAAEEEEAAAQQQQAABBBBAAAEEEEAAAQQQQAABBBBAAAEEEEAAAQQQQAABBBBAAAEEEEAAAQQQQAABBJwXuHN/9PY7BivvdOmnc2B4sfNwJBABBBBAAIGyCnSC5NpOoMNOoIcu/cwvxh8tqynpRgABBBBAwGkBVyt/CUQIAJwuOiQOAQQQQKCsAu1BvNPFO/+1VggCgLKWLNKNAAIIIOCsgOuVPy0AzhYdEoYAAq4I7OyGl3sqfG+zHzb8XnxzU+nOXF9/2e9Fexv96L6mCg/Ij6fih5t9/cjopxcNxu+F3xpt1wtVcyG6u9GPbpvr6xu9XnzN9d3X3+V1hxe5kk/SkZ9AazG+ph0kf1y703b1f1oA8jvn7AkBBEoq4O2Lr2gofYPXi77UVHq/14uebCj9oq/CxFfh0ORPo69/56nwWU9F35NgwVO6JQGC1/39JSXlrHWyWwf1B1tB8gdXK/3JdBEA1LqoknkE6icw119+t9ePPt1U+gFfRUcaSp80WcFn3XdDhWebSr/sK31orq+/KgHKDd2Tl9bvjJUnx/NB9L6yVP4SCBAAlKdskVIEEEgp0O0O/9fobnp0Zx8+LnfbWStkFz63GhT8wlPht+RxgrRcpCRhc0MCb1b+iVND/Sbv+Ne/JgAwVBjYLQIIFCMgz+zn+uEt8gze74WvulBxm01DdNxT0f1zC9Gu3Q8M31qMer2P+mbl79Y4//UV/vrfCQDqXW7JPQKVELhuIXnHXD+6p6nCY2YrW7P9AWZPuw6lL4EEQHQwtFO0P/NgdHWZmv0ngwACADtlhKMggEDOAru+llw57rQXPT97xel6xZ4lfeNgQEYu0DKQc+Fb3d3ngpW/bQfJK5OVapleEwCYKRfsFQEEDAjIM31p6pahdvI8nIp/2sBAnxoPS4zeb+C01HKXZa/8JVAhAKhl0SXTCJRLQMbMN3rRvrJ34nMhYPGUfkZGQfCIIPt3oAqVPwFA9vPPJxFAwILArt7ytdztT3uXn3Y7fUo6D/7DPv1XFk5lZQ7RObjyN2Vu9p98REELQGWKJRlBoBoC0szf6OmbZHIcF+6Yq56GhgpP+2r5YZntsBolyFwuqlT50wJgrpywZwQQSCngdYd/Jk3TvoqOV73SdTd/+lECgY0LrpTPzwfRfe1g5dH8f+InOoE+O3l3buM1LQAbn2veRQABSwKjjn398BZf6ZfcrRjTNq+Xd/vRZEN9/YjMmGipCNT6MJ0Dw4s7gX7aRoW//hgEALUuemQegWIFpKl/dc59o/PtE1hkCkjONHvRgD4C5r4jUvnPB/FP1lfMtn4nADB3btkzAghsIjCaj18t/4iKOVPFbDVYaqhQy1oEjBrYpDBnfLvoyl+CDAKAjCePjyGAQHoBr3vqbaPlcUcdz9yv/AhQzjtHJ2T9AXlkk/7M84lJARcqfwKAyTPCawQQMCoglYev9GtUqudVqlbv5vOw9/r6aZmXwWhhqfDOpfJvB9HPbDXzb3UcWgAqXNDIGgIuCHykm1zl98Kn8qh82IczwUMijwU+1h2+xYUyVpY0uFT50wJQllJDOhEooYA0FTcXorvlGTIVtzMVd64tDrL4kqeYXniar+fu75y8tB0kz211R277b7QATHPm2AYBBFIJyEI9voqOUPFXs+Jfd17PSGsAfQM2/4q4WPnTArD5+eIvCCCQUUCWom0ofXJdJZHrnSf7di+wkJkbZVnmjMWmsh+7de8f/9y1O/+1lgZaACpb7MgYAnYFbuievFSmlKVydq9ytnVOJPBrqvAf7ZY8d4/mcuVPC4C75YaUIVAqARnXz0x+9a341wcYsvRw3TsIul75EwCU6hJLYhFwU0Du+Hylw/WVQJV+l+lxfRWekGZurxc92ewtH2z0o/vm+vrLc/3oHk9FX2gq3Zn88XrRl+RvTRXe21R6v6ei78kQuqbSv/CVPlUln43yIlZ1nUVQKv9WkBxda2p39X8eAbh5TSVVCDgvIIujSCW40cW/vO/JErn6GamwpTKfW4h2yZh3E3ezMimS9KD3e/HNEkhIgLDainKmvH7rWkF64auypLPzhTnHBH52EP5FJ4j/29VKfzJdBAA5nnh2hUBdBOR5v9zNlrmiGi16o/QvpLKXSYpc6cAmU+56vfgaGULZVOHjjb7+XZmdfRWe8ZRu1eG7Ybvyn3VCIQKAOpRK8ohAjgIysc+4GXvd3Z5y/3dPhSd8FS7KSAW5A8+RxeiurlsI3yMBgQRdjbJOo9yL9lZ5qKD1yn8p3nf7YuJN3tGnfU0AYPRry84RqJaAr/QH/F74apnuSBsq+rU8h6/KhDVe9/eXyGOD1UcGpep7MeoH0R1eVK1vxY4dUvm3B8kv01bAWbdvL8X7xJAAoGolifwg4KjAXF/fWJpZ/SRI6UV7q1Lpb1Yk5HGBtGbIowJpai9DYCZ9LMrU+rKZ/dr7d+6P3l5E5S/HJwBYOwv8jwACxgTGPf3drmDkmb40kUuFaKLTnjHcnHbsfT16+3jUgX7Z9UCgofSLVRghYLvy7wS6O1lcCAAmNXiNAAK5C3j96NOrw+Acnc1Ph56K7nelE1/uJyDlDuU5u7TWeCr+qduBgH7J2xdfkTJ7zmxuu/JvLyVfWZ95AoD1IvyOAAK5Cfj98A5XK5GGCl8ZjcEvUWe+3E7MlDuSPhvy3N3dAC46XsbArXMgubK9pH+T9Rl+2s9tVPlLESAAmPKLwGYIIJBOoKHC3S5W/jIsbtQjvoKdydKdoem3llEEDgcCJ8oWBEgnvLSVeObtF5M9m53pWQOA9rf1jZvtm/cRQKCmAk2lP+de5a9Pef1oj/SCr+lpmTnbu+6Nrl7tMOjY45zoeJn6BMhjlnagH8pcqQd6ONVnt6j8pTDMFAAsJYtVHpY585eFHSBQR4Hxan6jqW+dqCTGzdfLD+/shpfX8XyYyLO/EPp+L3zBpSBPhmtKR0YT+TWxT+NBwDaVv+QpcwBA5W+iSLBPBMotIOPLXRpOJh3Z5K613Kpupl4qMOnj4dTSzb3whTINETQUBJxtBfFd05SaLAFAa6APcuc/jS7bIFAjAZmz3Vdh4sZdoT4lc/FzoTJfAD/cDS93axnn6MjuB4ZvNZ/zfI6QcxBwth3Eu6dNWdoAQB5b8J2aVpftEKiJgCx44yv9miOV/6NlagquShGRoYOy4qELZUA6LJaposopCEhV+Uu5SxUALEXfL5NpVb5X5AMBpwXm+suXyfPXoi/8DaVfl0V5nMaqeOJGizyp+OGiy4Icv9ELVZm4ZwwCUlf+YjNtANAOVh6V1TvL5ElaEUDAsMBo5Tmlnyn6gi/Tw8oiQ4azy+6nFJBATAKyosuFjEaZMslObJYxCDjbXtJ3ZsnANAFAi8o/Cy2fQaD6As1eNCjyIi89/GWhHpom3StrMja/qcJjBZeP035vead7OpunKGUQkLnylxRsFwC0g5XD3Plvfq74CwK1FSh6lr/RHWYvvrm2J6AEGZfOeLJ8cpFBgKw+WaY5AuS0ThkEnO0s6flZisFWAYBU/h97ZPiWWfbPZxFAoIICXi++psh15ZtK/8Lb+/q7KkhbySyNhwuGp4sLBKIjZVvgaasgoBXos/NB8qlZC8tmAUB7Kfn3Mo2kmNWBzyOAwJQCMqFOkb29ZcU+6Ww2ZXLZzBEBaYovcqSILPjkCMXUydgkCMil8pdEbBQAtIPkx1T+U58iNkSgPgJyQfLU8o+Ku5MLF8t2J1ef0rF9TqXVpsgRIzJL5fapdGuLdUHA2dYg+WReKVwfAFD55yXLfhCooIAsolNU5S/z+FeQtHZZkomDiuscqF8rW38AKSASBMgMfK1B/Ik8C8xkAEDln6cs+0KgYgKeCt9b1Ex/noq+UDHOWmdHFmSSaZqLCSajI1Kh1voErGZ+IgB4uvufw4swQQABBC4QkGeC0vHO9gV7PMyvXGO5L8Db5A3pYf25YOVv5xfjj0pv7s5isqe1pHuj/4P4rtYgvmU+iN7XOTC8eJNdlPrtm7rDi/1e+JTtMiXHk5asUuPllPhxABAdqWoZy4mJ3SBQb4FGP7rP9oVaKv85FX68SvJS4UsFPx/EP2kF+vQ0S7q2A32mHSTPdYJ4b+ug/mCVPCSwLKJPiYxgkRatKllmycvtD8V/TeWfRY7PIFATgcZe/aHxkrqh1eV9PaVbVSCWiVRkyFYr0M9OU+Fvv038K1nwpSoX7vFskvYfBzRV9DyPAqrwDSMPCCBgREAqr0LWfe+HdxjJkMWdSuUiFX97Sf9m+0pdD9Nu0wqSP8wH8RerMFmLPA6Q6ZwLaGWaeuU8i0WHQyGAAALFC3h9/RXbF+W5vv5y8TmfLQWjpv4gOpK2Us+yfXuQ/LITJNfOluLiP+11T72tofSLdsubDnd9Lbmy+NyTAgQQQMAhgesWwvcUMNvfokMEmZIi47Q7gQ6zVOYzfOZsJ9Ddsjdpy4JOMnWvzSDA60VPZjrRfAgBBBCoqoDtzlkyLKzMk/xI5dsJ4m/OUImnfgyw/ljtIH6i7MO5fKU/4Csd2gwC5vr6xqp+j8kXAgggkEpALog2L8DS9Fvm6X2lr0RnEH93fYVc0O//tfs75Z4q2e/FN9stf9Gvyxx8pvpyszECCCCwmYBcCH2lX7J3AdahPG7YLD2uvy93/jJLW0GV/YatBqMRByWfP0CWebZXBpkbwPXvGelDAAELAran+y3j/OyTp6Ejk/cE6Xvxm/5MK1h5tMx9AiTtNh9DyfLS3tejt0+eW14jgAACtRFY7Yl90tqdVy/aW2bc9iC6vhNo6YC34Z140e+3gviuMvvO9Zcv81V03FZ5bCq9v8xepB0BBBDILGCz2VUWhCnzc9fPDsK/aAXJb4uu5Lc6vswi+JkHo6szFwgHPijLCNuaiEpGvVy3kLzDgWyTBAQQQMCegNxtSTOojbuthgr1XH/53fZyl/+RXHvuv1kgINMIl/lRgJw5y4HpgfxLC3tEAAEEHBZo9KJ9Nip/OYbXjz7tMMW2SWstxte43PS/PhjIcw35bXEMbCCjLDwVPmupfJ65vvv6uwxkg10igAAC7gns7IaXy125jQtsFSZekfH26ytZt3+PfyWVqHslb/oUSYuRreWom73lg9OnjC0RQACBEgv4vWivjcp/1NN6X3xFial2zA9O/12Z7v7XAhNZXrjM7pJ2mSbaTjkNz9IXoOylhfQjgMC2Al7395f4Sr9m48LqV2CRn/ZS/C9rlWqZ/m8HyQ+3LQyOb2BzcSpPRfc7zkHyEEAAgdkEGircbaPyl2e4Ze+MJulvB8krZar4J9J69s795R/nbm95ah3KsNjZvl18GgEEEHBUQCq0ptIv2wgA5MLtKMPUyVrt/OfkmP+Jin7T9MnyxFNn1uENm71oYKPMev1oj8MMJA0BBBDILiCz8Nm4kFalU1VnMdkzTUXr6jatpfjh7KXFnU/+wz79VzYWDGqo8JUyz1XhzhkjJQgg4JyArMBnPgDQoVywnct8hgSVr/f/+TMUtpf0bzJk28mPyN25+bIbDss+VbWTJ49EIYBAsQLSy9nGDGsyiUuxOc3v6FKBunp3P2W6zu5+YPjW/ESK25PXHV7kq/CE8SCgFz5VXC45MgIIIGBAwM7QP32qKh2pPvbI8C0yte6UFe2mz+GL/rwMYzRQnArZpYwqMR4AqHDIxECFnF4OigACJgRWh1O9avri6fX1V0ykv4h9ytz/RVfe+Rw/ubYIPxPHHC9dbX6xoCq1Ypk4D+wTAQRKJOD34ptNV/4yt4DMMVAili2TevuDyVX5VMDnP5e3vc/2t/WNW2a0ZH/0lG6ZLsueCk+UfQhryU4ryUUAAVMCvtKHTF80q3bX1Dm48je2K2sTx/v8kv7fpspVEfuVPg1+LzTemuUvhH4R+eOYCCCAQG4C45n/wsRkACDLqnpfL/+kM5PoMomOiQrZ9j5bg6RyFZmNKYI9FX5rsjzwGgEEECidQFNFt5qs/Ff3vVg6mG0SLHeatitrE8eTyYy2yWrp/iwdTc3PCyCPtMq9oFLpTiwJRgCBfAWaKnzcdADgqfC9+abajb2VeBrgc6MS/umh5cvc0Mw3FU2l95su100VXZ9vqtkbAgggYEnghu7JS00vqeop/Yyl7Fg/zHwQ/8TEXbmtfbaD5I/W0SwdcNe90dWmAwBfhZVr2bJ0ejgMAggULWBj6t9GP7qt6HyaOv7ng+g+W5W1ieNIAGPKxoX9NlX0vNEgoBe+ymgAF840aaiNgAy/kp7LMg97O9APyXSsciFrBcnRdhD9rD3Q/9EZxN/tLOmeLHYyH0Tv40u6cfGQOxijF0ilT93UHV688dHL/2470DeYqJht7bO9lFRmXoaNSpOdIYHR+zc6Nu8hgEAOAtLRRsYqd5aSxU6gj2e5OEpTpwQK7UC3b937xz/PIVml34UERTKe2WQAIM9hSw+1RQY6B4YXdwIdZymTLnymih0AJ0+XjHBpqFCbLOMy4mDymHV7/cTPz1z3+Aunb8n75/DzK++umyX5nRC4/aH4r9tL8b68O1q1An26Hawcbg/inROHq91LG89Im/2wUXXYzlL0fRcq8wxpOF6HlrFmXz9iMgDwVXSk6mV8q/xJRX3o6JlXHjt6Zpjnz6Gjp0/94Pk3/n6rY/O3Cgp0DiRXtgfJv0lFneGidq5385Sffeb2xcSrIOO2WZrrR/cYvTDW5PloexBdP2VZS1s2zW6/pHvbFpIKbGChn8uZqqxvkfV0EwRkleNz5wSkqX8+iL/YCXRo/YK6FH1fWhzOJaYGL/xe+JTJAMBT0f01YNwhd9HtQfJL62U2yD6FsATXdSnvskpgQ+nXTZb1uX61plPO8r0lCMiixmdGAjKtqnTiK/IiKv0EWoP4ljqcEqm0fKVPmbwo1qH5f62stAbxJ4osu2mPPR/Ele6bsXZe1v73VPQ9k2VdVtJcO1ad/ycIqPPZz5h3qXSl8k17ETO2/VKyKEu9ZsxOKT5m+vm/3HHJymylwMghkRJQFR3ATvt9kO+aTGOcQ7ZLs4um0p8zGQBUea6LtCeZICCtWI23bwfx7lagz0578bK1nQwr3P2dk5dW9dSYXzddP1pVu83y1TqoP9hxsCyv/860gviuzfJQ1fdlHQqTAYCsdSFTQ1fVL22+CALSitVw+04Q711/cXLr95UXqjpNqq+WHzZ5QZQ7rhoW6R0y94RbZfj8fgIyT0Ydev5vVPb8XviCyTLv9aq3psJGjtO+RxAwrVQNt5MJSFy+UK6lrR0kz925f1iZNezXipqv9EsmL4a7vpZcuXasOv0vlau70wMnv61Lx7+NylyjF+0zWeabC9HdGx23zu8RBNT57G+S99Yg+WwZmkongoAfV+muadwrOjxr8GJ4YpNTX4u3pdWoE8S/Wis/jvwfV33Sn+0KV6OnbzJY5ofNXjTYLg11/DtBQB3P+iZ5lueklsb35z2GurtJlkr3dmOv/pDJC6H0uC4dSs4Jlrksss5amXfAMJr46tsMU5Ox+g1lLvBtqvBYzsWoMrsjCKjMqcyeEelU117Sv8nzAif7k7n/WwN9cDR50FL8cDtIfmxg9sCz7cHKruy5d+eTpudHb6hwtzu5LS4lnQP6LzvBygt5lvcM+wploqLiFNw6suFHX0mVWgrzPnMEAXmLlmx/MvY4wwXsgjt5ecYqi/xs9zxTLsDtJX1nJ9DP5HHczkD/j8z9XjL2C5IrE/SYbAGQFoYLDlrTN2TdiXaQ/DCX8pdy4h8JjmUhrJrSb5ht04tfzfWXmb9+Q/nxmwQBW+BU+U95DJGSxXw+82B0dRYnef6ZT+esuPQTfnh9/bTBAOCM9DHIco6q+pnVjoFftPnoqx2sPMqiVxeWKGmdMlj2hzLt8IVH5Z1JAYKASY2avJ7tLjz5rSz/mwdVa5B8cpaphkdTqD6YXJVHWorah6+i46Yugg2lXywqX64fV2a7tNAacFxWznTdoqj0yeyUpsq+7NfrRV8qKm9lOi5BQJnO1oxpnV9KrsvaBDqaY/1AvkPK5EI8Sy/tMk+jKust+Co8Y+oiSAfA7b8ssviU9FPJ+p3Y5HPHO0t6vuozWG6vu/UWc/3ly0yVfdlv1Ze/3lo33V8JAtJ5lXbr7Be7lRdMzcYn/QdmCALisk6l+pFucpXJC2Dd10ZP8yWdH5z+u9Z44qDjm1TqF/R/mdxuNH32IP6udPKj89n08p4KT5j6Dnhq+UfTp4QtCQIqXgbGd9uZpvo9Lp34TPLIUK1WkPxh8qI69evFZI/JtJnat78Q+qYufuM7oPAfTaW9yvu9Y7DyzvH8GPG/yqiWcXCa/FYeV0kZHY12CZLn2oF+qLOY7GkP4p3SmlNlE1N581V0xNx3QL9kKt1b7ffQsdP9x47+6f+V8Oflw0dPn3zs6Jlh3j+j/f78jfdv5cbfDAtknPHvrK1JS9qBviHLWgTyaMIwnZHdm14UhREARk4bO81RoNlbPmguAAgLGQp46OifDuRdgVZhf4eOnj71g+ff+Psciw+7SiOQrZk9/maaY8y6bWspfnjqO/+JoVhZRyTMmt5ZPi9N9AYvfsMPd8PLZ0kfn0XAtMBcX3/V5HdA+hmYzsP6/RMAbN6CQBCwvrRY+n11NrQtn2Our3jluaap5/6bZXs1nfH6tGz3+3wQf3Gzfbr6fqMf3Wfq4tdQoeZZtKtnnnStCXj96NOmvgOy3yLmAiAA2DwAkJYMgoC10m/x/9Uhd6kCgM8H0X0Wk3juUKNnqxN399tV/vJ3mZfg3A5K8sLkKoBNpV8uCQPJrLHA3EK0y2QA4PeWd9rmJQDYOgAgCLBdInfs2JFl5r/PBSt/W0BSd2QZqiids4pI6yzHlF7Kpi5+TRU9P0va+CwCNgR8pT9g6jsg+5VFh2zkY/IYBADbBwAEAZMlxsLrDDPvHbfNsuLVAAAgAElEQVSQrA0PIU3XnWDU6zpVi0XZhgNKJW3q4uf1oic3xOVNBBwSMD0UVjra2s4uAcB0AQBBgMWSOZo7P0imr1CXkkWLybvgUNKk30mT3tEjg+TaC3bk8BsNFf3aVAAgjxcczjpJQ2Ak4HV/f4m570A4bC5Ed9umJgCYPgAgCLBQOsd31Hr6yj/Qw6I71XUC3Z3m2f/kNq1B/AkLnLkdwjc4CUpT6QdySyg7QsCggMnZMIuYDIsAIF0AQBBg8Mslu5ae/JMV5TSv5xfjjxpO1pa7X105MFXQItOvbrlTx/7Y6OvfGbv76S1/w7HskhwENhSQESumvgdNFd674UENvkkAkD4AkCBAJgs69Fx8hcFTU89dy7PxaSr9yW2KXrdc7uYn0zPN61YQ/3OZzrCv9ClTF75GL1RlsiCt9RVoKH3S1PfA70XWVwx97NjKfqnQ+ElncPjYG/fX91tgMOfjufbTPQIoehWzOgQAJu98ZIIVg0WqdruWhX1kSd+1n90PDN9aOwRDGfZ74aumAgCZa8NQsjfdLS0A6Sr+0d0/lf+m5WnmP9y5f3jJNHfQk9vIvAEzH3iGHbSDePdkeqZ6XbJHACaffXr9qJTrI8xQZDJ9VPrHyHBXCXhbQXxXJ4j/VTqgtmWu/yX9mymWqw47gT4+2j5Ifiifl/3IktmyXyZj2v60mFwSu4gVAQkA0gUA4rV9KWGLzAKrnQDPTlWJnpuAJ7bedDaZwU4QfzNdevWwbJ0AGyo8a+rOx+vrr0x68nosII/Dxq1Lo/L1X1NU8On6oZz7/pxrcQtbgX52FBgM4k9Iaxzn4nwBk51hPRV+6/yjmf+NACBFAHBsZT9BsvkyuaMdJK+kqVCLnlmvE2i5OKe6+MoEQhYoczuEr8LEVABQROen3GBy3JE03bcHK7tGd/aD5Jdpy5SZ7eNftQfJv0k/Gx4l7NhhsjOspyLrz5UJAKYLAMSJyj/Hi91Wu8owEVDcOTC8eKt9mvqbjFpoB/pM2otv2SYCaij9uqkAoIjOT6bKQ9r9dv9zeJE0wXcG8XdlPYu05cjy9mE7WHlU0ivBStq8VmF7s51ho322jQgAtg8AqPwtl0q5A0p7YWsVNBRwvBZ7urt/udBbJp35cFW785kZZIYdSKUvQ1c7S9H3LTTrp2qZmvZ7J9NZy/d0PojeNwNF6T5qsjNsES1hjALYOgCg8i/gK5plMaB2EP3MdlKlSagVJEenvWiubdcOkh/aTuusx/OMTgQU1qJjzagD3yD5t7JW+mvld/3/8t2TANzrDv9s1nLm8uclf8ZawVQ4LKIvDC0AmwcAYlP1Mu3k9y3LUEC5KNl+rp4lUBmls4TLAZvs/ewrfcjJgphToloH9QdXV41M2bk1XcvS+oq5gN+Py6iCqvYV2NkNLzcZAMz1o3tyKnJT74YAYOMA4PDRPwU885+6GOW/YTtTJ6iVF2w9m5SL3HjNgvQX6TI2mzZVeMzcxS86kn8JKn6P45UioyMFVMRGmv1T5ON4O9Dtql1Ar1sI32PuOxAOPaVbtkvtoWNvfODxF07fcvjoG5+Snyd+fua6MryWND529E8vm5jAiDt/26Vwg+O1l5KvpLjgTFzw7AwJ7Cwli1nSJ4HNBtl1/i2vr582dfFrKP2i8wApEtg5uPI37WDlcJbyUaXPSFkvepbOFKdt20393vJOU9+B0X578c3bJsLwBpNBm8uvpe/CoaOnT+UdABw+9sb/pdnfcCGbZvedA8mVrUCnbjKVz5geYy/T+Ga+UC8mpZz0xlPR90xd/KSD4TRlwvVt5MKxWjbizOUj5XDSMhxH+rxUYU4BvxffbOo7IPtt9sOG62XchfSZ6rgolf9k0ONCXmudhnaQ/DjLBU6G5clQJRN40us/S2Cymo+4c0D/pYl0md6nrNhn8uJ3U7eYYZx5ud0xWHlnlg6hWcp3GT8jowZMfSfzOofb7UeW6zX5HZBHDNuloe5/p/KvUQloD+KdM1zszraX4n15RXRydyf7myE9smzx/rKePpmvn4vfxmdPKrYSjOGfeEyWvt/KLOV+8rMyqVBZOwnKRD0mvwMf7oaXb1zCeFcEZAGevJv8V+f2H93551VXcLZyFJAhRpMXkLSvpRVhfnD672ZJ0mcejK7OMtvfZFpbgT59+4PJVbOko8jP+v3wDpMXv4bSNxSZvyzHlqCwE+juDC1CTlTKk+XUxmuZbvizg/AvspgX+RkZrWLwO3CGZ88bn12pmA8dO903VfnjvrG7E+9Kj/lOhr4AkxcyeSQgdx5pe9/L9jJ8K8tMf5PHH7+20znR1Elrquh6gxe/oQQYptJuYr+rQ1WfufA8F3d3Xaa0yOJFMi+CiXNjap9+L3zB3HcgOm4q3WXfL5V/2c/gjOnPstjOZhdDeU4rTfmff1DfJBegf3po+TJJnkzpK7235f1xU3/835vtI8P7x4uaqnhG+nMfNz0EqoiV0M5lLuWL8fC+5LcZykEt7/g3c5J+AdK6lpK/kM3lLtTkehiein9aSMYcP6ipyv8HR88c4s7f8ZO/lrzRfPvj5U5LdwEdj0pI/LW8lPV/rzu8yNzdz2gM9DNlsBkvxatPb1ap8X66FpBWkPy2DC0BxgPgXjQoQ/m3mcbHfn76XlPN/h/r1nMtC5vnL9djrT6HL+Pwqm6uEAXuzO+Fr5oKAmSxIdc74dy+mHjSl4NKPl0lv52XPA6QIL/Aor3toef64S2myr7st4hpgLfNdIEbmKr8Hzt65jFZi6PArHHorAKrC++knhtguwuQqb/L+GfXK7U058JT4bMmL4If6brbSVI6cI4XwMm38jNV9sq2X5k4KU1ZtL2t6VEwjX50m+08uXo8U5W/NPvLo9gqXZNdPYfG0tVZTPaU4eLWDpLn7tw/vMQYRAE79lW4aDIAkLusArK17SHlgtEJ9NNlKHdlTmNrEDt5/qWA+L3wKZNl31PR+7ctiDXY4PCxM1800ez/2M9P/5g7/4oUoE4Q73X5QicdDdc6F1aEfJQNT0VfMHwRvN9FryxLPrtcPl1NWztIXnExaJYA0Ff6lMGyL0MAa98sbbLyl2f+3Pm7eHXNmKZ2EO92cfz1fBD/xPXnmRnJd8hUpQYvgkNZcChr2kx9ThaX6gT6uKuVZtXSNe/gSpm77o2uNlnuq7YWRpbvosnKv6wTT2VxrNVnpMnQpRnYZKY/W6sRFnGi5/rLl5m8EPoqPON1f+/UY5P5IPlU1SpZp/Mz0P/j2neoqXTHZLmXdTaK+D67cszDx974P6aa/WlZceUsG0qHjN0veg52CUJcfn6ZJ72nwhMmL4Yy4VCe6Z11X9Ki43SFWbnFg5KhDLWc9bzl+Xlf6UdNlvm5vv5ynukt075MVv488y9TSZghrTKhQyuI7yqiNaAdxE/IyoUzJL9UH22q8HGTF0OZb90VEJmu1sXHTFUPSGT2TVfKgDw3bih90mSZdy3otWV/+Ogbnzp89PRJ+ZGlfddeb/T75N+2ez2e5MetlkRbprU+jkzPKlP+2hmrHR2RceF1A5/rR/eYvBj6Sr/kimlrMf5o1StbF/Mnwy1d6bDl9eJrTJb3hgrP3tB1ew4EV76P06RDyo0rZWea9LKNAQFZclem85VexXle4CSwaAcrj3aC5FoDyS7FLv3e8k6TF0TZ93ULyTtcwJh19cc8y17d9uXK7ICmx/83lf6FC2WdNCBQOQGJBNuD6PrOUrIos41luYjKY4VRM/+Snr917x//vHJIKTMknWoaKjxtMgiQ4YYpk2Vk83Gwx8Q/Wb43s36mNYg/YeSkptypVNAmy3qZ1sBIScfmCLglII8IZO32VhD/8ygoCFYOywQv406E0RGZua8ziL/bWdK91iD5pKwGSHPShefQ9IyAsv8Lj2r/nU6gWe2vqE6Gi8ke+2f8/CPO9ZffbbLyl303VXTr+UflNwQQQMBhAb8X7TV9Ydz1teI7VnYC/V+z3sny+awtKPE3i/4KSO980+Xc2xdfUXQ+OT4CCCAwtYDpCYFGd0YL0d1TJ8jQhgQAWSvv2T8nnXkNndapd+v3whdMBgBMADT1qWBDBBBwRUCm1ZTV+8xdHPVQLr5F55cAYPaKPGsLiEyqVeT5l7n5zZXvcCj7bvSj+4rMI8dGAAEEMgn4Sh8yfoHcqz+UKXE5fYgAoNYBwP2my/fcQrQrp6LKbhBAAAF7Ap7SLdMXyKYKD9jL0YVHIgCoZwAgLVy+0q+ZLN8NFWrmqL/wO8c7CCBQAgHpvGTyAjnetw6LXBuAAKCeAcCcCj9uumzLjJol+JqTRAQQQGBjAdPDAeUiXOScAAQA9QwAbJRrhv9tfE3hXQQQKImAVM6m75R8FR2XtR6KICEAqF8AYGOmS1+FCdP/FvGN5pgIIJCbgPf16O0yl7npIGCuH96SW6JT7IgAoIYBgOGV/8bfFf1oimLIpggggICbAr6KjpgOAJoqer6I3BMA1CsA8Pa+/i5fhWdMl2fpY1BEeeaYCCCAQK4Cfj+8w/QFU/bfUPqGXBM+xc4IAOoVADR70cB8WS62Y+sUxZ5NEEAAgekE5FmmDGkyfeFsqvCY7XUZCADqEwBc37Vz9++rcHG6bxZbIYAAAiUQaPaWD5oOAEatAD19k00OAoD6BAC2yrDXi6+xWYY5FgIIIGBUYFdv+VobAYAszWqzFYAAoB4BgKfC99rozCrl1+gXkZ0jgAACRQjIwiaWgoCOrfwRANQjAPB74VM2ym5DhbttlV2OgwACCFgTsDMngCygon/ndU+9zUbGCACqHwBI51JLlb+e6y9fZqPccgwEEEDAqoBM2esrfcrKxdTSKmoEANUOAFZXtbTVclXo6oZWLwYcDAEE6ifg95a/YSMAkLHaslyraWECgGoHAF4/2mOjvEr/ApljwHR5Zf8IIIBAYQL/sE//VUOFp21cVGVyINMdAgkAqhsAfKSbXGVj+Or4u8DMf4VdlDgwAgjYE/BU/LCNAECO0VyI7jaZMwKA6gYAXi960lY5ZeifyW8p+0YAAWcEdt0bXW1jSJVcvOUOzmTTaieIv9kJ9NP82DdoB7GxHvNNpT9nq/KXqbKd+XKSEAQQQMC0QLOvH7F1gZUZAqUzl+k8sf9qCFy3kLyjofTr1spnP2xUQ45cIIAAAlMIzPWX322rFWDUEtAL1RTJYpOaC0ifERuLV60FF15fP11zcrKPAAJ1FLDZF0CCjSZ3WnUsZqnyPNfXX12rnG38z7P/VKeHjRFAoCoCtpZWXbuQywRBMgqhKn7kI18BfyH0bbZKSSfDfHPA3hBAAIESCTSV3r9WQdv431Phs/QHKFEBsZRUb198hQSINsqgHEMCDekMayl7HAYBBBBwT0CmPm0ofdLWhVeO01T6AfckSFFRAhIQypwRlssgs/4VdcI5LgIIuCNga42A8y7w/fAOdwRISVEC0unP1jK/a+VPAl7m/C/qjHNcBBBwSsDrDv9MlkFdu0Da+F+aYBs9fZNTECTGuoDtTn9StiXgtZ5RDogAAgi4KtBU0fU2Kv7JY8hYb57DuloizKerqaJbJ8uDjdeyJHZd+6Dc/lD8150Dw4vNn1mOgAACpROwOSxw7WLfUOEr13dZhKV0hWXGBEvAaWtNiomydtbvLe+cMeml/fjti4nXCfQzd+4fXlLaTJBwBBAwIzDqEGixJ/bahdlX4QlZ+MVMrtirawIy9t5XOpw4/0Mbr2XEi2sWNtOzGgAMCQJsqnMsBEok0OhHt9m4GK8/RkNFv2aOgBIVlIxJlSWibY86GZW1Xviq1z31tozJtvox6RjZGuiDrUHyyTwPPBEAEATkCcu+EKiSgKeWf7S+grbxuzyfJQioUkk6Py++0h/wlX7NRllaf4yydDgdVf5L8cOdYLTK49n5IPnU+YrZf1sXABAEZKfkkwhUV0Aq4aIu1L6KjtMnoHplq7FXf6iQO3+Zd6K3fLAMolL5dwbxd1crf6mg5Se3IGCDAIAgoAwFgzQiYFtgrh/esv4uyuLvJ2SxItt55nhmBOYWol2yLLTF8nOuT0FT6Ze97u+d7/T2sUeGb2kHK4fXVf6jIKAV6LOtQfLZWc/OJgEAQcCssHwegSoKNHvRoIiL9viY+rU699iuSnmSoX62e/tPlNkzZVjsZ6vKfyIgONte0nfOUi62CAAIAmaB5bMIVFFA7pykc97EBfXcnZWN96TikAqkirZ1yJNMuGNzcZ/1ZdLr66+47jyu/OMnJir60V3/Jr/PFARsEwAQBLheWEgfArYF5Nmtr8Jk/cXV5u9eP9ojz0dt553jZROQiXZ8FS7aLCPrj+Wp+Keul5ndDwzf2g6mrvzXAoPMQcAUAQBBQLYiz6cQqK5AUUMDJy/qsnTrDd2Tl1ZXuRo5+3A3vFwq38lzV8DrEzu74eUui3b/c3hRe6D/Y5M7/bXKfrP/z7aDeHfa/E0ZABAEpIVlewSqLtBU4YECLuTnPXKQxxGeCt9bdeuy5m9Xb/lavxe+WnA5OeN63xGZjrcT6KczVv5rQUHqICBFAEAQUNYvIelGwISANFfaXrJ144pEh14/+rSJPLLPbALS1D7Xj+7xVXhm43MWnhfImdymqXQnWy7sfEoq//kg/smMlf+5IKAVxHdNm/KUAQBBwLSwbIdAHQS8ffEVMne/yQv4tPtu9vUjZZnZrcplQ8qEA03+owBDWqlcts658k8dBGQIAAgCXC5QpA0B2wKrs7lZn8d9k8DghCwqY9uA440F5lT48aIm97mgPPTCp2RZa1fPjSzA0w6in+V0579W+b/5/2KyZ7u8ZwwACAK2g+XvCNRJoKH0DS40965VAtIaIAsZ1ekcFJnX1ZkiH13zL/p/mULa5dag3d85eWk7SJ4zVvmPZwwctpeSLYc9zhAAEAQU+YXj2Ai4JuD3wzuKvvBPHr/R17+TOQNcH/rl2nlMkx6xbahwd0Pp1yfti3ztqfCEPIZIkw/b27aX4n8xXfmf2/8WLQEzBgDD+cX4o7btOB4CCDgq4PeivUVe/Dc6tqf0MzJ3gaNkpU2W9PBvqvDYRuZFvSePH2R1QddRx+P9kx+eq6RX79hN/b5ZSwABgOslhfQhUDIBWWO9qApgs+PK7HMyjTErC85emK5bSN4hj1g2sy7ufR2WYZrftTNgOwjoBLq7duy1/wkA1iT4HwEEchGQZuFi1wzYcohZ4qnoftcnhcnlROS8EwmexK7oWSA3CTCSZj9s5Jxl47uzHQS0l+J9k5kiAJjU4DUCCOQiIEGAp6LvbXKxtjYGfLPjy0p0jV60z/t69PZcMlzhnYiRwxX/UNaHkE6oZT0FRQYBBABlLTWkGwHHBWT+d5eDAAkOVlelW7xuIXyP45zWkycmq7M9Frruw2ZB3Or7SaOnb7KOk/MBiwoCCAByPpHsDgEE3hRw/HHAeS0Rnlr+kd+Lb3Z57PibsmZeyfmaW4h2jSzUlo9SzrPbppI2sq204khazUjY32sRQUBrkPizdDxkFID9csIRESiVwCgIUPqBIiqJLMeUmQ0bvVBd3339XaWCniGxu76WXDnX11/1VXQ8i5n9z+hTrs/vn+V0zLgg0JuTAE05qmDWiYgIALKcZT6DQA0FXBwiuF3FJWsdeL3oS1JBVu2USUdImSff6+unZZTEdhau/F3md5DZJ6t2PtbyY7slgBaANXn+RwABowKrkwUVvkBMlspMggG5S5Y5BaRVwyiUoZ1Lq4acg7JV+m+eL/2SDEM0xOPMbssSBNAC4EyRISEIlENgPG2wdmXtgIzPp/Vrow6OUpmq6P2uBgQf7oaXS78GmZuhqfTLb1akbj/f3zid0ZE6Te9chiCAAKAc11xSiYBTAlJpypStG1/oy1c5jabC7YVPydBCmX54173R1TIKwib6Dd2Tl8pzcbnDb/aWDzZU9Ouq+HoqflgqRJueLhzL9SCAAMCFUkIaECihwHhimfDZqlRSG+TjjNx1S3O7DKeb6+sve/3o03N9faPMWDfXX3633NHKojXTtCDc1B1ePFp+ea/+0Fw/vKW5EN3dVPqBcY/9snTeSxfcSd8Erx/tmcanhF+BqZLschBAADDVKWQjBBDYSEDukl2cOniDyjzjo4K0FZ4+6avoiMyxLz+rd/HSUuLyWHxDNvq1Kg3z26j8T/ueq0EAAcC0Z5DtEEBgUwFpNpdx3UVVvBw3XaBi3KsXvlCHzn6bfiE2+IOLQQABwAYnircQQCC9gPQL8JV+yXjl4vgEN3XPv7QIed3hRelLUPU/4VoQQABQ/TJHDhGwJiAX/tV55w01Kzt2p0swcu48y/j+Kkzra/rL4lIQQABg+myzfwRqKNBU0fV+L3y17nfDdcm/dJRkqebpv+iuBAEEANOfM7ZEAIEUAlIhNFX4eF0qwXrmU4cNFe6ucy//FF+J8zZ1IQggADjvlPALAgjkLSDNwlWaM6CeFf2Fj15k+OJHuslVeZeXOu2v6CCAAKBOpY28IlCQgIyVX12a9twzYyrSCyvVMpiMnvX3o9sKKkqVO2yRQQABQOWKExlCwF2BZj9s+L3whTJUdKTxggBFJkbaX6fpfCe/SbLM9OeD6L52sPJo/j/xE51An51lYZ8snyUAmDzDvEYAAeMC8ry40Y9uG68Kd0ElQwuBgyMLPBX/VKZHNl44HD9A50ByZSfQx7NUti5+hgDA8QJH8hCoqsDq3PffaKjwNHfbbgZCMpMhQ/vO/wZWKQggADj/3PIbAghYFpD58WXuAAIBp4KAE02lO9Lsbbk4lOJwVQkCCABKUdxIJALVF9j1teTK1Y6CZ2gRKCwYOOGp6AvSMa36JW62HFYhCCAAmK0M8GkEEMhZwNv7+rs8FX6rngvoFFPxS1P/6h0/U/imKM9lDwIIAFKcbDZFAAF7AtLbfK4f3dNQ4Su0CJgJDEYrFvaj25jIJ3u5LnMQQACQ/bzzSQQQsCAwXl9At6SyIhDIJRBImr3lg14vvsbC6avFIcoaBBAA1KJ4kkkEqiFw3UL4Hr8X7fWVfo1gIF0w0FD6RWlRqes4ftPfgDIGAQQApksF+0cAgdwFbuoOL5a5BLxe9CSjBzYPBGQK5tEIi736Q7mfBHZ4gUDZggACgAtOIW8ggECZBGSaYYKBySBAWkeWH5bx+zzbt1+SyxQEEADYLx8cEQEEDAmsrjnwj81eNKjLcsQNFZ5tquj5ub7+qjzXp9I3VLhS7LYsQQABQIqTyqYIIFAeAakIPRW9X557jx8V6JPV6TegX/JVuNhU0a0803ezTJYhCCAAcLPskCoEEMhZYBwQhO+V8e6jJnKlX/RVWIJJh/QpX0VH/N7yN6RZnwo/54JhcHeuBwEEAAZPPrtGAAG3BT7WHb5FWgmkD4FUsKstBRIYJLZbC2RxJE+Fz3oqftjrR3saSt8g0yS7LUjqthNwOQggANju7PF3BBCopcDObni5PFOfU+HHZXrcpgrvleVwPRV9z+vrp2VegvHcBNFxX0XHpc9BQ+mT8jP6Xd5T+iXZZlSx96InZfx9ox/dN9fXX5aWiLm+vlGGNspcB7VErkmm7xisvLMTxL9qBckfXPppf1vfWJNTQDYRQAABBBBAAAEEEEAAAQQQQAABBBBAAAEEEEAAAQQQQAABBBBAAAEEEEAAAQQQQAABBBBAAAEEEEAAAQQQQAABBBBAAAEEEEAAAQQQQAABBBBAAAEEEEAAAQQQQAABBBBAAAEEEEAAAQQQQAABBBBAAAEEEEAAAQQQQAABBBBAAAEEEEAAAQQQQAABBBBAAAEEEEAAAQQQQAABBBBAAAEEEEAAAQQQQAABBBBAAAEEEEAAAQQQQAABBBBAAAEEEEAAAQQQQAABBBBAAAEEEEAAAQQQQAABBBBAAAEEEEAAAQQQQAABBBBAAAEEEEAAAQQQQAABBBBAAAEEEEAAAQQQQAABBBBAAAEEEEAAAQQQQAABBBBAAAEEEEAAAQQQQAABBBBAAAEEEEAAAQQQQAABBBBAAAEEEEAAAQQQQAABBBBAAAEEEEAAAQQQQAABBBBAAAEEEEAAAQQQQAABBBBAAAEEEEAAAQQQQAABBBBAAAEEEEAAAQQQQAABBBBAAAEEEEAAAQQQQAABBBBAAAEEEEAAAQQQQAABBBBAAAEEEEAAAQQQQAABBBBAAAEEEEAAAQQQQAABBBBAAAEEEEAAAQQQQAABBBBAAAEEEEAAAQQQQAABBBBAAAEEEEAAAQQQQAABBBBAAAEEEEAAAQQQQAABBBBAAAEEEEAAAQQQQAABBBBAAAEEEEAAAQQQQAABBBBAAAEEEEAAAQQQQAABBBBAAAEEEEAAAQQQQAABBBBAAAEEEEAAAQQQQAABBBBAAAEEEEAAAQQQQAABBBBAAAEEEEAAAQQQQAABBBBAAAEEEEAAAQQQQAABBBBAAAEEEEAAAQQQQAABBBBAAAEEEEAAAQQQQAABBBBAAAEEEEAAAQQQQAABBBBAAAEEEEAAAQQQQAABBBBAAAEEEEAAAQQQQAABBBBAAAEEEEAAAQQQQAABBBBAAAEEEEAAAQQQQAABBBBAAAEEEEAAAQQQQAABBBBAAAEEEEAAAQQQQAABBBBAAAEEEEAAAQQQQAABBBBAAAEEEEAAAQQQQAABBBBAAAEEEEAAAQQQQAABBBBAAAEEEEAAAQQQQAABBBBAAAEEEEAAAQQQQAABBBBAAAEEEEAAAQQQQAABBBBAAAEEEEAAAQQQQAABBBBAAAEEEEAAAQQQQAABBBBAAAEEEEAAAQQQQAABBBBAAAEEEEAAAQQQQAABBBBAAAEEEEAAAQQQQAABBBBAAAEEEEAAAQQQQAABBBBAAAEEEEAAAQQQQAABBBBAAAEEEEAAAQQQQAABBBBAAAEEEEAAAQQQQAABBBBAAAEEEEAAAQQQQAABBBBAAAEEEEAAAQQQQAABBBBAAAEEEEAAAQQQQAABBBBAAKAl/J4AAAGjSURBVAEEEEAAAQQQQAABBBBAAAEEEEAAAQQQQAABBBBAAAEEEEAAAQQQQAABBBBAAAEEEEAAAQQQQAABBBBAAAEEEEAAAQQQQAABBBBAAAEEEEAAAQQQQAABBBBAAAEEEEAAAQQQQAABBBBAAAEEEEAAAQQQQAABBBBAAAEEEEAAAQQQQAABBBBAAAEEEEAAAQQQQAABBBBAAAEEEEAAAQQQQAABBBBAAAEEEEAAAQQQQAABBBBAAAEEEEAAAQQQQAABBBBAAAEEEEAAAQQQQAABBBBAAAEEEEAAAQQQQAABBBBAAAEEEEAAAQQQQAABBBBAAAEEEEAAAQQQQAABBBBAAAEEEEAAAQQQQAABBBBAAAEEEEAAAQQQQAABBBBAAAEEEEAAAQQQQAABBBBAAAEEEEAAAQQQQAABBBBAAAEEEEAAAQQQQAABBBBAAAEEEEAAAQQQQAABBBBAAAEEEEAAAQQQQAABBBBAAAEEEEAAAQQQQAABBBBAAAEEEEAAAQQQQAABBBBAAAEEEEAAAQQQQAABBBBAAAEEEEAAgbHA/wdJjmICCOSgrAAAAABJRU5ErkJggg==;" vertex="1" parent="10">
                    <mxGeometry x="-19" y="46.5" width="50" height="50" as="geometry"/>
                </mxCell>
                <mxCell id="84" value="&lt;font size=&quot;1&quot; color=&quot;#999999&quot;&gt;&lt;b style=&quot;font-size: 12px;&quot;&gt;Internet&lt;/b&gt;&lt;/font&gt;" style="text;html=1;align=center;verticalAlign=middle;resizable=0;points=[];autosize=1;strokeColor=none;fillColor=none;" vertex="1" parent="10">
                    <mxGeometry x="706.9390322580646" y="18.869999999999948" width="70" height="30" as="geometry"/>
                </mxCell>
                <mxCell id="85" value="&lt;font size=&quot;1&quot; color=&quot;#999999&quot;&gt;&lt;b style=&quot;font-size: 12px;&quot;&gt;IAP&lt;/b&gt;&lt;/font&gt;" style="text;html=1;align=center;verticalAlign=middle;resizable=0;points=[];autosize=1;strokeColor=none;fillColor=none;" vertex="1" parent="10">
                    <mxGeometry x="-14.000967741935483" y="89.99999999999994" width="40" height="30" as="geometry"/>
                </mxCell>
                <mxCell id="96" style="edgeStyle=none;html=1;exitX=1;exitY=0.5;exitDx=0;exitDy=0;entryX=0;entryY=0.5;entryDx=0;entryDy=0;strokeColor=#FFB366;strokeWidth=2;fontColor=#999999;" edge="1" parent="10" source="70" target="65">
                    <mxGeometry relative="1" as="geometry"/>
                </mxCell>
                <mxCell id="69" value="" style="group" parent="3" vertex="1" connectable="0">
                    <mxGeometry x="582.4179374588545" y="579.0810256410257" width="119.87755102040816" height="60.91897435897431" as="geometry"/>
                </mxCell>
                <mxCell id="66" value="" style="shape=image;verticalLabelPosition=bottom;labelBackgroundColor=default;verticalAlign=top;aspect=fixed;imageAspect=0;image=data:image/png,iVBORw0KGgoAAAANSUhEUgAAAgAAAAIACAYAAAD0eNT6AAAAAXNSR0IArs4c6QAAIABJREFUeAHt3X+ILGl5L/AliFzkIkEuIouIiIiIhCBLkCB3errP7qqoSFAREZEgIhJEJEi4hDjZ09VnjyFKFP8QCRJEgkgISxC5iAQJQeQiIiIii4RFRHIX2exU1xwvi8zlnTlzps+c6Znu6veperv6I8jOmel6663P8/Zb366uHw895H8ECBAgQIAAAQIECBAgQIAAAQIECBAgQIAAAQIECBAgQIAAAQIECBAgQIAAAQIECBAgQIAAAQIECBAgQIAAAQIECBAgQIAAAQIECBAgQIAAAQIECBAgQIAAAQIECBAgQIAAAQIECBAgQIAAAQIECBAgQIAAAQIECBAgQIAAAQIECBAgQIAAAQIECBAgQIAAAQIECBAgQIAAAQIECBAgQIAAAQIECBAgQIAAAQIECBAgQIAAAQIECBAgQIAAAQIECBAgQIAAAQIECBAgQIAAAQIECBAgQIAAAQIECBAgQIAAAQIECBAgQIAAAQIECBAgQIAAAQIECBAgQIAAAQIECBAgQIAAAQIECBAgQIAAAQIECBAgQIAAAQIECBAgQIAAAQIECBAgQIAAAQIECBAgQIAAAQIECBAgQIAAAQIECBAgQIAAAQIECBAgQIAAAQIECBAgQIAAAQIECBAgQIAAAQIECBAgQIAAAQIECBAgQIAAAQIECBAgQIAAAQIECBAgQIAAAQIECBAgQIAAAQIECBAgQIAAAQIECBAgQIAAAQIECBAgQIAAAQIECBAgQIAAAQIECBAgQIAAAQIECBAgQIAAAQIECBAgQIAAAQIECBAgQIAAAQIECBAgQIAAAQIECBAgQIAAAQIECBAgQIAAAQIECBAgQIAAAQIECBAgQIAAAQIECBAgQIAAAQIECBAgQIAAAQIECBAgQIAAAQIECBAgQIAAAQIECBAgQIAAAQIECBAgQIAAAQIECBAgQIAAAQIECBAgQIAAAQIECBAgQIAAAQIECBAgQIAAAQIECBAgQIAAAQIECBAgQIAAAQIECBAgQIAAAQIECBAgQIAAAQIECBAgQIAAAQIECBAgQIAAAQIECBAgQIAAAQIECBAgQIAAAQIECBAgQIAAAQIECBAgQIAAAQIECBAgQIAAAQIECBAgQIAAAQIECBAgQIAAAQIECBAgQIAAAQIECBAgQIAAAQIECBAgQIAAAQIECBAgQIAAAQIECBAgQIAAAQIECBAgQIAAAQIECBAgQIAAAQIECBAgQIAAAQIECBAgQIAAAQIECBAgQIAAAQIECBAgQIAAAQIECBAgQIAAAQIECBAgQIAAAQIECBAgQIAAAQIECBAgQIAAAQIECBAgQIAAAQIECBAgQIAAAQIECBAgQIAAAQIECBAgQIAAAQIECBAgQIAAAQIECBAgQIAAAQIECBAgQIAAAQIECBAgQIAAAQIECBAgQIAAAQIECBAgQIAAAQIECBAgQIAAAQIECBAgQIAAAQIECBAgQIAAAQIECBAgQIAAAQIECBAgQIAAAQIECBAgQIAAAQIECBAgQIAAAQIECBAgQIAAAQIECBAgQIAAAQIECBAgQIAAAQIECBAgQIAAAQIECBAgQIAAAQIECBAgQIAAAQIECBAgQIAAAQIECBAgQIAAAQIECBAgQIAAAQIECBAgQIAAAQIECBAgQIAAAQIECBAgQIAAAQIECBAgQIAAAQIECBAgQIAAAQIECBAgQIAAAQKtBCaz+j3jqj72/+4M9qr6F5NZ81fvPTh+cauiWYgAgSIFxjfr8ahq/m1c1XfMqXnn1LSvKrLo29wpASDvIF3zTf/UwcHx723z+NF3AgROBSaz5t17Vf27NecAH75W/AAqAAS80wSAXgPA8f6seXtAWTVJgECHAinI71X1M3b+cfOpABAwoAWAuAG7ymQwms0/H1BWTRIg0KHAZFa/YZX3u9e0n28FgIABLQC0H5B53szzrwaUVZMECHQoMJoevTnPfND3fFTu+gWAgAEtAPQ94AWAgGGtSQKdCggA8fOoABAwpAWA+IF79ScDASBgWGuSQKcCAkD8PCoABAxpASB+4AoAAQNXkwQKEhAA4udRASBgwAsA8QNXAAgYuJokUJCAABA/jwoAAQNeAIgfuAJAwMDVJIGCBASA+HlUAAgY8AJA/MAVAAIGriYJFCQgAMTPowJAwIAXAOIHrgAQMHA1SaAgAQEgfh4VAAIGvAAQP3AFgICBq0kCBQkIAPHzqAAQMOAFgPiBKwAEDFxNEihIQACIn0cFgIABLwDED1wBIGDgapJAQQICQPw8KgAEDHgBIH7gCgABA1eTBAoSEADi51EBIGDACwDxA1cACBi4miRQkIAAED+PCgABA14AiB+4AkDAwNUkgYIEBID4eVQACBjwAkD8wBUAAgauJgkUJCAAxM+jAkDAgBcA4geuABAwcDVJoCABASB+HhUAAga8ABA/cAWAgIGrSQIFCQgA8fOoABAw4AWA+IErAAQMXE0SKEhAAIifRwWAgAEvAMQPXAEgYOBqkkBBAgJA/DwqAAQMeAEgfuAKAAEDV5MEChIQAOLnUQEgYMALAPEDVwAIGLiaJFCQgAAQP48KAAEDXgCIH7gCQMDA1SSBggQEgPh5VAAIGPACQPzAFQACBq4mCRQkIADEz6MCQMCAFwDiB64AEDBwNUmgIAEBIH4eFQACBrwAED9wrwoAk6r5UkBZNUmAQIcCk2r+B1e9z/1t83lWAAgY0ALA5gNzkzf36Mn5BwPKqkkCBDoUeO/B8YvHVfPcJnOBZa+eiwWAgAEtAFw96ILflD9OE0dAWTVJgEDHApPp/FPB88XxLrcvAAQMaAGg+wCwV9W/G1f1U48d1C8PKKkmCRDoSWA8nX/SkYCYOVUACBjUfQeAvap+ZnS7eWRX/j+umjc9/rnnXxZQSk0SIFCAQDqq91hVv3Foc9p4Wv+6zyMQAkDA4O47AIyr5umAzdIkAQIECGQUGFf1MwJARtASmhIASqiCPhAgQKBsAQGg7Pq06p0A0IrNQgQIENgpAQFggOUWAAZYVJtEgACBzAICQGbQEpoTAEqogj4QIECgbAEBoOz6tOqdANCKzUIECBDYKQEBYIDlFgAGWFSbRIAAgcwCAkBm0BKaEwBKqII+ECBAoGwBAaDs+rTqnQDQis1CBAgQ2CkBAWCA5RYABlhUm0SAAIHMAgJAZtASmhMASqiCPhAgQKBsAQGg7Pq06p0A0IrNQgQIENgpAQFggOUWAAZYVJtEgACBzAICQGbQEpoTAEqogj4QIECgbAEBoOz6tOqdANCKzUIECBDYKQEBYIDlFgAGWFSbRIAAgcwCAkBm0BKaEwBKqII+ECBAoGwBAaDs+rTqnQDQis1CBAgQ2CkBAWCA5RYABlhUm0SAAIHMAgJAZtASmhMASqiCPhAgQKBsAQGg7Pq06p0A0IrNQgQIENgpAQFggOUWAAZYVJtEgACBzAICQGbQEpoTAEqogj4QIECgbAEBoOz6tOqdANCKzUIECBDYKQEBYIDlFgAGWFSbRIAAgcwCAkBm0BKaEwBKqII+ECBAoGwBAaDs+rTqnQDQis1CBAgQ2CkBAWCA5RYABlhUm0SAAIHMAgJAZtASmhMASqiCPhAgQKBsAQGg7Pq06p0A0IrNQgQIENgpAQFggOUWAAZYVJtEgACBzAICQGbQEpoTAEqogj4QIECgbAEBoOz6tOqdANCKzUIECBDYKQEBYIDlFgAGWFSbRIAAgcwCAkBm0BKaEwBKqII+ECBAoGwBAaDs+rTqnQDQis1CBAgQ2CkBAWCA5RYABlhUm0SAAIHMAgJAZtASmhMASqiCPhAgQKBsAQGg7Pq06p0A0IrNQgQIENgpAQFggOUWAAZYVJtEgACBzAICQGbQEpoTAEqogj4QIECgbAEBoOz6tOqdANCKzUIECBDYKQEBYIDlFgAGWFSbRIAAgcwCAkBm0BKaEwBKqII+ECBAoGwBAaDs+rTqnQDQis1CBAgQ2CkBAWCA5RYABlhUm0SAAIHMAgJAZtASmhMASqiCPhAgQKBsAQGg7Pq06p0A0IrNQgQIENgpAQFggOUWAAZYVJtEgACBzAICQGbQEpoTALqvwnha/9lkNv/0pv+/MT18S/e93701Pnq7eXjTWp0t/9hB/fLdE+xniyez5h1n7pv8d/Tk/IP9bEFZaxUAyqpHlt4IAFkY12pkb9b857iqjzf+/7S+udaKvbiVwHh6+Mcb1+pevZs3teqEhdYWGFVHX8tRt0lVf3/tlQ9wAQFggEUVALovqgDQvfkmaxQANtHrb1kBIK+9AJDXs4jWBIDuyyAAdG++yRoFgE30+ltWAMhrLwDk9SyiNQGg+zIIAN2bb7JGAWATvf6WFQDy2gsAeT2LaE0A6L4MAkD35pusUQDYRK+/ZQWAvPYCQF7PIloTALovgwDQvfkmaxQANtHrb1kBIK+9AJDXs4jWBIDuyyAAdG++yRoFgE30+ltWAMhrLwDk9SyiNQGg+zIIAN2bb7JGAWATvf6WFQDy2gsAeT2LaE0A6L4MAkD35pusUQDYRK+/ZQWAvPYCQF7PIloTALovgwDQvfkmaxQANtHrb1kBIK+9AJDXs4jWBIDuyyAAdG++yRoFgE30+ltWAMhrLwDk9SyiNQGg+zIIAN2bb7JGAWATvf6WFQDy2gsAeT2LaE0A6L4MAkD35pusUQDYRK+/ZQWAvPYCQF7PIloTALovgwDQvfkmaxQANtHrb1kBIK+9AJDXs4jWBIDuyyAAdG++yRoFgE30+ltWAMhrLwDk9SyiNQGg+zIIAN2bb7JGAWATvf6WFQDy2gsAeT2LaE0A6L4MAkD35pusUQDYRK+/ZQWAvPYCQF7PIloTALovgwDQvfkmaxQANtHrb1kBIK+9AJDXs4jWBIDuyyAAdG++yRoFgE30+ltWAMhrLwDk9SyiNQGg+zIIAN2bb7JGAWATvf6WFQDy2gsAeT2LaG1XA8B7D45f/LaDo1f2UYRtDgAHB8e/N7p159V9uD12UL/8nQfHL+l63dseAEYH//e/J7uu3c7Wl8bM2c9d/nfbA0BfbstqJAAsk9ni3+9qANifNW/fq+rfjav63/en9Se6nCC3MQA8VtVv3JvWf71X1b/Yq+pn+picRlX9lXFV3xlX829MZs07Uojr4q23jQEg2SSjcXX4tXHV1JPZ/O+6sLq4jtSPcVX/suuapX5sawAY3W4eSfUaT+tfdzkvXazdxX8LABdFBvDvXQ0Ak+rwH8ZVfXz2/xQGRrPmO/vV/EPpE1NkabclANz4zJ1XTWbzT4+ro5+dOZ3998b08C2RRhfbPt2RNM+erT/9d69qfpN2cJOb8xuRgWRbAkAySHVJO48Hxti0/nWk0cV6nf07Be3Fmo2r5tlJVX859TO6P9sUAM4C9rhqnl702p/WHz+z7Pu/AkDfFQhY/y4GgNHB8X8bV81zi2+0Cz+Hfsp8YHJeCCIX+nEvoFz6+2l9M/eQePR283A6IpKOjFy6zrt9Hc2aL+Ze91XtnX6aPQ9sF/uWjkqcfGqqmjdd1U6bv5UeANLOYzyd39qr6l9ddLnv3zfrcZvt32SZ0yMQS+v2TOr3ZHb4uk3WsWzZ0gPA6PbRK+++1354X53umw/m31u2fV3/XgDoWryD9e1iANif1X+y/A13/2QV8SmztAAwOnju90+OfEzn/zKu6hdWsUnbMDo4flEHQ/RkFetM5ntV89P0dcXk4L9ek6N/JQaAx2aHrz/9Smb+81XqlV6TPnnn8Fi1jbtHba4K2vcCbqpZOtqU85D3OmPmKsNJVX9/1W2+7nX33muz5jtXrfPsb+nIZArl17Xbxd8FgC6UO17HLgaA9H3k2Rtsnf+efcocVfM/3KRMJQSAdDLd6afq+Tf2qvr/reNw9tp06H0Th1WXTUds9qrm+bP1rvnfH256jkcpAWDhE+OVR2eW+aQwm3bKq7pv+rrJrHn3sr4s+33Or+JKCQBp/G7yXhtN55/ctBY5lhcAcigW1sauBYC049ur6mbZBLTq7+99yrz127U/ZfYVANJ3rmmnfXZi2Krbuux1k2r+910M5xxjdJMdS58BYPETY9qGZbVY9ffpO/kuapbWMarm/7hqv5a8bqOv4voMAPfOx6jqL6eTMJds370jIFf/ff6Drmp21XoEgKt0tvRvOSbXqwfv/YfUH3xt83SXdPtPzD/wYB+u6+Pyv9+dlE+uJBgdHP6PVbalywBwbyK67MSw+75rXL6Ny72a57r4RDmumm8u70Obfq93JUHXAeD06Ez9ntEaX8ms7nP4tVXG6KavSduw+Y7vvLbp6MW6Jw/2EQDOzuDP9h6/+x7N9XXWJnUVADbRK3TZXQsA46p+avXJ8nwCWmWZVT9lZpscrjgJ8Oys4nTZ3ip9b/uadGgzcminKzJOL/1brxarbs8q53h0EQBSkDo9THx62d6q/V//dU2dds6RNUtt7z9Rv2/9vq1c45VOHuwqAExm9RvS+RgXz+DPuf3p/Ijoml3XvgBwndAW/n2XAkA6nNr2++4Wb+alhy+jAkC6Qc+yy/Za9H/Fw5NHX48c9qMn5x+M6/v9O5yzczzGF64kiAoAsUdn7t+2RcN0EmxkzVLbo6r+58V1Rv18dvLg6LPzV1zcpsgAsOn5GOt6TKr6Rxe3r+t/CwBdi3ewvl0KAPtV86frvvFyvD7t8NMlaifXRJ9ertXqpLuLfdmrmh+PnqjfP5nOPzWu6isuJVq+M7jY5vr/jv1EOZ4efmv9PmXZ3h+nMHX3ipGMR42Ovr4/a941ms0/n2700se2jarmm5FTS/RRmyVmL4ymh9+eVPMPpvVPbv32NdddyrqknUuCb/N0OgT/+MHzL9uvmo+Oq/n3cpyPsfr6T8dz1OWSq44FAWBVqS163S4FgHSjn3XfdF5//c50v6rfFzHk04S76mWJ6nR9nRaM7kTe7CrthBfWdckOda2+rr18xFG+uzv8lS6Rjdr20az5y4j32aptCgCrSm3R63YlAKQT9OxMoibe5p8ihvzpp62oPu92u2knHVGz1GaPR23WDgtRO+uYdo9+FlWzVdoVAFZR2rLX7EoAGE/rP4t5U+72juSu6Z23feE3L8099Mezo++qWdD4mh5+K3e9Unsdn2cz8B3+g7UfVfUbI+q2SpsCwCpKW/aanQkA19za1o7mwclmHZP9J+cfyjn000ldfXzPus42b/lrX3j8c8+/LGfNUlt9nWez5bVYPchcceVP7lpebE8AuCgygH/vQgBIj/3dmQli42v7WwaBzJ8o794jffWJsa/t3uL1jqrmI7mnMOfZtHz/rDyOur1vyuL4EAAWNQby8y4EgNF0/ucCQPTEVL+Q8z7u6f7rahZbs7SzzjmNOc8mtl7n74f8D7xaZRwIAKsobdlrdiEA7PV2iVxXE0IZ60kn7eUY/jeevPOq88mujG0bYn/SVyw5HzQzmtYfG6JTadu0N53fzvE+W7cNAWBdsS14/S4EgPTwnruPSw29K15pE0UX/Uk7kdPDvs1Hcn2nvHhXvA0eAuTrg6WHlZvnRtX8q5Nb87fmvJXzfpVus938pItxt6vrOLmzZ08PBxIAtmCHvm4XdyEALJqc3SI38radQ5+c7p6cd/r8g0vuwLbovenPwkCeIyDpAVjp2QLp/Z5zp39Zfc9vjXv0s6G/Fzravl+mG4ndmB6+Jd098jLzLn4nAHSh3PE6di0ALPIKA6vvXLrc6S/WaPHn88eqRt8vf3WXjnYAbY9m3Ek7/f1q/qEu7v+/WKuzn8/eY3vV/OeFW7U1DlqueTY9tTM9vbPPnf5ZHdN/BYBFjYH8vMsBYLGEaaK6+zXBr0xU5zvAs3ut5/yueNG97c+nT8xr3pHr0cYDqvm9nX7k3f7a1O08DMQ+oGpba3nvwVSz5h2jg+MXtTGOXEYAiNTtqW0B4H74xQe09HWv9r4nsLTTT083K+ERpPdX5/J/LYaBdKi7b78e1l/sTv+yinmPnQfscdU8d/JJf9a8I/qrmctqsc7vBIB1tLbktQLA8kLt0kR1ttN//OD51y4XKf8vp2Ggfk869B1xT/gedu6XHmJO23Z2eP9tB/nvwthVpRffY9mekrn05MfFHW+vP98LbH19NdOmvgJAG7XClxEAVivQECeqs51+308ZW60C678q3ZY2ff89lDBw7zyMqvloxK2X1xfOu8Tie2xcpe/Ae91JXxq8NujTvZ1+aV/NrFpFAWBVqS16nQCwfrEWJ6pt+9RyttMfzQ5fv/6Wb+8Si2Fgmx4KdW+nP60/kW60s70VWK/ni1d/jKum3mDHm3tHvnJ7qXbpEtkUQrf5KM1Z5QSAM4kB/VcA2KyYKQykM3Xvnoz2XIkTVbp2OF1GNK76uYPYZsL5lz59rvvpkYESw8DiTj/n3RXzS3bT4uLVH6Wf47FYu6EFNgGgm/He6VoEgHzcdyeqd4+ro6/3vWPZq+pnxtP6ZjrzOt8WDq+l9NCh/Wn98XE1/0Hf4W1UNf82njYfG9qOI+eoSYfP06OMS/pa5/ST/tG/Dr12AkDOkVxIWwJATCFGs6N/7XWHcmv+WMyWDbPVu/exX/nwbv7aNs+WfhZ4aZVPX+uMq/qp/LVY/dyDFNpSiCzNJqI/AkCEas9tCgAxBUiX0fU1MY2q+pfpq4mYLRtuq33exnY0a744XNm4LUtHA/p6n6X1jp6o3x+3dWW1LACUVY8svREAsjDe10j6JNfnA4hOLhG73TxyX6f840qBSTX/g3FV3+lrZ7JXNT/epkvCrsTs8I/jW/PH+qpZWm+67XGHm9vrqgSAXvljVi4A5Hc9PeFu9cOIERNYOgcgneyWf+uG12La8aarIyLqsE6bo6r+yvB047YonQ/Q9y2GJ9Xh/9mVr24EgLix3FvLAkBe+sks3Z62353/wvqf8lXA9fWdVIf/sGDW43kA9XG6ZOz6HntFErh7sm2v9UrjZm82/9tdqIgAMMAqCwD5ivq2g6NXlnYDk/1p/Yl8Wzi8lsbV/MOl7PxPdiZV3ezSYeW2I2pUNR8pqW6TWfPuttuyLcsJANtSqTX6KQCsgXXFS9PDO8ZV/e8lTUp3+/LC6PbRm6/o+s7+Kd32uMybzDQ/cT7A8mF58rjhwp75kB7kc+Mzd161vNfb/xcBYPtr+MAWCAAPkLT6xd50frvAnf/J4VHnAzxY0pN7NlT1j0qt2aSa//2DvfabVLdxVf+4zLrNfzDk8wEEgAG+/wSAzYs6uTV/6907gPX+feSyiTHdOMX5AOe1nlT1l5dZlfJ75wOc1+vsp+LrNp3fOuvr0P4rAAytog899JAAsFlR061at+Wxwc4HOK11/2N+tZNE021vnQ9w/v7cn9V/Uko4W9aPkw8CA70JlwBwPhYH81P/k2Hz9LZipk/U6WEfyyaDAn+/8+cDTA7+6zWnz2BfbSfcfw2dD5Dmh3SCbfqevf96XD9u0gPCHr3dPLyt89qyfgsAy2S2+PcCQPvi9Xm3v7YT4S6fD5C+n51U9ffb2vW13K6fD1DwCbZLv/JLtwIf2lduAkD7fUWxSwoA7Upz42Y9ivvev3l6XNU/jPqkOqrqfx7a5LRKFUez+ecjduJ3x8EPI+/+uMvnA4yn81sRdYtuM31AWGVcbstrBIBtqdQa/RQA1sC6+9L04Ji9qv5VzARyfsg3PWY4LGRM559cf8u3d4n9WfOumHrVx+Pp4d+cyaR7+kesJ50P8Njs8PVn69mV/0a+B0bV/B/3q+ajgTX7XfqgMJRaCQBDqeTCdggACxgr/Jg+OQc+gexOuif9YjcCP/3szPkAo9txN2i6eCvYu18zBF1eeB4OF8fIUH+OPcH23PLkXJ7p/F9Cgtus+c+hPC1QABjgO00AWK+ok9n80xETRWoz3d3sYm8iv/88OR/gc8N+XkDyS49sjalZU09mh6+7WLPIGwztyvkAkTvl9NCnx6r6jYt1O3kc9LT+dcg4mR19dwhfuQkAiyNmID8LAKsXcjw9+qP0pL2QSaJqvrmsJ5FnQA/9/gCBR1CO95+Yf2BZzfar5k9jxkl9vP/k8J8XEBm002H/y+qWniwY9ZXbaDb/i8vWuU2/EwC2qVor9lUAWA1qdPDc74+r+X9ETOqrnJkfeg30QM8HiDxRc5VP4qPq6GtB42XQ9wcY3W4eCQza/3TVOz492CeiZuOqfuHG9PAtV6279L8JAKVXqEX/BIDV0NKZ81ETw3h6+Mer9CLwLmiDOx8g8vvj9Aja9Cja62oW+7ja8++wr+vHNv39bV/4zUv3qvoXQe+1Xz5+zVde6RyOcTX/QdT601cN21SPxb4KAIsaA/lZALi+kOkOekETwvE6hwbTfdD3qibkPuhDOh/g5PvjoBs0pU+mo2r+h9ePmtNXjKaRn2bnX121H9vyuqhH/KZD+6uekX/3ZlF1yHt+evitbT0fQADYlnfRGv0UAK7GSmflp5OGIiaDNjcLSScvpUvCQvozkOcFjGbNX0b4pDb3p/XHrx4xD/51NJ3/eVh/BnQ+QPpuPspp3WvyIx8TPdrSr9wEgAff21v/GwFgeQnTIdxxdfSziElpk9uFjqfNxyL6lNrc1snprIrpe9b0fWuIT8tPb5FntA/leQGRwTY9pjtdDXI2Rlb9b9Q5HGl8buMjugWAVUfOFr1OAFherMAJ4Hgya96xfM3X/yXdxCRkJ5d2niuek3B9L7t9xeMHz78sfZUR5HLt98dXbW3kOQnjarvPB4h9xG/z3OjWnVdfVZtlf4s8h2OVE3+X9auv3wsAfckHrlcAuBx3XDUfCdqR3HfnuMvXfv1vw69KuOZkqet72O0r0qfsqBs0nVwadrMeb7pFkVcljKvtPR8g8OTW40lVv3+TuqUrEsKOKF1x6e8mfY5aVgCIku2xXQHgQfzgw5E/TGcaP7jW9X+T7ksQNTlt2/0BIr9nn8yav1q/OpcvsTeELk3dAAARmElEQVSd344Kltt4f4DIy1tHVf2Vy6uw3m8ns+Z/hdWsxTkl6/U+36sFgHyWxbQkANxfisgz7cfV5XeOu78H6/0r8oS3bTkfIPa68fn3cp61nb6Ljnoi4badDxB5g6tx1Ty9yqWaq7zbTs7hCLyqZFw1b1qlH32/RgDouwIB6xcA7kdNN3iJSvuTav7B+9e2+b8iJ6eTowuFnw+QvgqJum48PX/+xpN3XrV5le5vIbUZ92z77TgfIPgW12tdqnl/dS7/16O3m4fHVfNszNzQPP22g9+89PI1l/NbAaCcWmTriQBwTrlf1e+LeYOn+/zHfUebTjBLVxVE9L30+wNEXTeeLCez5t3noyPvT7Hvu6Ov5+1t/tZCb9E8rT+Rv8cPPbQ/a94e8R47bXP+jYg+52xTAMipWUhbsRNRfXz9G6Z5ugSK9Ikk3eHt+v6usk0XX3P0s1yHI5dZRU5O6b7sy9bb5+8jT9CazOZ/F71tgUebXpjM6jdE979t+5GP+B23vFRz1W2ZVM2XYuaINGc8+DCwVfvVxesEgC6UO16HAHAOnm7TmU5+y/kGX/fOcee9Wf+ngPuY30k3vsn5Hfj6W3X1EumSxdzPaJhU9Y9ynah5Ve/feXD8kr2q+WnO8Xby3fft5pGr1tv339JJlXm3+W7gnta/TkfDIrcv1SxddhnR/8ijhDlMBIAcioW1IQA8WJD9av6hXHfbG03rP3twDTG/yXkf87RjSndBjOlp3lbT96e57tmQ6j6aHb4+bw+Xtzaq6jfmu9Pk4deijzQt35L1/pKOAowzP343HQVbrxftXh1wlVAK2iFfW7TbwsuXEgAud9nq3woAl5cvHULd+L77wYcjL+v56Nbzr92rmuc3+4Ry+LX0Seey9kv+XQpu6UqLzbZ9/uGutzEdZdmkz6neESeYRjukT+uj6eG3N9n2e8tOD/8mur+L7Y+mdaa7cTY/SYFise1SfxYASq3MBv0SAJbjpUsC03fB9yaZ6uJ3+8v/ParqX/b15K/9J9qezNg8uz9r3rVcpPy/pLu+tb/Mrr8Tsdo+bXKvmv8gPbym/Mpc3sP09VL69Lvh43+z3Vvj8l5e/tu2NTufT7YraAsAl4+Drf6tAHB9+dLZ4OtcApTrznHX92z5K8bV4XrPop8dfTdd6rS8xe35y8kJndP6r0/qsGJoS5cS9nkp1umdHVe/jXHathROuzhXoYvKn57Q2Tx9vnNcHq4XX3N674PD13XRx4vruHsJaotbTzfPbnor8It96eLfAkAXyh2vQwBYDXydw5XrPnlstR6s96rTk5VWepDRC6m/JZ/ot96Wn796fLMepyMxizuMJT+/MJoevfl8yX5+WvVBRifPO5jW/7OfXsatNQWwdS/rTF/7xPXo+pZTzdYJmukJoNsatAWA68fD1r1CAFi9ZKsdrsx757jVe/fgK9Mdxq4+tDr/j2198M+DW3v5b9LXMNc9I2AynX/q8qW7/+11Z8inw87poUfd96y7Na5+Em5/X9ksaoyn9c0lwXLxMuitD9oCwGLVB/KzALB+IUfT9ICQBw9Xntw57jP57xy3fg/Pl0i38718cpp/Ix3CPH/lsH9aulOZ1v+7pKMfqS/j2dF3L6nZVpwpnmsUpSsx0uWYlzic7FRPvrL5Qhl3z7vurobpiE06UpDLpq92BIC+5APXKwC0w02XW118ilnknePa9fKhh052KFX91NlEuq1njLfd/sXlLl7Zke6eOPrs/BWLrynh5wdvO7s9Z4rn9EvnNyw5CfeF0e3+v7JZ3NZlzzUY0hEbAWCx4gP5WQDYrJCnfs1zo1nzxc1ails6HQbfq+pfpTPG02WCcWsqv+WzKztOTqK7Ob9Rao/TNe0nfazqL2/jJZk5XdOVKYsn4Y5m87/I2X6uti7MpYM7YiMA5BopBbVzYdAufmfV0c9l3Ap4k5K89eDOq9OOZZM2opd9/OD516ZDldHr2Zb2H+vwZj9tTbahj223bd3lRrePXplOoEtfj5T0lc3F7RhX86+mOwVuy7X9F/t/1b8FgKt0tvRvAsCWFk63CeyYQNrxl37eSjpaM9QjNgLAAN9wAsAAi2qTCBAgkFlAAMgMWkJzAkAJVdAHAgQIlC0gAJRdn1a9EwBasVmIAAECOyUgAAyw3ALAAItqkwgQIJBZQADIDFpCcwJACVXQBwIECJQtIACUXZ9WvRMAWrFZiAABAjslIAAMsNwCwACLapMIECCQWUAAyAxaQnMCQAlV0AcCBAiULSAAlF2fVr0TAFqxWYgAAQI7JSAADLDcAsAAi2qTCBAgkFlAAMgMWkJzAkAJVdAHAgQIlC0gAJRdn1a9EwBasVmIAAECOyUgAAyw3ALAAItqkwgQIJBZQADIDFpCcwJACVXQBwIECJQtIACUXZ9WvRMAWrFZiAABAjslIAAMsNwCwACLapMIECCQWUAAyAxaQnMCQAlV0AcCBAiULSAAlF2fVr0TAFqxWYgAAQI7JSAADLDcAsAAi2qTCBAgkFlAAMgMWkJzAkAJVdAHAgQIlC0gAJRdn1a9EwBasVmIAAECOyUgAAyw3ALAAItqkwgQIJBZQADIDFpCcwJACVXQBwIECJQtIACUXZ9WvRMAWrFZiAABAjslIAAMsNwCwACLapMIECCQWUAAyAxaQnMCQAlV0AcCBAiULSAAlF2fVr0TAFqxWYgAAQI7JSAADLDcAsAAi2qTCBAgkFlAAMgMWkJzAkAJVdAHAgQIlC0gAJRdn1a9EwBasVmIAAECOyUgAAyw3ALAAItqkwgQIJBZQADIDFpCcwJACVXQBwIECJQtIACUXZ9WvRMAWrFZiAABAjslIAAMsNwCwACLapMIECCQWUAAyAxaQnMCQAlV0AcCBAiULSAAlF2fVr0TAFqxWYgAAQI7JSAADLDcAsAAi2qTCBAgkFlAAMgMWkJzAkAJVdAHAgQIlC0gAJRdn1a9EwBasVmIAAECOyUgAAyw3ALAAItqkwgQIJBZQADIDFpCcwJACVXQBwIECJQtIACUXZ9WvRMAWrFZiAABAjslIAAMsNwCwACLapMIECCQWUAAyAxaQnMCQAlV0AcCBAiULSAAlF2fVr0TAFqxWYgAAQI7JSAADLDcAsAAi2qTCBAgkFlAAMgMWkJzAkAJVdAHAgQIlC0gAJRdn1a9EwBasVmIAAECOyUgAAyw3ALAAItqkwgQIJBZQADIDFpCc30HgL2qeX5S1V/enf83XxpXzUfeeXD8khLqrw8ECOQTeO/B8YtHt+YfHs2aLw5tThtXTT2u6uO+/p/2VfkqpaUTgb4DQF+Dqe/17lXzn9948s6rDEMCBIYh8Ojt5uG9qvlp33PLUNcvAAS8TwSA/hLtuJp/L6CkmiRAoAeB0fTw20Pd+ZawXQJAwKAWAPoMAPXx5NZvXxNQVk0SINChwOiz81eUsJMcch8EgIABLQD0GwBu3KxHAWXVJAECHQqMp0d/NOSdbwnbJgAEDGgBoN8AMLk5vxFQVk0SINChwGh69OYSdpJD7oMAEDCgBQABIGBYaZLATgkIAPHzqAAQ8JYSAOIH7lWp3BGAgEGtSQIdCwgA8fOoABAwqAWA+IErAAQMXE0SKEhAAIifRwWAgAEvAMQPXAEgYOBqkkBBAgJA/DwqAAQMeAEgfuAKAAEDV5MEChIQAOLnUQEgYMALAPEDVwAIGLiaJFCQgAAQP48KAAEDXgCIH7gCQMDA1SSBggQEgPh5VAAIGPACQPzAFQACBq4mCRQkIADEz6MCQMCAFwDiB64AEDBwNUmgIAEBIH4eFQACBrwAED9wBYCAgatJAgUJCADx86gAEDDgBYD4gSsABAxcTRIoSEAAiJ9HBYCAAS8AxA9cASBg4GqSQEECAkD8PCoABAx4ASB+4AoAAQNXkwQKEhAA4udRASBgwAsA8QNXAAgYuJokUJCAABA/jwoAAQNeAIgfuAJAwMDVJIGCBASA+HlUAAgY8AJA/MAVAAIGriYJFCQgAMTPowJAwIAXAOIHrgAQMHA1SaAgAQEgfh4VAAIGvAAQP3AFgICBq0kCBQkIAPHzqAAQMOAFgPiBKwAEDFxNEihIQACIn0cFgIABLwDED1wBIGDgapJAQQICQPw8KgAEDHgBIH7gCgABA1eTBAoSEADi51EBIGDACwDxA1cACBi4miRQkIAAED+PCgABA14AiB+4VwWAGzfrUUBZNUmAQIcCo9vNI1e9z/1t83lWAAgY0ALA5gNzkzf36NadVweUVZMECHQo8NhB/fJN5gHLXj8PCwABA1oAuH7gRb05R7PmOwEl1SQBAj0IjKv6qai5Qrv1sQAQMKgFgH4CwF7V/PjR283DASXVJAECPQikowCTqv6RnXXMnCoABAzq9N3VpKq/7P/dGIxm88/vV/MPvPfg+MUB5dQkAQI9CowOjl+0/0T9vr3Z/G/NqXnn1LSv6rG0Vk2AAAECBAgQIECAAAECBAgQIECAAAECBAgQIECAAAECBAgQIECAAAECBAgQIECAAAECBAgQIECAAAECBAgQIECAAAECBAgQIECAAAECBAgQIECAAAECBAgQIECAAAECBAgQIECAAAECBAgQIECAAAECBAgQIECAAAECBAgQIECAAAECBAgQIECAAAECBAgQIECAAAECBAgQIECAAAECBAgQIECAAAECBAgQIECAAAECBAgQIECAAAECBAgQIECAAAECBAgQIECAAAECBAgQIECAAAECBAgQIECAAAECBAgQIECAAAECBAgQIECAAAECBAgQIECAAAECBAgQIECAAAECBAgQIECAAAECBAgQIECAAAECBAgQIECAAAECBAgQIECAAAECBAgQIECAAAECBAgQIECAAAECBAgQIECAAAECBAgQIECAAAECBAgQIECAAAECBAgQIECAAAECBAgQIECAAAECBAgQIECAAAECBAgQIECAAAECBAgQIECAAAECBAgQIECAAAECBAgQIECAAAECBAgQIECAAAECBAgQIECAAAECBAgQIECAAAECBAgQIECAAAECBAgQIECAAAECBAgQIECAAAECBAgQIECAAAECBAgQIECAAAECBAgQIECAAAECBAgQIECAAAECBAgQIECAAAECBAgQIECAAAECBAgQIECAAAECBAgQIECAAAECBAgQIECAAAECBAgQIECAAAECBAgQIECAAAECBAgQIECAAAECBAgQIECAAAECBAgQIECAAAECBAgQIECAAAECBAgQIECAAAECBAgQIECAAAECBAgQIECAAAECBAgQIECAAAECBAgQIECAAAECBAgQIECAAAECBAgQIECAAAECBAgQIECAAAECBAgQIECAAAECBAgQIECAAAECBAgQIECAAAECBAgQIECAAAECBAgQIECAAAECBAgQIECAAAECBAgQIECAAAECBAgQIECAAAECBAgQIECAAAECBAgQIECAAAECBAgQIECAAAECBAgQIECAAAECBAgQIECAAAECBAgQIECAAAECBAgQIECAAAECBAgQIECAAAECBAgQIECAAAECBAgQIECAAAECBAgQIECAAAECBAgQIECAAAECBAgQIECAAAECBAgQIECAAAECBAgQIECAAAECBAgQIECAAAECBAgQIECAAAECBAgQIECAAAECBAgQIECAAAECBAgQIECAAAECBAgQIECAAAECBAgQIECAAAECBAgQIECAAAECBAgQIECAAAECBAgQIECAAAECBAgQIECAAAECBAgQIECAAAECBAgQIECAAAECBAgQIECAAAECBAgQIECAAAECBAgQIECAAAECBAgQIECAAAECBAgQIECAAAECBAgQIECAAAECBAgQIECAAAECBAgQIECAAAECBAgQIECAAAECBAgQIECAAAECBAgQIECAAAECBAgQIECAAAECBAgQIECAAAECBAgQIECAAAECBAgQIECAAAECBAgQIECAAAECBAgQIECAAAECBAgQIECAAAECBAgQIECAAAECBAgQKFzg/wM9w+H/xKSU+AAAAABJRU5ErkJggg==;" parent="69" vertex="1">
                    <mxGeometry x="35.42328900592494" width="44.95408163265306" height="44.95408163265306" as="geometry"/>
                </mxCell>
                <mxCell id="68" value="&lt;font size=&quot;1&quot; color=&quot;#999999&quot;&gt;&lt;b style=&quot;font-size: 12px;&quot;&gt;Secret Manager&lt;/b&gt;&lt;/font&gt;" style="text;html=1;align=center;verticalAlign=middle;resizable=0;points=[];autosize=1;strokeColor=none;fillColor=none;" parent="69" vertex="1">
                    <mxGeometry y="30.91897435897431" width="110" height="30" as="geometry"/>
                </mxCell>
                <mxCell id="91" style="edgeStyle=none;html=1;exitX=1;exitY=0.5;exitDx=0;exitDy=0;exitPerimeter=0;entryX=0;entryY=0.5;entryDx=0;entryDy=0;strokeColor=#FFB366;strokeWidth=2;fontColor=#999999;" edge="1" parent="3" source="76" target="25">
                    <mxGeometry relative="1" as="geometry"/>
                </mxCell>
                <mxCell id="76" value="" style="fillColor=#28A8E0;verticalLabelPosition=bottom;sketch=0;html=1;strokeColor=#ffffff;verticalAlign=top;align=center;points=[[0.145,0.145,0],[0.5,0,0],[0.855,0.145,0],[1,0.5,0],[0.855,0.855,0],[0.5,1,0],[0.145,0.855,0],[0,0.5,0]];pointerEvents=1;shape=mxgraph.cisco_safe.compositeIcon;bgIcon=ellipse;resIcon=mxgraph.cisco_safe.capability.user;fontColor=#999999;" vertex="1" parent="3">
                    <mxGeometry x="9" y="211.7" width="43" height="43" as="geometry"/>
                </mxCell>
                <mxCell id="86" style="edgeStyle=none;html=1;exitX=1;exitY=0.5;exitDx=0;exitDy=0;exitPerimeter=0;strokeColor=#66B2FF;strokeWidth=2;fontColor=#999999;" edge="1" parent="3" source="77" target="75">
                    <mxGeometry relative="1" as="geometry"/>
                </mxCell>
                <mxCell id="77" value="" style="fillColor=#d5e8d4;verticalLabelPosition=bottom;sketch=0;html=1;strokeColor=#82b366;verticalAlign=top;align=center;points=[[0.145,0.145,0],[0.5,0,0],[0.855,0.145,0],[1,0.5,0],[0.855,0.855,0],[0.5,1,0],[0.145,0.855,0],[0,0.5,0]];pointerEvents=1;shape=mxgraph.cisco_safe.compositeIcon;bgIcon=ellipse;resIcon=mxgraph.cisco_safe.capability.user;gradientColor=#97d077;" vertex="1" parent="3">
                    <mxGeometry x="9" y="90" width="43" height="43" as="geometry"/>
                </mxCell>
                <mxCell id="78" value="" style="outlineConnect=0;dashed=0;verticalLabelPosition=bottom;verticalAlign=top;align=center;html=1;shape=mxgraph.aws3.internet;fillColor=#D2D3D3;gradientColor=none;fontColor=#999999;" vertex="1" parent="3">
                    <mxGeometry x="838" y="10" width="79.5" height="79.5" as="geometry"/>
                </mxCell>
                <mxCell id="79" style="edgeStyle=none;html=1;entryX=0.6;entryY=1;entryDx=0;entryDy=0;entryPerimeter=0;strokeColor=#66B2FF;strokeWidth=2;fontColor=#999999;" edge="1" parent="3" source="29" target="78">
                    <mxGeometry relative="1" as="geometry">
                        <Array as="points">
                            <mxPoint x="886" y="233"/>
                        </Array>
                    </mxGeometry>
                </mxCell>
                <mxCell id="81" value="&lt;font size=&quot;1&quot; color=&quot;#999999&quot;&gt;&lt;b style=&quot;font-size: 12px;&quot;&gt;Operator&lt;/b&gt;&lt;/font&gt;" style="text;html=1;align=center;verticalAlign=middle;resizable=0;points=[];autosize=1;strokeColor=none;fillColor=none;" vertex="1" parent="3">
                    <mxGeometry x="-4.500967741935483" y="132.99999999999994" width="70" height="30" as="geometry"/>
                </mxCell>
                <mxCell id="83" value="&lt;font size=&quot;1&quot; color=&quot;#999999&quot;&gt;&lt;b style=&quot;font-size: 12px;&quot;&gt;User&lt;/b&gt;&lt;/font&gt;" style="text;html=1;align=center;verticalAlign=middle;resizable=0;points=[];autosize=1;strokeColor=none;fillColor=none;" vertex="1" parent="3">
                    <mxGeometry x="8.999032258064517" y="262.99999999999994" width="50" height="30" as="geometry"/>
                </mxCell>
                <mxCell id="93" style="edgeStyle=none;html=1;exitX=1;exitY=0.5;exitDx=0;exitDy=0;strokeColor=#66B2FF;strokeWidth=2;fontColor=#999999;" edge="1" parent="3" target="29">
                    <mxGeometry relative="1" as="geometry">
                        <mxPoint x="471.0043478260868" y="232.66999999999973" as="sourcePoint"/>
                        <mxPoint x="718" y="230" as="targetPoint"/>
                    </mxGeometry>
                </mxCell>
            </root>
        </mxGraphModel>
    </diagram>
</mxfile>